Lato-LightItalic.ufo
<glyph name="exclam" format="2">
  <advance width="474"/>
  <unicode hex="0021"/>
  <outline>
    <contour>
      <point x="287.25" y="1415" type="line" name="n00"/>
      <point x="217.25" y="842.5" type="line" smooth="yes"/>
      <point x="202.75" y="723.5"/>
      <point x="196.75" y="636"/>
      <point x="186.75" y="486.5" type="curve"/>
      <point x="249.25" y="486.5" type="line"/>
      <point x="276.75" y="636"/>
      <point x="292.25" y="723.5"/>
      <point x="307.75" y="842.5" type="curve"/>
      <point x="377.75" y="1415" type="line"/>
    </contour>
    <contour>
      <point x="88.75" y="76.5" type="curve" smooth="yes"/>
      <point x="88.75" y="24.5"/>
      <point x="128.75" y="-15.5"/>
      <point x="180.75" y="-15.5" type="curve" smooth="yes" name="n13"/>
      <point x="232.25" y="-15.5"/>
      <point x="274.25" y="24.5"/>
      <point x="274.25" y="76.5" type="curve" smooth="yes"/>
      <point x="274.25" y="128"/>
      <point x="232.25" y="170"/>
      <point x="180.75" y="170" type="curve" smooth="yes" name="n19"/>
      <point x="128.75" y="170"/>
      <point x="88.75" y="128"/>
    </contour>
  </outline>
  <guideline angle="90" x="281" y="0"/>
  <guideline angle="82.9991" x="100" y="0"/>
</glyph>
<glyph name="numbersign" format="2">
  <advance width="1160"/>
  <unicode hex="0023"/>
  <outline>
    <contour>
      <point x="287.5" y="486.5" type="line"/>
      <point x="284.5" y="466" type="line"/>
      <point x="128.5" y="0" type="line" name="n02"/>
      <point x="169.5" y="0" type="line" smooth="yes"/>
      <point x="191" y="0"/>
      <point x="211" y="10.5"/>
      <point x="219.5" y="39" type="curve"/>
      <point x="362" y="466" type="line"/>
      <point x="365" y="486.5" type="line"/>
      <point x="514" y="930.5" type="line"/>
      <point x="515.5" y="950" type="line"/>
      <point x="672" y="1414.5" type="line" name="n11"/>
      <point x="631.5" y="1414.5" type="line" smooth="yes"/>
      <point x="608.5" y="1414.5"/>
      <point x="590" y="1402"/>
      <point x="582" y="1377.5" type="curve" smooth="yes"/>
      <point x="438" y="950" type="line"/>
      <point x="436" y="930.5" type="line"/>
    </contour>
    <contour>
      <point x="665" y="486.5" type="line"/>
      <point x="662" y="466" type="line"/>
      <point x="520" y="43" type="line"/>
      <point x="510" y="16"/>
      <point x="523.5" y="0"/>
      <point x="544.5" y="0" type="curve" smooth="yes"/>
      <point x="584" y="0" type="line"/>
      <point x="739.5" y="466" type="line"/>
      <point x="742.5" y="486.5" type="line"/>
      <point x="891" y="930.5" type="line"/>
      <point x="893" y="950" type="line"/>
      <point x="1037" y="1374" type="line" smooth="yes"/>
      <point x="1046" y="1399"/>
      <point x="1033.5" y="1414.5"/>
      <point x="1012.5" y="1414.5" type="curve" smooth="yes"/>
      <point x="971.5" y="1414.5" type="line"/>
      <point x="815" y="950" type="line"/>
      <point x="813.5" y="930.5" type="line"/>
    </contour>
    <contour>
      <point x="994" y="443.5" type="line" name="n36"/>
      <point x="1002.5" y="472" type="line"/>
      <point x="1008.5" y="500.5"/>
      <point x="998" y="511.5"/>
      <point x="977" y="511.5" type="curve" smooth="yes" name="n40"/>
      <point x="76.5" y="511.5" type="line"/>
      <point x="69.5" y="483" type="line" smooth="yes"/>
      <point x="62" y="455"/>
      <point x="72.5" y="443.5"/>
      <point x="93.5" y="443.5" type="curve" smooth="yes"/>
    </contour>
    <contour>
      <point x="173" y="903.5" type="line" name="n46"/>
      <point x="1068" y="903.5" type="line" smooth="yes"/>
      <point x="1095" y="903.5"/>
      <point x="1109.5" y="913.5"/>
      <point x="1114" y="935" type="curve"/>
      <point x="1125.5" y="971" type="line"/>
      <point x="230.5" y="971" type="line" smooth="yes" name="n52"/>
      <point x="203" y="971"/>
      <point x="187.5" y="961"/>
      <point x="182.5" y="939.5" type="curve"/>
    </contour>
  </outline>
  <guideline angle="82.9991" x="580" y="0"/>
</glyph>
<glyph name="dollar" format="2">
  <advance width="1160"/>
  <unicode hex="0024"/>
  <outline>
    <contour>
      <point x="1054.75" y="1283" type="line"/>
      <point x="974.25" y="1377.5"/>
      <point x="870.25" y="1430"/>
      <point x="712.75" y="1430" type="curve" smooth="yes" name="n03"/>
      <point x="427.75" y="1430"/>
      <point x="252.75" y="1236"/>
      <point x="252.75" y="1023" type="curve" smooth="yes"/>
      <point x="252.75" y="612"/>
      <point x="901.75" y="775"/>
      <point x="901.75" y="430" type="curve" smooth="yes"/>
      <point x="901.75" y="227.5"/>
      <point x="744.75" y="61.5"/>
      <point x="488.25" y="61.5" type="curve" smooth="yes" name="n12"/>
      <point x="241.25" y="61.5"/>
      <point x="177.75" y="221"/>
      <point x="139.75" y="221" type="curve" smooth="yes"/>
      <point x="127.75" y="221"/>
      <point x="118.75" y="215.5"/>
      <point x="109.75" y="206.5" type="curve"/>
      <point x="79.25" y="168.5" type="line"/>
      <point x="167.25" y="54.5"/>
      <point x="290.25" y="-16"/>
      <point x="478.75" y="-16" type="curve" smooth="yes" name="n22"/>
      <point x="794.25" y="-16"/>
      <point x="992.75" y="199"/>
      <point x="992.75" y="451.5" type="curve" smooth="yes"/>
      <point x="992.75" y="847.5"/>
      <point x="341.25" y="700"/>
      <point x="341.25" y="1043" type="curve" smooth="yes"/>
      <point x="341.25" y="1206"/>
      <point x="470.25" y="1352"/>
      <point x="710.75" y="1352" type="curve" smooth="yes" name="n31"/>
      <point x="911.25" y="1352"/>
      <point x="969.75" y="1234"/>
      <point x="1002.75" y="1234" type="curve" smooth="yes"/>
      <point x="1013.75" y="1234"/>
      <point x="1022.25" y="1239"/>
      <point x="1030.25" y="1250.5" type="curve"/>
    </contour>
    <contour>
      <point x="404.25" y="-258" type="line" name="n38"/>
      <point x="439.25" y="-258" type="line" smooth="yes"/>
      <point x="456.25" y="-258"/>
      <point x="470.25" y="-244.5"/>
      <point x="471.75" y="-228" type="curve"/>
      <point x="791.75" y="1627" type="line" name="n43"/>
      <point x="756.75" y="1627" type="line" smooth="yes"/>
      <point x="739.75" y="1627"/>
      <point x="727.25" y="1613.5"/>
      <point x="724.25" y="1596.5" type="curve" smooth="yes"/>
    </contour>
  </outline>
  <guideline angle="82.9991" x="580" y="0"/>
</glyph>
<glyph name="percent" format="2">
  <advance width="1445.5"/>
  <unicode hex="0025"/>
  <guideline x="707.25" y="0.0" angle="82.9991"/>
  <outline>
    <contour>
      <point x="708.25" y="1136.5" type="curve" smooth="yes"/>
      <point x="708.25" y="1327.5"/>
      <point x="608.25" y="1430.0"/>
      <point x="472.25" y="1430.0" type="curve" smooth="yes"/>
      <point x="298.75" y="1430.0"/>
      <point x="149.75" y="1287.0"/>
      <point x="149.75" y="1012.5" type="curve" smooth="yes"/>
      <point x="149.75" y="824.0"/>
      <point x="248.25" y="721.5"/>
      <point x="385.25" y="721.5" type="curve" smooth="yes"/>
      <point x="550.25" y="721.5"/>
      <point x="708.25" y="862.0"/>
    </contour>
    <contour>
      <point x="634.25" y="1136.0" type="curve" smooth="yes"/>
      <point x="634.25" y="888.0"/>
      <point x="519.75" y="784.0"/>
      <point x="392.75" y="784.0" type="curve" smooth="yes"/>
      <point x="295.75" y="784.0"/>
      <point x="222.25" y="854.0"/>
      <point x="222.25" y="1012.5" type="curve" smooth="yes"/>
      <point x="222.25" y="1260.5"/>
      <point x="335.75" y="1368.0"/>
      <point x="464.75" y="1368.0" type="curve" smooth="yes"/>
      <point x="560.25" y="1368.0"/>
      <point x="634.25" y="1295.5"/>
    </contour>
    <contour>
      <point x="127.75" y="0.0" type="line"/>
      <point x="193.75" y="0.0" type="line" smooth="yes"/>
      <point x="208.75" y="0.0"/>
      <point x="220.75" y="6.5"/>
      <point x="229.25" y="17.0" type="curve"/>
      <point x="1338.25" y="1414.5" type="line"/>
      <point x="1273.25" y="1414.5" type="line"/>
      <point x="1254.75" y="1414.5"/>
      <point x="1244.75" y="1407.0"/>
      <point x="1234.75" y="1397.0" type="curve"/>
    </contour>
    <contour>
      <point x="1322.75" y="398.5" type="curve" smooth="yes"/>
      <point x="1322.75" y="589.5"/>
      <point x="1222.75" y="692.0"/>
      <point x="1086.75" y="692.0" type="curve" smooth="yes"/>
      <point x="913.25" y="692.0"/>
      <point x="764.25" y="549.0"/>
      <point x="764.25" y="274.0" type="curve" smooth="yes"/>
      <point x="764.25" y="86.0"/>
      <point x="862.75" y="-16.5"/>
      <point x="999.75" y="-16.5" type="curve" smooth="yes"/>
      <point x="1164.75" y="-16.5"/>
      <point x="1322.75" y="123.5"/>
    </contour>
    <contour>
      <point x="1248.75" y="398.0" type="curve" smooth="yes"/>
      <point x="1248.75" y="150.0"/>
      <point x="1134.25" y="45.5"/>
      <point x="1007.25" y="45.5" type="curve" smooth="yes"/>
      <point x="910.25" y="45.5"/>
      <point x="836.75" y="116.0"/>
      <point x="836.75" y="274.0" type="curve" smooth="yes"/>
      <point x="836.75" y="522.0"/>
      <point x="950.25" y="629.5"/>
      <point x="1079.25" y="629.5" type="curve" smooth="yes"/>
      <point x="1174.75" y="629.5"/>
      <point x="1248.75" y="557.5"/>
    </contour>
  </outline>
</glyph>
<glyph name="ampersand" format="2">
  <advance width="1287.25"/>
  <unicode hex="0026"/>
  <guideline x="637.0" y="0.0" angle="82.9991"/>
  <outline>
    <contour>
      <point x="485.75" y="801.5" type="line"/>
      <point x="261.75" y="733.0"/>
      <point x="71.25" y="550.5"/>
      <point x="71.25" y="316.0" type="curve" smooth="yes"/>
      <point x="71.25" y="107.0"/>
      <point x="224.75" y="-16.0"/>
      <point x="412.25" y="-16.0" type="curve" smooth="yes"/>
      <point x="791.75" y="-16.0"/>
      <point x="1078.25" y="372.5"/>
      <point x="1120.75" y="673.5" type="curve"/>
      <point x="1060.25" y="673.5" type="line"/>
      <point x="1043.75" y="673.5"/>
      <point x="1036.5" y="664.0"/>
      <point x="1033.25" y="648.75" type="curve"/>
      <point x="985.5" y="399.75"/>
      <point x="747.75" y="59.0"/>
      <point x="431.25" y="59.0" type="curve" smooth="yes"/>
      <point x="299.25" y="59.0"/>
      <point x="166.25" y="151.0"/>
      <point x="166.25" y="327.5" type="curve" smooth="yes"/>
      <point x="166.25" y="523.5"/>
      <point x="314.25" y="688.5"/>
      <point x="537.75" y="760.0" type="curve"/>
    </contour>
    <contour>
      <point x="712.75" y="1430.5" type="curve"/>
      <point x="494.75" y="1430.5"/>
      <point x="342.75" y="1272.0"/>
      <point x="342.75" y="1059.5" type="curve" smooth="yes"/>
      <point x="342.75" y="947.5"/>
      <point x="389.25" y="844.0"/>
      <point x="483.25" y="728.0" type="curve" smooth="yes"/>
      <point x="1048.75" y="29.0" type="line"/>
      <point x="1068.25" y="6.0"/>
      <point x="1081.25" y="0.0"/>
      <point x="1114.25" y="0.0" type="curve" smooth="yes"/>
      <point x="1191.25" y="0.0" type="line"/>
      <point x="551.75" y="785.5" type="line" smooth="yes"/>
      <point x="473.25" y="883.0"/>
      <point x="430.25" y="978.0"/>
      <point x="430.25" y="1070.0" type="curve"/>
      <point x="430.25" y="1235.25"/>
      <point x="542.25" y="1358.0"/>
      <point x="705.75" y="1358.0" type="curve"/>
      <point x="848.75" y="1358.0"/>
      <point x="905.75" y="1240.5"/>
      <point x="911.25" y="1162.0" type="curve" smooth="yes"/>
      <point x="914.75" y="1142.0"/>
      <point x="924.75" y="1136.5"/>
      <point x="941.75" y="1139.0" type="curve" smooth="yes"/>
      <point x="993.5" y="1148.0" type="line"/>
      <point x="994.5" y="1314.5"/>
      <point x="879.75" y="1430.5"/>
    </contour>
  </outline>
</glyph>
<glyph name="quotesingle" format="2">
  <advance width="370"/>
  <unicode hex="0027"/>
  <outline>
    <contour>
      <point x="244.75" y="1414.5" type="line" name="n00"/>
      <point x="207.25" y="1122.5" type="line"/>
      <point x="197.25" y="969" type="line"/>
      <point x="198.75" y="948"/>
      <point x="206.25" y="935" name="n04"/>
      <point x="225.25" y="935" type="curve" smooth="yes"/>
      <point x="246.75" y="935"/>
      <point x="255.75" y="948"/>
      <point x="260.75" y="969" type="curve"/>
      <point x="287.25" y="1122.5" type="line"/>
      <point x="323.25" y="1414.5" type="line"/>
    </contour>
  </outline>
  <guideline angle="90" x="197" y="0"/>
  <guideline angle="82.9991" x="100" y="0"/>
</glyph>
<glyph name="parenleft" format="2">
  <advance width="497.0"/>
  <unicode hex="0028"/>
  <guideline x="276.0" y="0.0" angle="82.9991"/>
  <outline>
    <contour>
      <point x="189.0" y="450.0" type="curve"/>
      <point x="189.0" y="866.0"/>
      <point x="304.0" y="1140.5"/>
      <point x="524.5" y="1458.5" type="curve" smooth="yes"/>
      <point x="539.5" y="1481.0"/>
      <point x="532.0" y="1493.0"/>
      <point x="523.0" y="1500.0" type="curve"/>
      <point x="484.5" y="1524.5" type="line"/>
      <point x="156.0" y="1070.0"/>
      <point x="106.0" y="782.5"/>
      <point x="106.0" y="438.5" type="curve"/>
      <point x="106.0" y="224.0"/>
      <point x="152.0" y="-28.0"/>
      <point x="265.5" y="-263.5" type="curve"/>
      <point x="308.5" y="-239.0" type="line"/>
      <point x="320.5" y="-232.0"/>
      <point x="331.0" y="-220.0"/>
      <point x="320.5" y="-197.5" type="curve"/>
      <point x="233.0" y="-5.0"/>
      <point x="189.0" y="240.0"/>
    </contour>
  </outline>
</glyph>
<glyph name="parenright" format="2">
  <advance width="497"/>
  <unicode hex="0029"/>
  <outline>
    <contour>
      <point x="316.5" y="811" type="curve" smooth="yes"/>
      <point x="316.5" y="429.5"/>
      <point x="201.5" y="120.5"/>
      <point x="-19" y="-197.5" type="curve" smooth="yes"/>
      <point x="-34" y="-220"/>
      <point x="-28" y="-232"/>
      <point x="-17.5" y="-239" type="curve" smooth="yes"/>
      <point x="20.5" y="-263.5" type="line" name="n07"/>
      <point x="349.5" y="191"/>
      <point x="398" y="478.5"/>
      <point x="398" y="822.5" type="curve" smooth="yes"/>
      <point x="398" y="1037.5"/>
      <point x="352" y="1289"/>
      <point x="240" y="1524.5" type="curve" name="n13"/>
      <point x="195.5" y="1500" type="line" smooth="yes"/>
      <point x="183.5" y="1493"/>
      <point x="174.5" y="1481"/>
      <point x="183.5" y="1458.5" type="curve"/>
      <point x="270.5" y="1266"/>
      <point x="316.5" y="1021"/>
    </contour>
  </outline>
  <guideline angle="82.9991" x="276" y="0"/>
</glyph>
<glyph name="asterisk" format="2">
  <advance width="787"/>
  <unicode hex="002A"/>
  <outline>
    <contour>
      <point x="211.5" y="1022" type="line"/>
      <point x="397" y="1132" type="line" smooth="yes"/>
      <point x="419" y="1144.5"/>
      <point x="431.5" y="1153.5"/>
      <point x="451" y="1177.5" type="curve"/>
      <point x="443.5" y="1195.5" type="line"/>
      <point x="415" y="1191.5"/>
      <point x="399" y="1188"/>
      <point x="377.5" y="1175.5" type="curve" smooth="yes"/>
      <point x="192" y="1065.5" type="line"/>
    </contour>
    <contour>
      <point x="450" y="898" type="line" name="n10"/>
      <point x="476.5" y="1112.5" type="line" smooth="yes"/>
      <point x="479.5" y="1137"/>
      <point x="476.5" y="1151.5"/>
      <point x="470" y="1179" type="curve"/>
      <point x="451" y="1179" type="line"/>
      <point x="435" y="1153.5"/>
      <point x="429.5" y="1137"/>
      <point x="426.5" y="1112" type="curve" smooth="yes"/>
      <point x="400" y="898" type="line"/>
    </contour>
    <contour>
      <point x="701" y="1065" type="line"/>
      <point x="540.5" y="1175.5" type="line" smooth="yes"/>
      <point x="522" y="1188.5"/>
      <point x="507.5" y="1191.5"/>
      <point x="481" y="1195.5" type="curve"/>
      <point x="468.5" y="1177.5" type="line"/>
      <point x="482" y="1152"/>
      <point x="492" y="1144.5"/>
      <point x="512" y="1132" type="curve"/>
      <point x="671.5" y="1022" type="line"/>
    </contour>
    <contour>
      <point x="473" y="1492.5" type="line" name="n30"/>
      <point x="446.5" y="1278" type="line" smooth="yes"/>
      <point x="443.5" y="1254"/>
      <point x="446.5" y="1238"/>
      <point x="454" y="1210.5" type="curve"/>
      <point x="473.5" y="1210.5" type="line"/>
      <point x="488" y="1237.5"/>
      <point x="493.5" y="1254"/>
      <point x="496.5" y="1278.5" type="curve" smooth="yes"/>
      <point x="523" y="1492.5" type="line"/>
    </contour>
    <contour>
      <point x="223" y="1325.5" type="line"/>
      <point x="382.5" y="1215" type="line" smooth="yes"/>
      <point x="401" y="1202.5"/>
      <point x="415" y="1199"/>
      <point x="443.5" y="1194" type="curve"/>
      <point x="454" y="1212" type="line"/>
      <point x="439.5" y="1235.5"/>
      <point x="431" y="1246.5"/>
      <point x="412.5" y="1258.5" type="curve"/>
      <point x="253" y="1369" type="line"/>
    </contour>
    <contour>
      <point x="713" y="1368.5" type="line"/>
      <point x="527.5" y="1258.5" type="line"/>
      <point x="505.5" y="1246.5"/>
      <point x="491.5" y="1235.5"/>
      <point x="473.5" y="1212" type="curve"/>
      <point x="481" y="1194" type="line"/>
      <point x="507.5" y="1196"/>
      <point x="523.5" y="1203"/>
      <point x="545.5" y="1215" type="curve"/>
      <point x="731" y="1325" type="line"/>
    </contour>
    <contour>
      <point x="439.5" y="1205.5" type="line"/>
      <point x="436" y="1180.5" type="line"/>
      <point x="455" y="1165" type="line"/>
      <point x="483.5" y="1180" type="line"/>
      <point x="488" y="1209.5" type="line"/>
      <point x="466" y="1218" type="line"/>
    </contour>
  </outline>
  <guideline angle="82.9991" x="368" y="0"/>
</glyph>
<glyph name="plus" format="2">
  <advance width="1160.0"/>
  <unicode hex="002B"/>
  <guideline x="580.0" y="0.0" angle="82.9991"/>
  <outline>
    <contour>
      <point x="115.75" y="635.0" type="line"/>
      <point x="1054.25" y="635.0" type="line"/>
      <point x="1062.75" y="706.0" type="line"/>
      <point x="124.25" y="706.0" type="line"/>
    </contour>
    <contour>
      <point x="610.25" y="1157.0" type="line"/>
      <point x="490.25" y="182.0" type="line"/>
      <point x="566.25" y="182.0" type="line"/>
      <point x="685.75" y="1157.0" type="line"/>
    </contour>
  </outline>
</glyph>
<glyph name="comma" format="2">
  <advance width="425"/>
  <unicode hex="002C"/>
  <outline>
    <contour>
      <point x="58.75" y="84.5" type="curve" smooth="yes"/>
      <point x="58.75" y="32.5"/>
      <point x="93.75" y="-4.5"/>
      <point x="142.75" y="-4.5" type="curve" smooth="yes" name="n03"/>
      <point x="169.25" y="-4.5"/>
      <point x="186.25" y="3.5"/>
      <point x="199.75" y="18" type="curve"/>
      <point x="174.75" y="25.5" type="line"/>
      <point x="174.75" y="-106.5"/>
      <point x="61.75" y="-198.5"/>
      <point x="61.75" y="-220.5" type="curve" smooth="yes"/>
      <point x="61.75" y="-226.5"/>
      <point x="63.25" y="-232.5"/>
      <point x="68.75" y="-237.5" type="curve" smooth="yes"/>
      <point x="85.25" y="-253" type="line" name="n14"/>
      <point x="177.25" y="-168"/>
      <point x="236.25" y="-47.5"/>
      <point x="236.25" y="62.5" type="curve" smooth="yes"/>
      <point x="236.25" y="126"/>
      <point x="202.75" y="170"/>
      <point x="145.75" y="170" type="curve" smooth="yes" name="n20"/>
      <point x="93.75" y="170"/>
      <point x="58.75" y="130.5"/>
    </contour>
  </outline>
  <guideline angle="82.9991" x="185" y="0"/>
</glyph>
<glyph name="hyphen" format="2">
  <advance width="712"/>
  <unicode hex="002D"/>
  <unicode hex="00AD"/>
  <unicode hex="2010"/>
  <outline>
    <contour>
      <point x="134.5" y="554" type="line"/>
      <point x="564" y="554" type="line" name="n01"/>
      <point x="573.5" y="632" type="line" name="n02"/>
      <point x="145" y="632" type="line"/>
    </contour>
  </outline>
  <guideline angle="82.9991" x="294" y="0"/>
</glyph>
<glyph name="period" format="2">
  <advance width="459.0"/>
  <unicode hex="002E"/>
  <guideline x="197.75" y="0.0" angle="82.9991"/>
  <outline>
    <contour>
      <point x="76.0" y="76.5" type="curve" smooth="yes"/>
      <point x="76.0" y="24.5"/>
      <point x="116.0" y="-15.5"/>
      <point x="168.0" y="-15.5" type="curve" smooth="yes"/>
      <point x="219.5" y="-15.5"/>
      <point x="261.5" y="24.5"/>
      <point x="261.5" y="76.5" type="curve" smooth="yes"/>
      <point x="261.5" y="128.0"/>
      <point x="219.5" y="170.0"/>
      <point x="168.0" y="170.0" type="curve" smooth="yes"/>
      <point x="116.0" y="170.0"/>
      <point x="76.0" y="128.0"/>
    </contour>
  </outline>
</glyph>
<glyph name="slash" format="2">
  <advance width="809"/>
  <unicode hex="002F"/>
  <outline>
    <contour>
      <point x="837" y="1445" type="line" name="n00"/>
      <point x="798" y="1445" type="line" smooth="yes"/>
      <point x="773" y="1445"/>
      <point x="753.5" y="1432"/>
      <point x="742" y="1409.5" type="curve" smooth="yes"/>
      <point x="-9" y="-84" type="line" name="n05"/>
      <point x="29" y="-84" type="line" smooth="yes"/>
      <point x="50" y="-84"/>
      <point x="75.5" y="-72.5"/>
      <point x="87.5" y="-47" type="curve"/>
    </contour>
  </outline>
  <guideline angle="82.9991" x="315" y="0"/>
</glyph>
<glyph name="zero" format="2">
  <advance width="1160.0"/>
  <unicode hex="0030"/>
  <guideline x="636.75" y="0.0" angle="82.9991"/>
  <outline>
    <contour>
      <point x="1071.75" y="862.0" type="curve" smooth="yes"/>
      <point x="1071.75" y="1241.75"/>
      <point x="905.0" y="1430.75"/>
      <point x="680.75" y="1430.75" type="curve" smooth="yes"/>
      <point x="381.0" y="1430.75"/>
      <point x="113.5" y="1146.0"/>
      <point x="113.5" y="553.25" type="curve" smooth="yes"/>
      <point x="113.5" y="173.75"/>
      <point x="279.5" y="-14.5"/>
      <point x="503.75" y="-14.5" type="curve" smooth="yes"/>
      <point x="803.25" y="-14.5"/>
      <point x="1071.75" y="267.5"/>
    </contour>
    <contour>
      <point x="975.75" y="866.75" type="curve" smooth="yes"/>
      <point x="975.75" y="299.5"/>
      <point x="750.0" y="63.0"/>
      <point x="512.75" y="63.0" type="curve" smooth="yes"/>
      <point x="342.0" y="63.0"/>
      <point x="208.0" y="212.0"/>
      <point x="208.0" y="548.5" type="curve" smooth="yes"/>
      <point x="208.0" y="1114.0"/>
      <point x="434.5" y="1353.0"/>
      <point x="671.5" y="1353.0" type="curve" smooth="yes"/>
      <point x="842.5" y="1353.0"/>
      <point x="975.75" y="1202.5"/>
    </contour>
  </outline>
</glyph>
<glyph name="one" format="2">
  <advance width="1160.0"/>
  <unicode hex="0031"/>
  <guideline x="474.25" y="0.0" angle="82.9991"/>
  <outline>
    <contour>
      <point x="716.25" y="1420.75" type="line"/>
      <point x="697.25" y="1358.0"/>
      <point x="680.0" y="1288.25"/>
      <point x="672.25" y="1226.5" type="curve" smooth="yes"/>
      <point x="522.0" y="0.0" type="line"/>
      <point x="614.75" y="0.0" type="line"/>
      <point x="789.25" y="1420.75" type="line"/>
    </contour>
    <contour>
      <point x="223.5" y="0.0" type="line"/>
      <point x="896.75" y="0.0" type="line"/>
      <point x="906.0" y="71.25" type="line"/>
      <point x="232.75" y="71.25" type="line"/>
    </contour>
    <contour>
      <point x="295.0" y="1060.0" type="line"/>
      <point x="318.25" y="1021.25" type="line"/>
      <point x="326.0" y="1010.0"/>
      <point x="345.25" y="1002.75"/>
      <point x="365.75" y="1018.5" type="curve" smooth="yes"/>
      <point x="707.25" y="1316.0" type="line"/>
      <point x="716.25" y="1420.75" type="line"/>
    </contour>
  </outline>
</glyph>
<glyph name="two" format="2">
  <advance width="1160"/>
  <unicode hex="0032"/>
  <outline>
    <contour>
      <point x="694.25" y="1430.75" type="curve" smooth="yes" name="n00"/>
      <point x="478.75" y="1430.75"/>
      <point x="302.75" y="1290.25"/>
      <point x="242.25" y="1049.25" type="curve"/>
      <point x="289.25" y="1042.25" type="line" smooth="yes"/>
      <point x="314.25" y="1038.75"/>
      <point x="329.75" y="1047.25"/>
      <point x="341" y="1074.5" type="curve"/>
      <point x="388.25" y="1237.75"/>
      <point x="517.5" y="1352"/>
      <point x="679.75" y="1352" type="curve" smooth="yes" name="n10"/>
      <point x="816.25" y="1352"/>
      <point x="931" y="1269.5"/>
      <point x="931" y="1094.5" type="curve" smooth="yes"/>
      <point x="931" y="883.75"/>
      <point x="797" y="744.5"/>
      <point x="612.5" y="563.5" type="curve"/>
      <point x="109.5" y="74" type="line"/>
      <point x="97.25" y="63.25"/>
      <point x="87.25" y="46.75"/>
      <point x="86" y="32.5" type="curve"/>
      <point x="81.5" y="0" type="line"/>
      <point x="924" y="0" type="line" name="n22"/>
      <point x="931" y="54.25" type="line" smooth="yes"/>
      <point x="933.5" y="73.75"/>
      <point x="921.75" y="86.75"/>
      <point x="901.25" y="86.75" type="curve" smooth="yes" name="n26"/>
      <point x="346.75" y="86.75" type="line" smooth="yes"/>
      <point x="280" y="86.75"/>
      <point x="207.5" y="72.75"/>
      <point x="158.25" y="55.25" type="curve"/>
      <point x="163" y="22.5" type="line"/>
      <point x="678.25" y="526" type="line" smooth="yes"/>
      <point x="865.5" y="708.25"/>
      <point x="1026.25" y="857.5"/>
      <point x="1026.25" y="1102.75" type="curve" smooth="yes"/>
      <point x="1026.25" y="1319.5"/>
      <point x="877" y="1430.75"/>
    </contour>
  </outline>
  <guideline angle="82.9991" x="488" y="0"/>
</glyph>
<glyph name="three" format="2">
  <advance width="1160.0"/>
  <unicode hex="0033"/>
  <guideline x="499.0" y="0.0" angle="82.9991"/>
  <outline>
    <contour>
      <point x="694.5" y="1430.75" type="curve" smooth="yes"/>
      <point x="479.75" y="1430.75"/>
      <point x="303.75" y="1290.25"/>
      <point x="243.25" y="1049.25" type="curve"/>
      <point x="289.25" y="1042.25" type="line" smooth="yes"/>
      <point x="315.25" y="1038.75"/>
      <point x="328.5" y="1047.25"/>
      <point x="340.5" y="1074.5" type="curve"/>
      <point x="387.75" y="1237.75"/>
      <point x="517.75" y="1352.0"/>
      <point x="680.75" y="1352.0" type="curve" smooth="yes"/>
      <point x="817.25" y="1352.0"/>
      <point x="927.75" y="1273.25"/>
      <point x="927.75" y="1105.0" type="curve" smooth="yes"/>
      <point x="927.75" y="898.0"/>
      <point x="786.75" y="766.25"/>
      <point x="545.25" y="759.5" type="curve"/>
      <point x="537.25" y="693.5" type="line"/>
      <point x="786.5" y="692.0"/>
      <point x="876.75" y="579.75"/>
      <point x="876.75" y="433.5" type="curve" smooth="yes"/>
      <point x="876.75" y="260.75"/>
      <point x="740.5" y="62.5"/>
      <point x="505.0" y="62.5" type="curve" smooth="yes"/>
      <point x="239.25" y="62.5"/>
      <point x="222.75" y="294.75"/>
      <point x="208.0" y="341.75" type="curve"/>
      <point x="201.0" y="369.0"/>
      <point x="174.75" y="369.75"/>
      <point x="153.5" y="361.0" type="curve"/>
      <point x="114.75" y="345.5" type="line"/>
      <point x="138.25" y="176.5"/>
      <point x="200.75" y="-16.0"/>
      <point x="496.75" y="-16.0" type="curve" smooth="yes"/>
      <point x="752.75" y="-16.0"/>
      <point x="969.25" y="176.75"/>
      <point x="969.25" y="435.25" type="curve" smooth="yes"/>
      <point x="969.25" y="616.25"/>
      <point x="851.0" y="740.5"/>
      <point x="619.0" y="747.75" type="curve"/>
      <point x="616.25" y="720.75" type="line"/>
      <point x="830.25" y="735.5"/>
      <point x="1020.0" y="865.5"/>
      <point x="1020.0" y="1121.25" type="curve" smooth="yes"/>
      <point x="1020.0" y="1323.0"/>
      <point x="878.5" y="1430.75"/>
    </contour>
  </outline>
</glyph>
<glyph name="four" format="2">
  <advance width="1160.0"/>
  <unicode hex="0034"/>
  <guideline x="521.0" y="0.0" angle="82.9991"/>
  <outline>
    <contour>
      <point x="921.25" y="1416.25" type="line"/>
      <point x="838.75" y="1416.25" type="line"/>
      <point x="69.25" y="475.75" type="line"/>
      <point x="73.0" y="431.0" type="line"/>
      <point x="74.5" y="417.25"/>
      <point x="83.75" y="407.5"/>
      <point x="102.5" y="407.5" type="curve" smooth="yes"/>
      <point x="1008.0" y="407.5" type="line" smooth="yes"/>
      <point x="1025.25" y="407.5"/>
      <point x="1034.5" y="417.25"/>
      <point x="1036.25" y="431.0" type="curve" smooth="yes"/>
      <point x="1042.25" y="481.0" type="line"/>
      <point x="97.5" y="481.0" type="line"/>
      <point x="137.0" y="441.25" type="line"/>
      <point x="890.0" y="1370.5" type="line"/>
      <point x="855.5" y="1378.5" type="line"/>
      <point x="834.5" y="1326.75"/>
      <point x="821.5" y="1271.75"/>
      <point x="816.5" y="1227.75" type="curve" smooth="yes"/>
      <point x="666.0" y="0.0" type="line"/>
      <point x="746.75" y="0.0" type="line"/>
    </contour>
  </outline>
</glyph>
<glyph name="five" format="2">
  <advance width="1160"/>
  <unicode hex="0035"/>
  <outline>
    <contour>
      <point x="1030.5" y="1414.75" type="line"/>
      <point x="442.5" y="1414.75" type="line" name="n01"/>
      <point x="263.75" y="789.5" type="line"/>
      <point x="320.5" y="770.5" type="line"/>
      <point x="410.5" y="796.75"/>
      <point x="491" y="809"/>
      <point x="560.5" y="809" type="curve" smooth="yes" name="n06"/>
      <point x="764.5" y="809"/>
      <point x="858" y="686.25"/>
      <point x="858" y="515" type="curve" smooth="yes"/>
      <point x="858" y="235.75"/>
      <point x="676.75" y="65"/>
      <point x="452.5" y="65" type="curve" smooth="yes" name="n12"/>
      <point x="281.5" y="65"/>
      <point x="208.25" y="161.5"/>
      <point x="175.75" y="161.5" type="curve" smooth="yes"/>
      <point x="164" y="161.5"/>
      <point x="154" y="156.75"/>
      <point x="146" y="147" type="curve" smooth="yes"/>
      <point x="113.75" y="108.75" type="line"/>
      <point x="180" y="44.75"/>
      <point x="294" y="-16"/>
      <point x="438" y="-16" type="curve" smooth="yes" name="n22"/>
      <point x="708.5" y="-16"/>
      <point x="953" y="188.5"/>
      <point x="953" y="523.25" type="curve" smooth="yes"/>
      <point x="953" y="732"/>
      <point x="830.75" y="885.75"/>
      <point x="586.75" y="885.75" type="curve" smooth="yes" name="n28"/>
      <point x="511.75" y="885.75"/>
      <point x="425" y="873.25"/>
      <point x="326.25" y="844.75" type="curve"/>
      <point x="342.75" y="786.5" type="line"/>
      <point x="521" y="1405" type="line"/>
      <point x="442.5" y="1329.75" type="line" name="n34"/>
      <point x="965.5" y="1329.75" type="line" smooth="yes"/>
      <point x="1003.25" y="1329.75"/>
      <point x="1022.5" y="1349.25"/>
      <point x="1025" y="1375" type="curve"/>
    </contour>
  </outline>
  <guideline angle="82.9991" x="461" y="0"/>
</glyph>
<glyph name="six" format="2">
  <advance width="1067"/>
  <unicode hex="0036"/>
  <outline>
    <contour>
      <point x="232" y="372.75" type="curve" smooth="yes"/>
      <point x="232" y="574.25"/>
      <point x="387.5" y="773.25"/>
      <point x="618.25" y="773.25" type="curve" smooth="yes" name="n03"/>
      <point x="789" y="773.25"/>
      <point x="898.25" y="655.5"/>
      <point x="898.25" y="471.25" type="curve" smooth="yes"/>
      <point x="898.25" y="235.5"/>
      <point x="740.75" y="60.75"/>
      <point x="510" y="60.75" type="curve" smooth="yes" name="n09"/>
      <point x="333.5" y="60.75"/>
      <point x="232" y="193"/>
    </contour>
    <contour>
      <point x="233.5" y="448.75" type="line"/>
      <point x="253.75" y="591.5"/>
      <point x="328.5" y="699.75"/>
      <point x="461.75" y="862.75" type="curve"/>
      <point x="917.5" y="1414.75" type="line" name="n16"/>
      <point x="836" y="1414.75" type="line" smooth="yes"/>
      <point x="815.25" y="1414.75"/>
      <point x="795.5" y="1406.5"/>
      <point x="784.25" y="1392.25" type="curve" smooth="yes"/>
      <point x="366" y="870.75" type="line" smooth="yes"/>
      <point x="210.75" y="677"/>
      <point x="143.75" y="533.75"/>
      <point x="143.75" y="377.25" type="curve" smooth="yes"/>
      <point x="143.75" y="134.25"/>
      <point x="282.5" y="-16"/>
      <point x="502.25" y="-16" type="curve" smooth="yes" name="n27"/>
      <point x="779" y="-16"/>
      <point x="991.25" y="193.25"/>
      <point x="991.25" y="483.25" type="curve" smooth="yes"/>
      <point x="991.25" y="700.25"/>
      <point x="855.25" y="844.75"/>
      <point x="652.5" y="844.75" type="curve" smooth="yes" name="n33"/>
      <point x="435" y="844.75"/>
      <point x="242" y="675"/>
      <point x="214" y="444.25" type="curve"/>
    </contour>
  </outline>
</glyph>
<glyph name="seven" format="2">
  <advance width="1160"/>
  <unicode hex="0037"/>
  <outline>
    <contour>
      <point x="253.5" y="1414.75" type="line" name="n00"/>
      <point x="246.5" y="1355.75" type="line" smooth="yes"/>
      <point x="244.75" y="1341"/>
      <point x="254.25" y="1329.75"/>
      <point x="268.75" y="1329.75" type="curve" smooth="yes" name="n04"/>
      <point x="1086.25" y="1329.75" type="line"/>
      <point x="1027.25" y="1341.5" type="line"/>
      <point x="1008.75" y="1325"/>
      <point x="994.25" y="1307"/>
      <point x="979.25" y="1283.5" type="curve"/>
      <point x="223.75" y="0" type="line" name="n10"/>
      <point x="287.25" y="0" type="line" smooth="yes"/>
      <point x="315.5" y="0"/>
      <point x="334.25" y="14.5"/>
      <point x="346.5" y="34.5" type="curve" smooth="yes"/>
      <point x="1098" y="1323.75" type="line"/>
      <point x="1105" y="1335"/>
      <point x="1113.25" y="1350.75"/>
      <point x="1116.5" y="1373" type="curve"/>
      <point x="1121.25" y="1414.75" type="line"/>
    </contour>
  </outline>
  <guideline angle="82.9991" x="475" y="0"/>
</glyph>
<glyph name="eight" format="2">
  <advance width="1160"/>
  <unicode hex="0038"/>
  <outline>
    <contour>
      <point x="504.25" y="-16" type="curve" smooth="yes" name="n00"/>
      <point x="775.75" y="-16"/>
      <point x="980.25" y="152"/>
      <point x="980.25" y="425.25" type="curve" smooth="yes"/>
      <point x="980.25" y="644"/>
      <point x="824" y="747.25"/>
      <point x="613.25" y="754" type="curve"/>
      <point x="608.75" y="718.5" type="line"/>
      <point x="865.25" y="729.5"/>
      <point x="1017.75" y="891.75"/>
      <point x="1017.75" y="1112.25" type="curve" smooth="yes"/>
      <point x="1017.75" y="1288.5"/>
      <point x="894.25" y="1430.75"/>
      <point x="681.25" y="1430.75" type="curve" smooth="yes" name="n13"/>
      <point x="430" y="1430.75"/>
      <point x="256.25" y="1250.25"/>
      <point x="256.25" y="1026.25" type="curve" smooth="yes"/>
      <point x="256.25" y="854.75"/>
      <point x="368.75" y="727.5"/>
      <point x="579.75" y="718.5" type="curve"/>
      <point x="583.25" y="754" type="line"/>
      <point x="327.5" y="746"/>
      <point x="123.75" y="613.25"/>
      <point x="123.75" y="324.75" type="curve" smooth="yes"/>
      <point x="123.75" y="116.5"/>
      <point x="273.75" y="-16"/>
    </contour>
    <contour>
      <point x="600.25" y="773" type="curve" smooth="yes"/>
      <point x="423.25" y="773"/>
      <point x="346.75" y="895.25"/>
      <point x="346.75" y="1027" type="curve" smooth="yes"/>
      <point x="346.75" y="1213"/>
      <point x="470.75" y="1358.75"/>
      <point x="672.75" y="1358.75" type="curve" smooth="yes" name="n32"/>
      <point x="838" y="1358.75"/>
      <point x="926.75" y="1248.75"/>
      <point x="926.75" y="1107" type="curve" smooth="yes"/>
      <point x="926.75" y="932.5"/>
      <point x="815.25" y="773"/>
    </contour>
    <contour>
      <point x="512.75" y="57.75" type="curve" smooth="yes" name="n38"/>
      <point x="332.75" y="57.75"/>
      <point x="219.25" y="168.75"/>
      <point x="219.25" y="333" type="curve" smooth="yes"/>
      <point x="219.25" y="618.75"/>
      <point x="436" y="698.75"/>
      <point x="591.5" y="698.75" type="curve" smooth="yes"/>
      <point x="724" y="698.75"/>
      <point x="885.5" y="634.75"/>
      <point x="885.5" y="425.25" type="curve" smooth="yes"/>
      <point x="885.5" y="201.75"/>
      <point x="729.5" y="57.75"/>
    </contour>
  </outline>
  <guideline angle="82.9991" x="488" y="0"/>
</glyph>
<glyph name="nine" format="2">
  <advance width="1160.0"/>
  <unicode hex="0039"/>
  <guideline x="487.0" y="0.0" angle="82.9991"/>
  <outline>
    <contour>
      <point x="939.25" y="1053.5" type="curve"/>
      <point x="939.25" y="865.75"/>
      <point x="793.5" y="674.5"/>
      <point x="569.5" y="674.5" type="curve" smooth="yes"/>
      <point x="405.75" y="674.5"/>
      <point x="303.75" y="785.0"/>
      <point x="303.75" y="959.75" type="curve" smooth="yes"/>
      <point x="303.75" y="1194.0"/>
      <point x="462.5" y="1354.0"/>
      <point x="672.25" y="1354.0" type="curve" smooth="yes"/>
      <point x="832.5" y="1354.0"/>
      <point x="939.25" y="1229.5"/>
    </contour>
    <contour>
      <point x="945.0" y="990.75" type="line"/>
      <point x="921.25" y="832.75"/>
      <point x="847.0" y="738.0"/>
      <point x="728.75" y="585.25" type="curve" smooth="yes"/>
      <point x="271.0" y="0.0" type="line"/>
      <point x="355.0" y="0.0" type="line" smooth="yes"/>
      <point x="375.25" y="0.0"/>
      <point x="393.75" y="7.75"/>
      <point x="405.25" y="21.75" type="curve"/>
      <point x="812.0" y="568.5" type="line" smooth="yes"/>
      <point x="951.0" y="753.25"/>
      <point x="1027.5" y="868.0"/>
      <point x="1027.5" y="1050.25" type="curve" smooth="yes"/>
      <point x="1027.5" y="1275.5"/>
      <point x="892.5" y="1430.75"/>
      <point x="682.25" y="1430.75" type="curve" smooth="yes"/>
      <point x="421.5" y="1430.75"/>
      <point x="210.0" y="1225.0"/>
      <point x="210.0" y="951.0" type="curve" smooth="yes"/>
      <point x="210.0" y="742.5"/>
      <point x="342.0" y="602.75"/>
      <point x="534.0" y="602.75" type="curve" smooth="yes"/>
      <point x="735.25" y="602.75"/>
      <point x="933.0" y="756.5"/>
      <point x="961.75" y="990.75" type="curve"/>
    </contour>
  </outline>
</glyph>
<glyph name="less" format="2">
  <advance width="1160"/>
  <unicode hex="003C"/>
  <outline>
    <contour>
      <point x="186.25" y="691.5" type="line"/>
      <point x="182" y="660.5" type="line"/>
      <point x="251.25" y="662"/>
      <point x="308.75" y="673.75"/>
      <point x="356.25" y="696.5" type="curve" smooth="yes"/>
      <point x="944" y="977.25" type="line" smooth="yes"/>
      <point x="964.75" y="987"/>
      <point x="973.75" y="997.75"/>
      <point x="975.5" y="1012.5" type="curve" smooth="yes"/>
      <point x="983" y="1077" type="line" name="n09"/>
    </contour>
    <contour>
      <point x="181" y="651" type="line"/>
      <point x="883.25" y="265.5" type="line" name="n11"/>
      <point x="891.75" y="330" type="line" smooth="yes"/>
      <point x="893.5" y="344.75"/>
      <point x="887" y="355.5"/>
      <point x="869" y="365.25" type="curve" smooth="yes"/>
      <point x="350" y="646" type="line"/>
      <point x="308.25" y="669.5"/>
      <point x="253" y="680.5"/>
      <point x="184.5" y="682" type="curve"/>
    </contour>
  </outline>
  <guideline angle="82.9991" x="533" y="0"/>
</glyph>
<glyph name="equal" format="2">
  <advance width="1160.0"/>
  <unicode hex="003D"/>
  <guideline x="580.0" y="0.0" angle="82.9991"/>
  <outline>
    <contour>
      <point x="148.5" y="484.0" type="line"/>
      <point x="975.0" y="484.0" type="line"/>
      <point x="983.5" y="555.0" type="line"/>
      <point x="157.0" y="555.0" type="line"/>
    </contour>
    <contour>
      <point x="187.0" y="796.0" type="line"/>
      <point x="1013.5" y="796.0" type="line"/>
      <point x="1021.5" y="867.0" type="line"/>
      <point x="195.5" y="867.0" type="line"/>
    </contour>
  </outline>
</glyph>
<glyph name="greater" format="2">
  <advance width="1160.0"/>
  <unicode hex="003E"/>
  <guideline x="533.0" y="0.0" angle="82.9991"/>
  <outline>
    <contour>
      <point x="988.75" y="651.0" type="line"/>
      <point x="992.25" y="682.0" type="line"/>
      <point x="923.75" y="680.5"/>
      <point x="866.0" y="668.75"/>
      <point x="817.75" y="646.0" type="curve" smooth="yes"/>
      <point x="230.25" y="365.25" type="line" smooth="yes"/>
      <point x="209.25" y="355.5"/>
      <point x="201.25" y="344.75"/>
      <point x="199.5" y="330.0" type="curve"/>
      <point x="191.0" y="265.5" type="line"/>
    </contour>
    <contour>
      <point x="994.0" y="691.5" type="line"/>
      <point x="290.75" y="1077.0" type="line"/>
      <point x="283.25" y="1012.5" type="line" smooth="yes"/>
      <point x="281.5" y="997.75"/>
      <point x="287.0" y="987.0"/>
      <point x="305.25" y="977.25" type="curve" smooth="yes"/>
      <point x="824.0" y="696.5" type="line"/>
      <point x="866.5" y="673.0"/>
      <point x="922.0" y="662.0"/>
      <point x="989.75" y="660.5" type="curve"/>
    </contour>
  </outline>
</glyph>
<glyph name="question" format="2">
  <advance width="808.0"/>
  <unicode hex="003F"/>
  <guideline x="342.5" y="0.0" angle="82.9991"/>
  <outline>
    <contour>
      <point x="167.5" y="1290.25" type="curve"/>
      <point x="187.25" y="1254.25" type="line"/>
      <point x="193.0" y="1244.5"/>
      <point x="198.25" y="1241.75"/>
      <point x="206.5" y="1241.75" type="curve"/>
      <point x="232.75" y="1241.75"/>
      <point x="308.75" y="1354.5"/>
      <point x="474.5" y="1354.5" type="curve" smooth="yes"/>
      <point x="592.5" y="1354.5"/>
      <point x="684.5" y="1277.5"/>
      <point x="684.5" y="1151.0" type="curve"/>
      <point x="684.5" y="865.0"/>
      <point x="344.0" y="834.5"/>
      <point x="329.0" y="657.0" type="curve" smooth="yes"/>
      <point x="312.5" y="486.5" type="line"/>
      <point x="376.0" y="486.5" type="line"/>
      <point x="408.0" y="650.5" type="line" smooth="yes"/>
      <point x="441.5" y="812.75"/>
      <point x="771.5" y="834.5"/>
      <point x="771.5" y="1167.0" type="curve" smooth="yes"/>
      <point x="771.5" y="1324.0"/>
      <point x="652.0" y="1430.5"/>
      <point x="490.0" y="1430.5" type="curve" smooth="yes"/>
      <point x="351.0" y="1430.5"/>
      <point x="244.5" y="1362.25"/>
    </contour>
    <contour>
      <point x="228.5" y="76.5" type="curve" smooth="yes"/>
      <point x="228.5" y="24.5"/>
      <point x="268.5" y="-15.5"/>
      <point x="320.5" y="-15.5" type="curve" smooth="yes"/>
      <point x="372.0" y="-15.5"/>
      <point x="414.0" y="24.5"/>
      <point x="414.0" y="76.5" type="curve" smooth="yes"/>
      <point x="414.0" y="128.0"/>
      <point x="372.0" y="170.0"/>
      <point x="320.5" y="170.0" type="curve" smooth="yes"/>
      <point x="268.5" y="170.0"/>
      <point x="228.5" y="128.0"/>
    </contour>
  </outline>
</glyph>
<glyph name="at" format="2">
  <advance width="1528.25"/>
  <unicode hex="0040"/>
  <guideline y="707.75"/>
  <guideline x="752.0"/>
  <guideline x="100.0" y="0.0" angle="82.9991"/>
  <outline>
    <contour>
      <point x="1037.5" y="188.0" type="curve" smooth="yes"/>
      <point x="1250.0" y="188.0"/>
      <point x="1445.0" y="424.0"/>
      <point x="1445.0" y="766.5" type="curve" smooth="yes"/>
      <point x="1445.0" y="1132.0"/>
      <point x="1192.5" y="1329.5"/>
      <point x="892.5" y="1329.5" type="curve" smooth="yes"/>
      <point x="478.0" y="1329.5"/>
      <point x="102.0" y="949.0"/>
      <point x="102.0" y="434.0" type="curve" smooth="yes"/>
      <point x="102.0" y="10.5"/>
      <point x="365.5" y="-237.5"/>
      <point x="733.0" y="-237.5" type="curve" smooth="yes"/>
      <point x="934.0" y="-237.5"/>
      <point x="1106.0" y="-182.0"/>
      <point x="1253.5" y="-83.5" type="curve"/>
      <point x="1246.5" y="-53.5" type="line"/>
      <point x="1242.0" y="-39.0"/>
      <point x="1229.5" y="-27.5"/>
      <point x="1205.0" y="-42.0" type="curve"/>
      <point x="1079.0" y="-124.5"/>
      <point x="922.0" y="-172.5"/>
      <point x="740.0" y="-172.5" type="curve" smooth="yes"/>
      <point x="416.0" y="-172.5"/>
      <point x="172.5" y="45.0"/>
      <point x="172.5" y="439.5" type="curve" smooth="yes"/>
      <point x="172.5" y="928.0"/>
      <point x="517.5" y="1266.5"/>
      <point x="885.0" y="1266.5" type="curve" smooth="yes"/>
      <point x="1161.5" y="1266.5"/>
      <point x="1376.0" y="1099.5"/>
      <point x="1376.0" y="766.5" type="curve" smooth="yes"/>
      <point x="1376.0" y="451.5"/>
      <point x="1215.0" y="249.5"/>
      <point x="1057.0" y="249.5" type="curve" smooth="yes"/>
      <point x="973.0" y="249.5"/>
      <point x="904.0" y="293.5"/>
      <point x="992.0" y="540.5" type="curve"/>
      <point x="1119.5" y="887.5" type="line"/>
      <point x="1075.5" y="910.5"/>
      <point x="1018.5" y="922.0"/>
      <point x="953.0" y="922.0" type="curve" smooth="yes"/>
      <point x="643.0" y="922.0"/>
      <point x="441.0" y="639.0"/>
      <point x="441.0" y="400.5" type="curve" smooth="yes"/>
      <point x="441.0" y="284.0"/>
      <point x="495.5" y="192.5"/>
      <point x="615.0" y="192.5" type="curve" smooth="yes"/>
      <point x="741.5" y="192.5"/>
      <point x="858.5" y="275.0"/>
      <point x="954.0" y="473.0" type="curve"/>
      <point x="906.5" y="439.0" type="line"/>
      <point x="868.5" y="281.0"/>
      <point x="910.0" y="188.0"/>
    </contour>
    <contour>
      <point x="1040.5" y="871.0" type="line"/>
      <point x="919.0" y="535.5" type="line" smooth="yes"/>
      <point x="839.5" y="312.0"/>
      <point x="729.5" y="256.0"/>
      <point x="642.0" y="256.0" type="curve" smooth="yes"/>
      <point x="557.0" y="256.0"/>
      <point x="517.0" y="323.5"/>
      <point x="517.0" y="411.5" type="curve" smooth="yes"/>
      <point x="517.0" y="619.5"/>
      <point x="696.0" y="860.5"/>
      <point x="933.5" y="860.5" type="curve" smooth="yes"/>
      <point x="989.0" y="860.5"/>
      <point x="1024.0" y="851.5"/>
      <point x="1064.5" y="835.0" type="curve"/>
    </contour>
  </outline>
</glyph>
<glyph name="A" format="2">
  <advance width="1217"/>
  <unicode hex="0041"/>
  <anchor x="720.25" y="1503.25" name="Top"/>
  <anchor x="526.75" y="-70" name="bottom"/>
  <anchor x="264.5" y="1120" name="onRight"/>
  <anchor x="720.25" y="1503.25" name="top"/>
  <outline>
    <contour>
      <point x="-47.25" y="0" type="line" name="n00"/>
      <point x="28.75" y="0" type="line" smooth="yes"/>
      <point x="46.25" y="0"/>
      <point x="61.75" y="12"/>
      <point x="69.25" y="26" type="curve"/>
      <point x="659.75" y="1232.5" type="line"/>
      <point x="680.75" y="1279"/>
      <point x="710.25" y="1344"/>
      <point x="727.25" y="1415" type="curve" name="n08"/>
      <point x="659.25" y="1415" type="line"/>
    </contour>
    <contour>
      <point x="218.75" y="440" type="line" name="n10"/>
      <point x="961.25" y="440" type="line"/>
      <point x="971.25" y="513" type="line"/>
      <point x="227.75" y="513" type="line" name="n13"/>
    </contour>
    <contour>
      <point x="757.75" y="1415" type="line"/>
      <point x="688.25" y="1415" type="line"/>
      <point x="689.25" y="1344"/>
      <point x="703.75" y="1279"/>
      <point x="713.25" y="1233" type="curve"/>
      <point x="1006.75" y="26" type="line"/>
      <point x="1011.25" y="10.5"/>
      <point x="1021.75" y="0"/>
      <point x="1040.25" y="0" type="curve" smooth="yes"/>
      <point x="1116.75" y="0" type="line"/>
    </contour>
  </outline>
  <guideline angle="82.9991" x="566" y="0"/>
</glyph>
<glyph name="C" format="2">
  <advance width="1258"/>
  <unicode hex="0043"/>
  <anchor x="686.5" y="707" name="Slash"/>
  <anchor x="864" y="1503.25" name="Top"/>
  <anchor x="587.25" y="-70" name="bottom"/>
  <anchor x="864" y="1503.25" name="top"/>
  <outline>
    <contour>
      <point x="666.75" y="69" type="curve" smooth="yes" name="n00"/>
      <point x="404.25" y="69"/>
      <point x="219.75" y="274"/>
      <point x="219.75" y="604.5" type="curve" smooth="yes"/>
      <point x="219.75" y="1058.5"/>
      <point x="493.25" y="1345.5"/>
      <point x="844.25" y="1345.5" type="curve" smooth="yes" name="n06"/>
      <point x="1101.75" y="1345.5"/>
      <point x="1163.25" y="1204"/>
      <point x="1196.75" y="1204" type="curve" smooth="yes"/>
      <point x="1208.25" y="1204"/>
      <point x="1216.25" y="1208.5"/>
      <point x="1223.25" y="1216.5" type="curve"/>
      <point x="1254.75" y="1255.5" type="line"/>
      <point x="1153.75" y="1368.5"/>
      <point x="1043.75" y="1431"/>
      <point x="849.75" y="1431" type="curve" smooth="yes" name="n16"/>
      <point x="436.75" y="1431"/>
      <point x="118.25" y="1092"/>
      <point x="118.25" y="597.5" type="curve" smooth="yes"/>
      <point x="118.25" y="230"/>
      <point x="325.25" y="-16"/>
      <point x="651.25" y="-16" type="curve" smooth="yes" name="n22"/>
      <point x="865.25" y="-16"/>
      <point x="1018.75" y="64"/>
      <point x="1141.75" y="187.5" type="curve"/>
      <point x="1106.5" y="230" type="line" smooth="yes"/>
      <point x="1104" y="233"/>
      <point x="1099" y="236.25"/>
      <point x="1093" y="236.25" type="curve" smooth="yes"/>
      <point x="1061" y="236.25"/>
      <point x="960.75" y="69"/>
    </contour>
  </outline>
  <guideline angle="82.9991" x="647" y="0"/>
</glyph>
<glyph name="D" format="2">
  <advance width="1413"/>
  <unicode hex="0044"/>
  <anchor x="751" y="1503.25" name="Top"/>
  <anchor x="556.75" y="-78.25" name="bottom"/>
  <anchor x="751" y="1503.25" name="top"/>
  <outline>
    <contour>
      <point x="1318.25" y="814.5" type="curve" smooth="yes"/>
      <point x="1318.25" y="1179.5"/>
      <point x="1107.75" y="1415"/>
      <point x="773.75" y="1415" type="curve" smooth="yes" name="n03"/>
      <point x="297.75" y="1415" type="line"/>
      <point x="123.75" y="0" type="line"/>
      <point x="599.75" y="0" type="line" smooth="yes" name="n06"/>
      <point x="1012.25" y="0"/>
      <point x="1318.25" y="315.5"/>
    </contour>
    <contour>
      <point x="1215.25" y="812.5" type="curve" smooth="yes"/>
      <point x="1215.25" y="351.5"/>
      <point x="960.75" y="80.5"/>
      <point x="609.25" y="80.5" type="curve" smooth="yes" name="n12"/>
      <point x="233.25" y="80.5" type="line"/>
      <point x="388.25" y="1334.5" type="line"/>
      <point x="764.25" y="1334.5" type="line" smooth="yes" name="n15"/>
      <point x="1041.75" y="1334.5"/>
      <point x="1215.25" y="1137.5"/>
    </contour>
  </outline>
  <guideline angle="82.9991" x="705" y="0"/>
</glyph>
<glyph name="F" format="2">
  <advance width="1058"/>
  <unicode hex="0046"/>
  <anchor x="699" y="1503.25" name="Top"/>
  <anchor x="364.5" y="-70" name="bottom"/>
  <anchor x="699" y="1503.25" name="top"/>
  <outline>
    <contour>
      <point x="397.75" y="1415" type="line"/>
      <point x="297.75" y="1415" type="line"/>
      <point x="123.75" y="0" type="line" name="n02"/>
      <point x="223.75" y="0" type="line"/>
    </contour>
    <contour>
      <point x="300.25" y="733.5" type="line" name="n04"/>
      <point x="290.75" y="651.5" type="line" name="n05"/>
      <point x="893.25" y="651.5" type="line"/>
      <point x="904.75" y="733.5" type="line"/>
    </contour>
    <contour>
      <point x="383.75" y="1415" type="line" name="n08"/>
      <point x="374.25" y="1333" type="line" name="n09"/>
      <point x="1069.25" y="1333" type="line"/>
      <point x="1080.25" y="1415" type="line"/>
    </contour>
  </outline>
  <guideline angle="82.9991" x="531" y="0"/>
</glyph>
<glyph name="G" format="2">
  <advance width="1367"/>
  <unicode hex="0047"/>
  <anchor x="884.5" y="1503.25" name="Top"/>
  <anchor x="691" y="-70" name="bottom"/>
  <anchor x="884.5" y="1503.25" name="top"/>
  <outline>
    <contour>
      <point x="1130.5" y="198.5" type="line"/>
      <point x="997.5" y="114.5"/>
      <point x="881.5" y="64.5"/>
      <point x="687.5" y="64.5" type="curve" smooth="yes" name="n03"/>
      <point x="403.5" y="64.5"/>
      <point x="220.5" y="271.5"/>
      <point x="220.5" y="603" type="curve" smooth="yes"/>
      <point x="220.5" y="1059"/>
      <point x="481" y="1345.5"/>
      <point x="857.5" y="1345.5" type="curve" smooth="yes" name="n09"/>
      <point x="1109" y="1345.5"/>
      <point x="1186.5" y="1225.5"/>
      <point x="1223.5" y="1209" type="curve"/>
      <point x="1240.5" y="1200.5"/>
      <point x="1255" y="1205"/>
      <point x="1265" y="1220" type="curve"/>
      <point x="1296" y="1259" type="line"/>
      <point x="1195.5" y="1368"/>
      <point x="1071" y="1431"/>
      <point x="865" y="1431" type="curve" smooth="yes" name="n19"/>
      <point x="427.5" y="1431"/>
      <point x="119" y="1099"/>
      <point x="119" y="600" type="curve" smooth="yes"/>
      <point x="119" y="231.5"/>
      <point x="333" y="-16"/>
      <point x="672" y="-16" type="curve" smooth="yes" name="n25"/>
      <point x="890" y="-16"/>
      <point x="1042.5" y="40.5"/>
      <point x="1183.5" y="138.5" type="curve"/>
      <point x="1246" y="640.5" type="line"/>
      <point x="883" y="640.5" type="line" name="n30"/>
      <point x="877.5" y="586" type="line"/>
      <point x="875" y="574.5"/>
      <point x="885" y="564"/>
      <point x="899.5" y="564" type="curve" smooth="yes" name="n34"/>
      <point x="1146.5" y="564" type="line"/>
      <point x="1092.5" y="126" type="line"/>
    </contour>
  </outline>
  <guideline angle="82.9991" x="700" y="0"/>
</glyph>
<glyph name="J" format="2">
  <advance width="781.25"/>
  <unicode hex="004A"/>
  <guideline x="417.25" y="0.0" angle="82.9991"/>
  <anchor x="657.5" y="1503.25" name="Top"/>
  <anchor x="536.5" y="707.0" name="Bar"/>
  <anchor x="657.5" y="1503.25" name="top"/>
  <anchor x="203.25" y="-70.0" name="bottom"/>
  <outline>
    <contour>
      <point x="697.25" y="1415.0" type="line"/>
      <point x="597.75" y="1415.0" type="line"/>
      <point x="477.75" y="439.0" type="line" smooth="yes"/>
      <point x="443.75" y="158.5"/>
      <point x="307.25" y="67.0"/>
      <point x="149.75" y="67.0" type="curve" smooth="yes"/>
      <point x="56.75" y="67.0"/>
      <point x="22.75" y="89.0"/>
      <point x="-3.25" y="89.0" type="curve" smooth="yes"/>
      <point x="-21.25" y="89.0"/>
      <point x="-27.25" y="78.0"/>
      <point x="-29.75" y="66.5" type="curve"/>
      <point x="-37.25" y="13.0" type="line"/>
      <point x="19.75" y="-6.5"/>
      <point x="76.75" y="-16.0"/>
      <point x="148.25" y="-16.0" type="curve"/>
      <point x="379.75" y="-17.5"/>
      <point x="538.75" y="129.0"/>
      <point x="577.25" y="441.0" type="curve" smooth="yes"/>
    </contour>
  </outline>
</glyph>
<glyph name="K" format="2">
  <advance width="1179.75"/>
  <unicode hex="004B"/>
  <guideline x="608.25" y="0.0" angle="82.9991"/>
  <anchor x="714.5" y="1503.25" name="Top"/>
  <anchor x="473.0" y="-70.0" name="bottom"/>
  <anchor x="714.5" y="1503.25" name="top"/>
  <outline>
    <contour>
      <point x="396.75" y="1416.5" type="line"/>
      <point x="297.25" y="1416.5" type="line"/>
      <point x="123.75" y="0.0" type="line"/>
      <point x="222.75" y="0.0" type="line"/>
    </contour>
    <contour>
      <point x="283.75" y="683.0" type="line"/>
      <point x="391.25" y="683.0" type="line" smooth="yes"/>
      <point x="448.75" y="683.0"/>
      <point x="462.75" y="670.5"/>
      <point x="484.75" y="640.0" type="curve" smooth="yes"/>
      <point x="955.25" y="26.0" type="line"/>
      <point x="966.25" y="9.0"/>
      <point x="975.25" y="0.0"/>
      <point x="1008.75" y="0.0" type="curve" smooth="yes"/>
      <point x="1088.75" y="0.0" type="line"/>
      <point x="578.25" y="680.5" type="line"/>
      <point x="547.75" y="730.5"/>
      <point x="512.25" y="739.5"/>
      <point x="434.25" y="739.5" type="curve"/>
      <point x="420.75" y="719.5" type="line"/>
      <point x="511.75" y="721.0"/>
      <point x="536.25" y="727.0"/>
      <point x="584.75" y="778.0" type="curve"/>
      <point x="1227.25" y="1415.0" type="line"/>
      <point x="1146.25" y="1415.0" type="line" smooth="yes"/>
      <point x="1121.25" y="1415.0"/>
      <point x="1103.0" y="1409.75"/>
      <point x="1082.25" y="1386.0" type="curve" smooth="yes"/>
      <point x="490.25" y="797.5" type="line" smooth="yes"/>
      <point x="460.25" y="767.0"/>
      <point x="439.25" y="760.0"/>
      <point x="393.25" y="760.0" type="curve" smooth="yes"/>
      <point x="293.75" y="760.0" type="line"/>
    </contour>
  </outline>
</glyph>
<glyph name="L" format="2">
  <advance width="933"/>
  <unicode hex="004C"/>
  <anchor x="260.25" y="707" name="Bar"/>
  <anchor x="361.25" y="1503.25" name="Top"/>
  <anchor x="451.25" y="-70" name="bottom"/>
  <anchor x="361.25" y="1503.25" name="top"/>
  <outline>
    <contour>
      <point x="397.25" y="1415" type="line" name="n00"/>
      <point x="297.75" y="1415" type="line"/>
      <point x="123.75" y="0" type="line"/>
      <point x="223.25" y="0" type="line" name="n03"/>
    </contour>
    <contour>
      <point x="221.75" y="84.5" type="line" name="n04"/>
      <point x="210.25" y="0" type="line"/>
      <point x="837.75" y="0" type="line"/>
      <point x="848.75" y="84.5" type="line"/>
    </contour>
  </outline>
  <guideline angle="82.9991" x="468" y="0"/>
</glyph>
<glyph name="N" format="2">
  <advance width="1403.0"/>
  <unicode hex="004E"/>
  <guideline x="695.25" y="0.0" angle="82.9991"/>
  <anchor x="831.25" y="1501.75" name="Top"/>
  <anchor x="831.25" y="1501.75" name="top"/>
  <anchor x="623.5" y="-70.0" name="bottom"/>
  <outline>
    <contour>
      <point x="1086.25" y="130.5" type="line"/>
      <point x="380.75" y="1396.0" type="line"/>
      <point x="371.25" y="1412.0"/>
      <point x="365.25" y="1415.0"/>
      <point x="346.75" y="1415.0" type="curve"/>
      <point x="297.75" y="1415.0" type="line"/>
      <point x="123.75" y="0.0" type="line"/>
      <point x="210.75" y="0.0" type="line"/>
      <point x="358.75" y="1210.0" type="line" smooth="yes"/>
      <point x="362.75" y="1244.0"/>
      <point x="364.25" y="1289.0"/>
      <point x="364.75" y="1326.5" type="curve"/>
      <point x="346.25" y="1284.5" type="line"/>
      <point x="1049.25" y="21.5" type="line"/>
      <point x="1059.25" y="7.0"/>
      <point x="1069.25" y="0.0"/>
      <point x="1086.25" y="0.0" type="curve" smooth="yes"/>
      <point x="1131.75" y="0.0" type="line"/>
      <point x="1305.75" y="1415.0" type="line"/>
      <point x="1218.75" y="1415.0" type="line"/>
      <point x="1071.25" y="213.5" type="line" smooth="yes"/>
      <point x="1066.75" y="178.5"/>
      <point x="1065.75" y="130.5"/>
      <point x="1066.25" y="89.5" type="curve"/>
    </contour>
  </outline>
</glyph>
<glyph name="O" format="2">
  <advance width="1473.5"/>
  <unicode hex="004F"/>
  <guideline x="732.75" y="0.0" angle="82.9991"/>
  <anchor x="846.0" y="1503.25" name="Top"/>
  <anchor x="17.75" y="1120.0" name="onRight"/>
  <anchor x="653.0" y="-70.0" name="bottom"/>
  <anchor x="750.75" y="707.0" name="Slash"/>
  <anchor x="846.0" y="1503.25" name="top"/>
  <outline>
    <contour>
      <point x="1381.0" y="816.0" type="curve" smooth="yes"/>
      <point x="1381.0" y="1181.5"/>
      <point x="1171.0" y="1431.0"/>
      <point x="838.5" y="1431.0" type="curve" smooth="yes"/>
      <point x="430.5" y="1431.0"/>
      <point x="119.0" y="1096.0"/>
      <point x="119.0" y="598.5" type="curve" smooth="yes"/>
      <point x="119.0" y="233.0"/>
      <point x="329.0" y="-14.5"/>
      <point x="660.5" y="-14.5" type="curve" smooth="yes"/>
      <point x="1072.5" y="-14.5"/>
      <point x="1381.0" y="317.5"/>
    </contour>
    <contour>
      <point x="1278.0" y="814.0" type="curve" smooth="yes"/>
      <point x="1278.0" y="354.0"/>
      <point x="1022.5" y="68.5"/>
      <point x="671.0" y="68.5" type="curve" smooth="yes"/>
      <point x="397.5" y="68.5"/>
      <point x="220.5" y="275.0"/>
      <point x="220.5" y="602.0" type="curve"/>
      <point x="220.5" y="1060.5"/>
      <point x="481.5" y="1348.0"/>
      <point x="827.0" y="1348.0" type="curve" smooth="yes"/>
      <point x="1103.0" y="1348.0"/>
      <point x="1278.0" y="1141.0"/>
    </contour>
  </outline>
</glyph>
<glyph name="P" format="2">
  <advance width="1078"/>
  <unicode hex="0050"/>
  <anchor x="266.75" y="983.25" name="Bar"/>
  <anchor x="611" y="1503.25" name="Top"/>
  <anchor x="168.75" y="-70" name="bottom"/>
  <anchor x="696.25" y="648" name="tick"/>
  <anchor x="611" y="1503.25" name="top"/>
  <outline>
    <contour>
      <point x="251.75" y="571.5" type="line"/>
      <point x="533.25" y="571.5" type="line" smooth="yes" name="n01"/>
      <point x="848.25" y="571.5"/>
      <point x="1053.25" y="772"/>
      <point x="1053.25" y="1059" type="curve" smooth="yes"/>
      <point x="1053.25" y="1284"/>
      <point x="915.25" y="1415"/>
      <point x="636.75" y="1415" type="curve" smooth="yes" name="n07"/>
      <point x="297.25" y="1415" type="line"/>
      <point x="123.75" y="0" type="line" name="n09"/>
      <point x="222.75" y="0" type="line"/>
      <point x="396.75" y="1415" type="line"/>
      <point x="324.75" y="1336.5" type="line"/>
      <point x="627.25" y="1336.5" type="line" smooth="yes" name="n13"/>
      <point x="845.25" y="1336.5"/>
      <point x="953.25" y="1231"/>
      <point x="953.25" y="1049" type="curve" smooth="yes"/>
      <point x="953.25" y="819.5"/>
      <point x="793.25" y="650.5"/>
      <point x="542.75" y="650.5" type="curve" smooth="yes" name="n19"/>
      <point x="269.25" y="650.5" type="line"/>
    </contour>
  </outline>
  <guideline angle="82.9991" x="533" y="0"/>
</glyph>
<glyph name="Q" format="2">
  <advance width="1473.5"/>
  <unicode hex="0051"/>
  <guideline x="732.0" y="0.0" angle="82.9991"/>
  <anchor x="846.0" y="1503.25" name="Top"/>
  <anchor x="846.0" y="1503.25" name="top"/>
  <anchor x="653.0" y="-70.0" name="bottom"/>
  <anchor x="17.75" y="1120.0" name="onRight"/>
  <anchor x="750.75" y="707.0" name="Slash"/>
  <outline>
    <contour>
      <point x="992.5" y="100.5" type="line"/>
      <point x="888.5" y="86.0" type="line"/>
      <point x="1163.0" y="-288.0" type="line"/>
      <point x="1177.0" y="-305.0"/>
      <point x="1196.0" y="-312.5"/>
      <point x="1222.5" y="-312.5" type="curve" smooth="yes"/>
      <point x="1300.0" y="-312.5" type="line"/>
    </contour>
    <component base="O"/>
  </outline>
</glyph>
<glyph name="R" format="2">
  <advance width="1128"/>
  <unicode hex="0052"/>
  <anchor x="614.25" y="1503.25" name="Top"/>
  <anchor x="545.75" y="-70" name="bottom"/>
  <anchor x="614.25" y="1503.25" name="top"/>
  <outline>
    <contour>
      <point x="470.75" y="641.5" type="line" smooth="yes"/>
      <point x="520.25" y="641.5"/>
      <point x="537.25" y="631.5"/>
      <point x="554.75" y="601.5" type="curve" smooth="yes"/>
      <point x="895.75" y="25" type="line"/>
      <point x="905.75" y="6"/>
      <point x="919.75" y="0" name="n06"/>
      <point x="940.75" y="0" type="curve" smooth="yes"/>
      <point x="1026.25" y="0" type="line"/>
      <point x="656.75" y="614" type="line"/>
      <point x="626.25" y="668"/>
      <point x="577.75" y="679.5"/>
      <point x="493.25" y="679.5" type="curve"/>
      <point x="499.75" y="648" type="line"/>
      <point x="533.75" y="648" type="line" smooth="yes" name="n14"/>
      <point x="833.25" y="648"/>
      <point x="1040.75" y="824"/>
      <point x="1040.75" y="1097" type="curve" smooth="yes"/>
      <point x="1040.75" y="1302"/>
      <point x="905.25" y="1415"/>
      <point x="632.75" y="1415" type="curve" smooth="yes" name="n20"/>
      <point x="297.25" y="1415" type="line"/>
      <point x="123.75" y="0" type="line"/>
      <point x="222.75" y="0" type="line"/>
      <point x="390.75" y="1361" type="line"/>
      <point x="318.75" y="1336.5" type="line"/>
      <point x="623.75" y="1336.5" type="line" smooth="yes" name="n26"/>
      <point x="831.25" y="1336.5"/>
      <point x="941.75" y="1251.5"/>
      <point x="941.75" y="1082.5" type="curve" smooth="yes"/>
      <point x="941.75" y="859.5"/>
      <point x="786.75" y="715"/>
      <point x="534.25" y="715" type="curve" smooth="yes" name="n32"/>
      <point x="277.75" y="715" type="line"/>
      <point x="256.75" y="641.5" type="line"/>
    </contour>
  </outline>
  <guideline angle="82.9991" x="570" y="0"/>
</glyph>
<glyph name="S" format="2">
  <advance width="996.5"/>
  <unicode hex="0053"/>
  <guideline x="481.25" y="0.0" angle="82.9991"/>
  <anchor x="649.0" y="1503.25" name="Top"/>
  <anchor x="387.75" y="-70.0" name="bottom"/>
  <anchor x="649.0" y="1503.25" name="top"/>
  <outline>
    <contour>
      <point x="938.0" y="1283.5" type="line"/>
      <point x="864.5" y="1380.0"/>
      <point x="761.0" y="1430.5"/>
      <point x="626.5" y="1430.5" type="curve" smooth="yes"/>
      <point x="358.5" y="1430.5"/>
      <point x="200.0" y="1234.0"/>
      <point x="200.0" y="1017.0" type="curve" smooth="yes"/>
      <point x="200.0" y="615.0"/>
      <point x="776.0" y="768.5"/>
      <point x="776.0" y="436.5" type="curve" smooth="yes"/>
      <point x="776.0" y="228.5"/>
      <point x="634.0" y="66.5"/>
      <point x="409.0" y="66.5" type="curve" smooth="yes"/>
      <point x="186.5" y="66.5"/>
      <point x="130.0" y="226.0"/>
      <point x="94.5" y="226.0" type="curve" smooth="yes"/>
      <point x="83.0" y="226.0"/>
      <point x="74.0" y="220.0"/>
      <point x="66.5" y="211.5" type="curve"/>
      <point x="33.0" y="168.5" type="line"/>
      <point x="113.5" y="54.5"/>
      <point x="226.0" y="-16.0"/>
      <point x="397.0" y="-16.0" type="curve" smooth="yes"/>
      <point x="688.5" y="-16.0"/>
      <point x="871.5" y="201.0"/>
      <point x="871.5" y="457.5" type="curve" smooth="yes"/>
      <point x="871.5" y="844.5"/>
      <point x="294.0" y="710.5"/>
      <point x="294.0" y="1036.5" type="curve" smooth="yes"/>
      <point x="294.0" y="1207.0"/>
      <point x="414.5" y="1348.5"/>
      <point x="616.0" y="1348.5" type="curve" smooth="yes"/>
      <point x="804.0" y="1348.5"/>
      <point x="851.0" y="1227.5"/>
      <point x="884.0" y="1227.5" type="curve" smooth="yes"/>
      <point x="895.0" y="1227.5"/>
      <point x="903.0" y="1233.0"/>
      <point x="910.5" y="1244.0" type="curve"/>
    </contour>
  </outline>
</glyph>
<glyph name="U" format="2">
  <advance width="1353"/>
  <unicode hex="0055"/>
  <anchor x="785.75" y="1503.25" name="Top"/>
  <anchor x="599" y="-70" name="bottom"/>
  <anchor x="785.75" y="1503.25" name="top"/>
  <outline>
    <contour>
      <point x="612" y="70" type="curve" smooth="yes" name="n00"/>
      <point x="363" y="70"/>
      <point x="241.5" y="275"/>
      <point x="273" y="540" type="curve"/>
      <point x="380.5" y="1415" type="line" name="n04"/>
      <point x="281" y="1415" type="line"/>
      <point x="174" y="538.5" type="line" smooth="yes"/>
      <point x="136" y="227.5"/>
      <point x="296" y="-17.5"/>
      <point x="600.5" y="-17.5" type="curve" smooth="yes" name="n09"/>
      <point x="906.5" y="-17.5"/>
      <point x="1125.5" y="227.5"/>
      <point x="1165" y="538.5" type="curve"/>
      <point x="1272.5" y="1415" type="line"/>
      <point x="1173" y="1415" type="line"/>
      <point x="1065.5" y="538.5" type="line" smooth="yes"/>
      <point x="1032.5" y="273.5"/>
      <point x="859.5" y="70"/>
    </contour>
  </outline>
  <guideline angle="82.9991" x="677" y="0"/>
</glyph>
<glyph name="V" format="2">
  <advance width="1212"/>
  <unicode hex="0056"/>
  <anchor x="714.25" y="1503.25" name="Top"/>
  <anchor x="528.25" y="-70" name="bottom"/>
  <anchor x="714.25" y="1503.25" name="top"/>
  <outline>
    <contour>
      <point x="1287" y="1415" type="line" name="n00"/>
      <point x="1209" y="1415" type="line" smooth="yes"/>
      <point x="1191" y="1415"/>
      <point x="1175" y="1402.5"/>
      <point x="1169.5" y="1389" type="curve"/>
      <point x="586.5" y="207.5" type="line" smooth="yes"/>
      <point x="557" y="149"/>
      <point x="531" y="71"/>
      <point x="516" y="0" type="curve" name="n08"/>
      <point x="577" y="0" type="line"/>
    </contour>
    <contour>
      <point x="488" y="0" type="line"/>
      <point x="550.5" y="0" type="line"/>
      <point x="557" y="71"/>
      <point x="544.5" y="149"/>
      <point x="529.5" y="207.5" type="curve" smooth="yes"/>
      <point x="235" y="1389" type="line"/>
      <point x="233" y="1404"/>
      <point x="221.5" y="1415"/>
      <point x="203" y="1415" type="curve" smooth="yes"/>
      <point x="124" y="1415" type="line"/>
    </contour>
  </outline>
  <guideline angle="82.9991" x="566" y="0"/>
</glyph>
<glyph name="W" format="2">
  <advance width="1877"/>
  <unicode hex="0057"/>
  <anchor x="1041.75" y="1503.25" name="Top"/>
  <anchor x="857.75" y="-70" name="bottom"/>
  <anchor x="1041.75" y="1503.25" name="top"/>
  <outline>
    <contour>
      <point x="1025.25" y="1415" type="line" smooth="yes" name="n00"/>
      <point x="1007.25" y="1415"/>
      <point x="992.5" y="1403.25"/>
      <point x="986.25" y="1389" type="curve" smooth="yes"/>
      <point x="475.25" y="212" type="line"/>
      <point x="450.25" y="152.5"/>
      <point x="426.75" y="71"/>
      <point x="413.75" y="0" type="curve" name="n07"/>
      <point x="466.25" y="0" type="line"/>
      <point x="1000.75" y="1233" type="line"/>
      <point x="1017.75" y="1274"/>
      <point x="1039.25" y="1342"/>
      <point x="1045.25" y="1382.5" type="curve"/>
      <point x="1017.75" y="1382.5" type="line"/>
      <point x="1014.75" y="1342"/>
      <point x="1019.75" y="1274"/>
      <point x="1026.25" y="1233" type="curve"/>
      <point x="1257.75" y="0" type="line"/>
      <point x="1312.75" y="0" type="line"/>
      <point x="1316.75" y="71"/>
      <point x="1311.25" y="152.5"/>
      <point x="1301.25" y="212" type="curve"/>
      <point x="1079.75" y="1389" type="line"/>
      <point x="1076" y="1404.75"/>
      <point x="1065.75" y="1415"/>
      <point x="1047.25" y="1415" type="curve" smooth="yes"/>
    </contour>
    <contour>
      <point x="377.75" y="0" type="line"/>
      <point x="447.75" y="0" type="line"/>
      <point x="451.75" y="71"/>
      <point x="445.25" y="151.5"/>
      <point x="438.75" y="212" type="curve"/>
      <point x="251.25" y="1389" type="line"/>
      <point x="249.75" y="1404.5"/>
      <point x="237.75" y="1415"/>
      <point x="219.25" y="1415" type="curve" smooth="yes"/>
      <point x="141.75" y="1415" type="line"/>
    </contour>
    <contour>
      <point x="1930.25" y="1415" type="line"/>
      <point x="1853.75" y="1415" type="line" smooth="yes"/>
      <point x="1835.75" y="1415"/>
      <point x="1817.25" y="1403"/>
      <point x="1812.75" y="1389" type="curve"/>
      <point x="1337.25" y="212" type="line"/>
      <point x="1315.75" y="151.5"/>
      <point x="1291.25" y="71"/>
      <point x="1278.25" y="0" type="curve"/>
      <point x="1346.75" y="0" type="line"/>
    </contour>
  </outline>
  <guideline angle="0" x="0" y="83"/>
  <guideline angle="82.9991" x="883" y="0"/>
</glyph>
<glyph name="X" format="2">
  <advance width="1166"/>
  <unicode hex="0058"/>
  <anchor x="690.25" y="1503.25" name="Top"/>
  <anchor x="506.25" y="-70" name="bottom"/>
  <anchor x="690.25" y="1503.25" name="top"/>
  <outline>
    <contour>
      <point x="542.25" y="742.5" type="line"/>
      <point x="640.25" y="742.5" type="line"/>
      <point x="305.75" y="1393.5" type="line" smooth="yes"/>
      <point x="298.25" y="1408"/>
      <point x="291.75" y="1415" name="n04"/>
      <point x="273.75" y="1415" type="curve" smooth="yes"/>
      <point x="184.75" y="1415" type="line"/>
    </contour>
    <contour>
      <point x="1185.25" y="1415" type="line"/>
      <point x="1086.25" y="1415" type="line" smooth="yes"/>
      <point x="1072.75" y="1415"/>
      <point x="1063.25" y="1410"/>
      <point x="1053.75" y="1396.5" type="curve"/>
      <point x="622.25" y="833" type="line"/>
      <point x="600.75" y="802"/>
      <point x="594.75" y="777.5"/>
      <point x="589.75" y="742.5" type="curve"/>
      <point x="659.25" y="742.5" type="line"/>
    </contour>
    <contour>
      <point x="665.75" y="773.5" type="line"/>
      <point x="567.75" y="773.5" type="line"/>
      <point x="948.75" y="24" type="line"/>
      <point x="954.75" y="14"/>
      <point x="961.75" y="0" name="n21"/>
      <point x="979.75" y="0" type="curve" smooth="yes"/>
      <point x="1069.25" y="0" type="line"/>
    </contour>
    <contour>
      <point x="-48.75" y="0" type="line"/>
      <point x="49.25" y="0" type="line" smooth="yes"/>
      <point x="64.75" y="0"/>
      <point x="77.75" y="8"/>
      <point x="88.75" y="24" type="curve"/>
      <point x="589.25" y="680" type="line" smooth="yes"/>
      <point x="608.75" y="705.5"/>
      <point x="615.75" y="737"/>
      <point x="621.25" y="773.5" type="curve"/>
      <point x="548.75" y="773.5" type="line"/>
    </contour>
  </outline>
  <guideline angle="82.9991" x="518" y="0"/>
</glyph>
<glyph name="Y" format="2">
  <advance width="1103.5"/>
  <unicode hex="0059"/>
  <guideline y="662.25"/>
  <guideline x="553.75" y="0.0" angle="82.9991"/>
  <anchor x="659.75" y="1503.25" name="Top"/>
  <anchor x="-98.0" y="1120.0" name="onRight"/>
  <anchor x="659.75" y="1503.25" name="top"/>
  <anchor x="473.25" y="-70.0" name="bottom"/>
  <outline>
    <contour>
      <point x="1182.75" y="1415.0" type="line"/>
      <point x="1100.25" y="1415.0" type="line" smooth="yes"/>
      <point x="1082.25" y="1415.0"/>
      <point x="1069.75" y="1404.0"/>
      <point x="1061.25" y="1390.5" type="curve"/>
      <point x="597.25" y="721.5" type="line"/>
      <point x="568.75" y="673.5"/>
      <point x="545.75" y="635.5"/>
      <point x="533.25" y="575.5" type="curve"/>
      <point x="593.75" y="575.5" type="line"/>
    </contour>
    <contour>
      <point x="504.75" y="575.5" type="line"/>
      <point x="569.25" y="575.5" type="line"/>
      <point x="569.25" y="626.0"/>
      <point x="559.25" y="670.5"/>
      <point x="540.75" y="721.5" type="curve" smooth="yes"/>
      <point x="241.75" y="1390.5" type="line"/>
      <point x="236.75" y="1406.0"/>
      <point x="226.25" y="1415.0"/>
      <point x="207.75" y="1415.0" type="curve" smooth="yes"/>
      <point x="120.25" y="1415.0" type="line"/>
    </contour>
    <contour>
      <point x="603.25" y="608.5" type="line"/>
      <point x="503.75" y="608.5" type="line"/>
      <point x="427.75" y="0.0" type="line"/>
      <point x="527.25" y="0.0" type="line"/>
    </contour>
  </outline>
</glyph>
<glyph name="Z" format="2">
  <advance width="1097.5"/>
  <unicode hex="005A"/>
  <guideline x="582.5" y="0.0" angle="82.9991"/>
  <anchor x="671.0" y="1503.25" name="Top"/>
  <anchor x="484.5" y="-70.0" name="bottom"/>
  <anchor x="671.0" y="1503.25" name="top"/>
  <outline>
    <contour>
      <point x="1107.5" y="1351.0" type="line" smooth="yes"/>
      <point x="1116.0" y="1363.0"/>
      <point x="1121.0" y="1370.5"/>
      <point x="1123.5" y="1382.0" type="curve"/>
      <point x="1128.5" y="1415.0" type="line"/>
      <point x="1045.5" y="1415.0" type="line"/>
      <point x="6.5" y="62.0" type="line"/>
      <point x="-0.5" y="51.5"/>
      <point x="-5.5" y="44.0"/>
      <point x="-8.0" y="32.5" type="curve"/>
      <point x="-12.5" y="0.0" type="line"/>
      <point x="70.5" y="0.0" type="line"/>
    </contour>
    <contour>
      <point x="186.5" y="1415.0" type="line"/>
      <point x="175.5" y="1333.0" type="line"/>
      <point x="1064.0" y="1333.0" type="line"/>
      <point x="1128.5" y="1415.0" type="line"/>
    </contour>
    <contour>
      <point x="51.5" y="82.0" type="line"/>
      <point x="-12.5" y="0.0" type="line"/>
      <point x="946.5" y="0.0" type="line"/>
      <point x="957.5" y="82.0" type="line"/>
    </contour>
  </outline>
</glyph>
<glyph name="bracketleft" format="2">
  <advance width="560"/>
  <unicode hex="005B"/>
  <outline>
    <contour>
      <point x="602.5" y="1516" type="line"/>
      <point x="308.5" y="1516" type="line" name="n01"/>
      <point x="311" y="1454" type="line" name="n02"/>
      <point x="567" y="1454" type="line" smooth="yes"/>
      <point x="584" y="1454"/>
      <point x="596.5" y="1465.5"/>
      <point x="599" y="1481.5" type="curve"/>
    </contour>
    <contour>
      <point x="384.5" y="-262.5" type="line"/>
      <point x="389.5" y="-228.5" type="line"/>
      <point x="391" y="-212"/>
      <point x="381" y="-200.5"/>
      <point x="364" y="-200.5" type="curve" smooth="yes"/>
      <point x="110.5" y="-200.5" type="line" name="n12"/>
      <point x="90.5" y="-262.5" type="line"/>
    </contour>
    <contour>
      <point x="387.5" y="1516" type="line"/>
      <point x="308.5" y="1516" type="line"/>
      <point x="90.5" y="-262.5" type="line"/>
      <point x="167.5" y="-262.5" type="line" name="n17"/>
    </contour>
  </outline>
  <guideline angle="82.9991" x="276" y="0"/>
</glyph>
<glyph name="backslash" format="2">
  <advance width="801"/>
  <unicode hex="005C"/>
  <outline>
    <contour>
      <point x="557.75" y="-47" type="line" smooth="yes"/>
      <point x="563.75" y="-72.5"/>
      <point x="586.75" y="-84" name="n02"/>
      <point x="608.25" y="-84" type="curve" smooth="yes"/>
      <point x="645.75" y="-84" type="line"/>
      <point x="261.75" y="1409.5" type="line" smooth="yes"/>
      <point x="255.75" y="1432"/>
      <point x="238.75" y="1445" name="n07"/>
      <point x="213.75" y="1445" type="curve" smooth="yes"/>
      <point x="174.75" y="1445" type="line"/>
    </contour>
  </outline>
  <guideline angle="82.9991" x="315" y="0"/>
</glyph>
<glyph name="bracketright" format="2">
  <advance width="561.75"/>
  <unicode hex="005D"/>
  <guideline x="276.0" y="0.0" angle="82.9991"/>
  <outline>
    <contour>
      <point x="178.25" y="1481.5" type="line"/>
      <point x="175.75" y="1465.5"/>
      <point x="185.75" y="1454.0"/>
      <point x="204.25" y="1454.0" type="curve" smooth="yes"/>
      <point x="460.25" y="1454.0" type="line"/>
      <point x="477.75" y="1516.0" type="line"/>
      <point x="182.25" y="1516.0" type="line"/>
    </contour>
    <contour>
      <point x="259.25" y="-262.5" type="line"/>
      <point x="256.75" y="-200.5" type="line"/>
      <point x="0.75" y="-200.5" type="line" smooth="yes"/>
      <point x="-17.75" y="-200.5"/>
      <point x="-29.75" y="-212.0"/>
      <point x="-32.25" y="-228.5" type="curve"/>
      <point x="-36.25" y="-262.5" type="line"/>
    </contour>
    <contour>
      <point x="180.75" y="-262.5" type="line"/>
      <point x="259.25" y="-262.5" type="line"/>
      <point x="477.75" y="1516.0" type="line"/>
      <point x="399.25" y="1516.0" type="line"/>
    </contour>
  </outline>
</glyph>
<glyph name="asciicircum" format="2">
  <advance width="1160.0"/>
  <unicode hex="005E"/>
  <guideline x="580.0" y="0.0" angle="82.9991"/>
  <outline>
    <contour>
      <point x="263.0" y="800.5" type="line"/>
      <point x="333.5" y="800.5" type="line" smooth="yes"/>
      <point x="351.0" y="800.5"/>
      <point x="361.5" y="812.0"/>
      <point x="368.0" y="823.5" type="curve"/>
      <point x="608.0" y="1259.0" type="line" smooth="yes"/>
      <point x="636.0" y="1310.5"/>
      <point x="646.5" y="1354.0"/>
      <point x="648.5" y="1415.0" type="curve"/>
      <point x="604.0" y="1415.0" type="line"/>
    </contour>
    <contour>
      <point x="663.5" y="1415.0" type="line"/>
      <point x="621.0" y="1415.0" type="line"/>
      <point x="622.5" y="1354.0"/>
      <point x="633.5" y="1311.0"/>
      <point x="662.5" y="1259.0" type="curve" smooth="yes"/>
      <point x="903.5" y="823.5" type="line"/>
      <point x="910.5" y="810.5"/>
      <point x="922.0" y="800.5"/>
      <point x="937.0" y="800.5" type="curve" smooth="yes"/>
      <point x="1004.5" y="800.5" type="line"/>
    </contour>
  </outline>
</glyph>
<glyph name="underscore" format="2">
  <advance width="887.0"/>
  <unicode hex="005F"/>
  <guideline x="363.0" y="0.0" angle="82.9991"/>
  <outline>
    <contour>
      <point x="-18.5" y="-207.0" type="line"/>
      <point x="-26.0" y="-272.0" type="line"/>
      <point x="698.5" y="-272.0" type="line"/>
      <point x="707.5" y="-207.0" type="line"/>
    </contour>
  </outline>
</glyph>
<glyph name="grave" format="2">
  <advance width="736"/>
  <unicode hex="0060"/>
  <anchor x="400" y="1120" name="_top"/>
  <outline>
    <contour>
      <point x="339.25" y="1431" type="line" name="n00"/>
      <point x="510.75" y="1177.5" type="line"/>
      <point x="518.25" y="1165"/>
      <point x="528" y="1160.5" name="n03"/>
      <point x="542.25" y="1160.5" type="curve" smooth="yes"/>
      <point x="592.5" y="1160.5" type="line"/>
      <point x="475.25" y="1399" type="line"/>
      <point x="464.5" y="1422.5"/>
      <point x="453.25" y="1431"/>
      <point x="424" y="1431" type="curve" smooth="yes"/>
    </contour>
  </outline>
  <guideline angle="82.9991" x="368" y="0"/>
</glyph>
<glyph name="a" format="2">
  <advance width="997"/>
  <unicode hex="0061"/>
  <anchor x="459.5" y="-70" name="bottom"/>
  <anchor x="718.5" y="70.5" name="hook"/>
  <anchor x="654.75" y="1120" name="top"/>
  <outline>
    <contour>
      <point x="773.5" y="0" type="line" name="n00"/>
      <point x="890.5" y="960.5" type="line"/>
      <point x="797.5" y="956.5" type="line"/>
      <point x="728.5" y="400.5" type="line"/>
      <point x="731" y="384" type="line"/>
      <point x="693.5" y="36" type="line"/>
      <point x="693.5" y="17"/>
      <point x="700.5" y="0"/>
      <point x="727.5" y="0" type="curve" smooth="yes"/>
    </contour>
    <contour>
      <point x="890.5" y="960.5" type="line"/>
      <point x="824" y="996"/>
      <point x="754.5" y="1008"/>
      <point x="676" y="1008" type="curve" smooth="yes" name="n12"/>
      <point x="347" y="1008"/>
      <point x="67.5" y="680.5"/>
      <point x="67.5" y="334" type="curve" smooth="yes"/>
      <point x="67.5" y="122.5"/>
      <point x="153" y="-13"/>
      <point x="319.5" y="-13" type="curve" smooth="yes" name="n18"/>
      <point x="518.5" y="-13"/>
      <point x="688" y="202"/>
      <point x="786.5" y="495.5" type="curve"/>
      <point x="756" y="551" type="line"/>
      <point x="662.5" y="262.5"/>
      <point x="511" y="66"/>
      <point x="350.5" y="66" type="curve" smooth="yes" name="n25"/>
      <point x="222" y="66"/>
      <point x="163" y="170.5"/>
      <point x="163" y="348.5" type="curve" smooth="yes"/>
      <point x="163" y="653.5"/>
      <point x="398.5" y="937.5"/>
      <point x="665" y="937.5" type="curve" smooth="yes" name="n31"/>
      <point x="728.5" y="937.5"/>
      <point x="788" y="925.5"/>
      <point x="843" y="895" type="curve"/>
    </contour>
  </outline>
  <guideline angle="82.9991" x="477" y="0"/>
</glyph>
<glyph name="b" format="2">
  <advance width="1031.0"/>
  <unicode hex="0062"/>
  <guideline x="508.25" y="0.0" angle="82.9991"/>
  <anchor x="419.0" y="-70.0" name="bottom"/>
  <anchor x="604.5" y="1120.0" name="top"/>
  <anchor x="549.75" y="70.5" name="hook"/>
  <anchor x="271.5" y="1238.0" name="bar"/>
  <anchor x="315.25" y="1503.25" name="Top"/>
  <outline>
    <contour>
      <point x="128.5" y="0.0" type="line" smooth="yes"/>
      <point x="152.5" y="0.0"/>
      <point x="157.0" y="11.0"/>
      <point x="163.0" y="31.5" type="curve"/>
      <point x="187.25" y="168.75" type="line"/>
      <point x="194.25" y="180.75" type="line"/>
      <point x="350.0" y="1455.0" type="line"/>
      <point x="257.5" y="1455.0" type="line"/>
      <point x="81.5" y="0.0" type="line"/>
    </contour>
    <contour>
      <point x="168.5" y="167.0" type="line"/>
      <point x="221.0" y="49.0"/>
      <point x="328.5" y="-13.0"/>
      <point x="449.0" y="-13.0" type="curve" smooth="yes"/>
      <point x="739.0" y="-13.0"/>
      <point x="934.0" y="352.5"/>
      <point x="934.0" y="658.5" type="curve" smooth="yes"/>
      <point x="934.0" y="872.5"/>
      <point x="844.0" y="1009.5"/>
      <point x="671.0" y="1009.5" type="curve" smooth="yes"/>
      <point x="473.5" y="1009.5"/>
      <point x="287.0" y="796.0"/>
      <point x="188.0" y="502.5" type="curve"/>
      <point x="218.5" y="449.5" type="line"/>
      <point x="312.5" y="738.0"/>
      <point x="480.0" y="933.0"/>
      <point x="640.0" y="933.0" type="curve" smooth="yes"/>
      <point x="770.0" y="933.0"/>
      <point x="840.5" y="828.0"/>
      <point x="840.5" y="650.5" type="curve" smooth="yes"/>
      <point x="840.5" y="392.0"/>
      <point x="690.0" y="61.5"/>
      <point x="438.0" y="61.5" type="curve" smooth="yes"/>
      <point x="338.0" y="61.5"/>
      <point x="239.0" y="107.0"/>
      <point x="183.0" y="234.0" type="curve"/>
    </contour>
  </outline>
</glyph>
<glyph name="c" format="2">
  <advance width="911.0"/>
  <unicode hex="0063"/>
  <guideline y="1406.25"/>
  <guideline x="430.5" y="0.0" angle="82.9991"/>
  <anchor x="575.25" y="1120.0" name="top"/>
  <anchor x="369.0" y="-70.0" name="bottom"/>
  <outline>
    <contour>
      <point x="801.25" y="182.0" type="curve"/>
      <point x="779.75" y="208.0" type="line" smooth="yes"/>
      <point x="773.25" y="215.0"/>
      <point x="766.75" y="218.0"/>
      <point x="758.75" y="218.0" type="curve"/>
      <point x="715.25" y="218.0"/>
      <point x="645.25" y="62.5"/>
      <point x="431.75" y="62.5" type="curve" smooth="yes"/>
      <point x="252.75" y="62.5"/>
      <point x="171.25" y="198.5"/>
      <point x="171.25" y="383.5" type="curve" smooth="yes"/>
      <point x="171.25" y="673.0"/>
      <point x="343.75" y="933.5"/>
      <point x="567.75" y="933.5" type="curve" smooth="yes"/>
      <point x="726.25" y="933.5"/>
      <point x="766.25" y="832.5"/>
      <point x="792.75" y="832.5" type="curve" smooth="yes"/>
      <point x="801.25" y="832.5"/>
      <point x="809.25" y="837.5"/>
      <point x="814.25" y="843.0" type="curve" smooth="yes"/>
      <point x="842.25" y="876.0" type="line"/>
      <point x="780.75" y="958.5"/>
      <point x="701.25" y="1010.5"/>
      <point x="570.75" y="1010.5" type="curve" smooth="yes"/>
      <point x="281.25" y="1010.5"/>
      <point x="75.75" y="701.5"/>
      <point x="75.75" y="384.0" type="curve" smooth="yes"/>
      <point x="75.75" y="154.0"/>
      <point x="186.25" y="-13.0"/>
      <point x="414.75" y="-13.0" type="curve" smooth="yes"/>
      <point x="555.75" y="-13.0"/>
      <point x="658.75" y="24.0"/>
    </contour>
  </outline>
</glyph>
<glyph name="d" format="2">
  <advance width="1032.25"/>
  <unicode hex="0064"/>
  <guideline x="510.5" y="0.0" angle="82.9991"/>
  <anchor x="548.0" y="1120.0" name="top"/>
  <anchor x="804.25" y="70.5" name="hook"/>
  <anchor x="903.0" y="1238.0" name="bar"/>
  <anchor x="912.25" y="1503.25" name="Top"/>
  <anchor x="481.25" y="-70.0" name="bottom"/>
  <outline>
    <contour>
      <point x="804.75" y="0.0" type="line"/>
      <point x="983.25" y="1455.0" type="line"/>
      <point x="890.75" y="1455.0" type="line"/>
      <point x="759.75" y="400.5" type="line"/>
      <point x="762.25" y="384.0" type="line"/>
      <point x="724.75" y="36.0" type="line"/>
      <point x="724.75" y="17.0"/>
      <point x="731.75" y="0.0"/>
      <point x="758.75" y="0.0" type="curve"/>
    </contour>
    <contour>
      <point x="837.75" y="831.0" type="line"/>
      <point x="785.25" y="949.0"/>
      <point x="677.75" y="1009.5"/>
      <point x="557.25" y="1009.5" type="curve" smooth="yes"/>
      <point x="267.25" y="1009.5"/>
      <point x="72.25" y="645.5"/>
      <point x="72.25" y="339.5" type="curve" smooth="yes"/>
      <point x="72.25" y="125.5"/>
      <point x="162.25" y="-13.0"/>
      <point x="335.25" y="-13.0" type="curve" smooth="yes"/>
      <point x="532.75" y="-13.0"/>
      <point x="719.25" y="202.0"/>
      <point x="818.25" y="495.5" type="curve"/>
      <point x="787.75" y="548.5" type="line"/>
      <point x="693.75" y="260.0"/>
      <point x="526.25" y="63.5"/>
      <point x="366.25" y="63.5" type="curve" smooth="yes"/>
      <point x="236.25" y="63.5"/>
      <point x="165.75" y="170.0"/>
      <point x="165.75" y="347.5" type="curve" smooth="yes"/>
      <point x="165.75" y="606.0"/>
      <point x="316.25" y="935.0"/>
      <point x="568.25" y="935.0" type="curve" smooth="yes"/>
      <point x="668.25" y="935.0"/>
      <point x="767.25" y="891.0"/>
      <point x="823.25" y="764.0" type="curve"/>
    </contour>
  </outline>
</glyph>
<glyph name="e" format="2">
  <advance width="937"/>
  <unicode hex="0065"/>
  <anchor x="436.5" y="-70" name="bottom"/>
  <anchor x="792.25" y="70.5" name="hook"/>
  <anchor x="595" y="1120" name="top"/>
  <outline>
    <contour>
      <point x="153.5" y="460.5" type="line"/>
      <point x="729" y="519.5"/>
      <point x="843" y="640"/>
      <point x="843" y="805.5" type="curve" smooth="yes"/>
      <point x="843" y="886.5"/>
      <point x="773" y="1009"/>
      <point x="578" y="1009" type="curve" smooth="yes" name="n06"/>
      <point x="261.5" y="1009"/>
      <point x="75.5" y="679"/>
      <point x="75.5" y="378" type="curve" smooth="yes"/>
      <point x="75.5" y="137.5"/>
      <point x="199.5" y="-13"/>
      <point x="421.5" y="-13" type="curve" smooth="yes" name="n12"/>
      <point x="576" y="-13"/>
      <point x="687" y="46.5"/>
      <point x="818" y="184.5" type="curve"/>
      <point x="796.5" y="210.5" type="line"/>
      <point x="790" y="217.5"/>
      <point x="783.5" y="220.5"/>
      <point x="775.5" y="220.5" type="curve" smooth="yes"/>
      <point x="728.5" y="220.5"/>
      <point x="650.5" y="62.5"/>
      <point x="438.5" y="62.5" type="curve" smooth="yes" name="n22"/>
      <point x="257.5" y="62.5"/>
      <point x="167.5" y="180.5"/>
      <point x="167.5" y="380" type="curve"/>
      <point x="168" y="646.5"/>
      <point x="313.5" y="939.5"/>
      <point x="573.5" y="939.5" type="curve" smooth="yes" name="n28"/>
      <point x="711" y="939.5"/>
      <point x="759.5" y="859"/>
      <point x="759.5" y="802.5" type="curve" smooth="yes"/>
      <point x="759.5" y="686.5"/>
      <point x="688.5" y="583.5"/>
      <point x="165.5" y="525.5" type="curve"/>
    </contour>
  </outline>
  <guideline angle="82.9991" x="435" y="0"/>
</glyph>
<glyph name="f" format="2">
  <advance width="616"/>
  <unicode hex="0066"/>
  <anchor x="490.5" y="1503.25" name="Top"/>
  <anchor x="254.75" y="517.25" name="bar"/>
  <anchor x="129.25" y="-421" name="bottom"/>
  <anchor x="244.75" y="70.5" name="hook"/>
  <anchor x="575.5" y="1486.5" name="top"/>
  <outline>
    <contour>
      <point x="352.75" y="1087" type="line" smooth="yes"/>
      <point x="377.75" y="1286.5"/>
      <point x="474.25" y="1361"/>
      <point x="595.75" y="1361" type="curve" smooth="yes" name="n03"/>
      <point x="651.25" y="1361"/>
      <point x="683.25" y="1342.5"/>
      <point x="687.75" y="1364.5" type="curve" smooth="yes"/>
      <point x="697.75" y="1411.5" type="line"/>
      <point x="668.25" y="1425"/>
      <point x="628.75" y="1432.5"/>
      <point x="591.75" y="1432.5" type="curve" smooth="yes" name="n10"/>
      <point x="423.75" y="1432.5"/>
      <point x="291.75" y="1317"/>
      <point x="263.25" y="1089.5" type="curve"/>
      <point x="99.75" y="-250.5" type="line" name="n14"/>
      <point x="134.25" y="-250.5" type="line" smooth="yes"/>
      <point x="159.75" y="-250.5"/>
      <point x="175.25" y="-237"/>
      <point x="183.25" y="-209.5" type="curve"/>
      <point x="225.25" y="20.5" type="line"/>
      <point x="336.25" y="930" type="line"/>
      <point x="334.75" y="944" type="line"/>
    </contour>
    <contour>
      <point x="608.25" y="894.5" type="line" name="n22"/>
      <point x="618.25" y="963.5" type="line" name="n23"/>
      <point x="95.25" y="963.5" type="line"/>
      <point x="91.25" y="927" type="line" smooth="yes"/>
      <point x="89.75" y="911"/>
      <point x="98.25" y="904"/>
      <point x="113.75" y="901.5" type="curve"/>
      <point x="255.25" y="892" type="line"/>
      <point x="275.75" y="894.5" type="line"/>
    </contour>
  </outline>
  <guideline angle="82.9991" x="268" y="0"/>
</glyph>
<glyph name="g" format="2">
  <advance width="924"/>
  <unicode hex="0067"/>
  <anchor x="362" y="-421" name="bottom"/>
  <anchor x="571.75" y="1120" name="top"/>
  <outline>
    <contour>
      <point x="417.75" y="425" type="curve" smooth="yes" name="n00"/>
      <point x="294.75" y="425"/>
      <point x="216.75" y="499.5"/>
      <point x="216.75" y="640.5" type="curve" smooth="yes"/>
      <point x="216.75" y="794.5"/>
      <point x="314.25" y="942"/>
      <point x="485.75" y="942" type="curve" smooth="yes" name="n06"/>
      <point x="609.25" y="942"/>
      <point x="688.75" y="872.5"/>
      <point x="688.75" y="733.5" type="curve"/>
      <point x="688.25" y="582.5"/>
      <point x="589.25" y="425"/>
    </contour>
    <contour>
      <point x="774.75" y="736.5" type="curve"/>
      <point x="774.75" y="914.5"/>
      <point x="656.25" y="1009.5"/>
      <point x="494.75" y="1009.5" type="curve" smooth="yes" name="n15"/>
      <point x="262.25" y="1009.5"/>
      <point x="129.75" y="826"/>
      <point x="129.75" y="641" type="curve" smooth="yes"/>
      <point x="129.75" y="461"/>
      <point x="242.25" y="363"/>
      <point x="395.25" y="363" type="curve" smooth="yes" name="n21"/>
      <point x="493.75" y="363"/>
      <point x="573.75" y="404"/>
      <point x="640.25" y="470" type="curve"/>
      <point x="639.25" y="496.5" type="line"/>
      <point x="546.75" y="384.5"/>
      <point x="523.25" y="324.5"/>
      <point x="523.25" y="263.5" type="curve"/>
      <point x="521.75" y="140.5"/>
      <point x="667.75" y="102"/>
      <point x="666.25" y="-52.5" type="curve" smooth="yes"/>
      <point x="664.75" y="-180"/>
      <point x="527.75" y="-302"/>
      <point x="318.25" y="-302" type="curve" smooth="yes" name="n34"/>
      <point x="152.25" y="-302"/>
      <point x="43.25" y="-238"/>
      <point x="43.25" y="-123" type="curve"/>
      <point x="44.75" y="25"/>
      <point x="228.75" y="150.5"/>
      <point x="612.75" y="93" type="curve"/>
      <point x="595.75" y="151" type="line"/>
      <point x="264.75" y="207"/>
      <point x="-45.25" y="99"/>
      <point x="-46.75" y="-133" type="curve"/>
      <point x="-46.75" y="-282"/>
      <point x="99.25" y="-370.5"/>
      <point x="310.25" y="-370.5" type="curve" smooth="yes" name="n47"/>
      <point x="576.75" y="-370.5"/>
      <point x="751.25" y="-214.5"/>
      <point x="753.25" y="-46" type="curve" smooth="yes"/>
      <point x="754.75" y="117"/>
      <point x="592.25" y="177.5"/>
      <point x="593.75" y="288.5" type="curve"/>
      <point x="593.75" y="433.5"/>
      <point x="771.75" y="513.5"/>
    </contour>
    <contour>
      <point x="695.25" y="885" type="line"/>
      <point x="898.75" y="901" type="line" name="n57"/>
      <point x="917.25" y="904.5"/>
      <point x="925.25" y="915.5"/>
      <point x="926.75" y="928.5" type="curve" smooth="yes"/>
      <point x="930.25" y="960" type="line" name="n61"/>
      <point x="632.75" y="960" type="line"/>
    </contour>
  </outline>
  <guideline angle="90" x="419" y="0"/>
  <guideline angle="82.9991" x="100" y="0"/>
</glyph>
<glyph name="h" format="2">
  <advance width="1031"/>
  <unicode hex="0068"/>
  <anchor x="544.5" y="707" name="Slash"/>
  <anchor x="315.5" y="1503.25" name="Top"/>
  <anchor x="443.5" y="-70" name="bottom"/>
  <anchor x="315.5" y="1503.25" name="top"/>
  <outline>
    <contour>
      <point x="175.5" y="0" type="line" name="n00"/>
      <point x="351.5" y="1455" type="line" name="n01"/>
      <point x="257.5" y="1455" type="line"/>
      <point x="81.5" y="0" type="line"/>
    </contour>
    <contour>
      <point x="814.5" y="0" type="line"/>
      <point x="889.5" y="636" type="line"/>
      <point x="795.5" y="636" type="line"/>
      <point x="720.5" y="0" type="line"/>
    </contour>
    <contour>
      <point x="889.5" y="636" type="line"/>
      <point x="918.5" y="873.5"/>
      <point x="845" y="1009.5"/>
      <point x="672.5" y="1009.5" type="curve" smooth="yes" name="n11"/>
      <point x="489.5" y="1009.5"/>
      <point x="300.5" y="839"/>
      <point x="196" y="554.5" type="curve"/>
      <point x="225" y="499.5" type="line"/>
      <point x="320.5" y="762"/>
      <point x="489.5" y="931"/>
      <point x="641" y="931" type="curve" smooth="yes" name="n18"/>
      <point x="773.5" y="931"/>
      <point x="818.5" y="826.5"/>
      <point x="795.5" y="636" type="curve"/>
    </contour>
  </outline>
  <guideline angle="82.9991" x="502" y="0"/>
</glyph>
<glyph name="i" format="2">
  <advance width="423.5"/>
  <unicode hex="0069"/>
  <guideline x="227.25"/>
  <guideline x="100.0" y="0.0" angle="82.9991"/>
  <anchor x="186.75" y="70.5" name="hook"/>
  <anchor x="286.0" y="1503.25" name="Top"/>
  <anchor x="286.0" y="1503.25" name="top"/>
  <anchor x="134.0" y="-70.0" name="bottom"/>
  <outline>
    <contour>
      <point x="213.0" y="995.0" type="line"/>
      <point x="92.0" y="0.0" type="line"/>
      <point x="185.0" y="0.0" type="line"/>
      <point x="306.0" y="995.0" type="line"/>
    </contour>
    <contour>
      <point x="379.0" y="1338.0" type="curve"/>
      <point x="379.0" y="1386.5"/>
      <point x="337.5" y="1427.0"/>
      <point x="294.0" y="1427.0" type="curve" smooth="yes"/>
      <point x="250.0" y="1427.0"/>
      <point x="210.0" y="1386.0"/>
      <point x="210.0" y="1338.0" type="curve" smooth="yes"/>
      <point x="210.0" y="1291.5"/>
      <point x="249.5" y="1251.0"/>
      <point x="293.5" y="1251.0" type="curve" smooth="yes"/>
      <point x="336.5" y="1251.0"/>
      <point x="379.0" y="1291.5"/>
    </contour>
  </outline>
</glyph>
<glyph name="j" format="2">
  <advance width="422.25"/>
  <unicode hex="006A"/>
  <guideline x="219.75"/>
  <guideline x="100.0" y="0.0" angle="82.9991"/>
  <anchor x="201.0" y="517.25" name="bar"/>
  <anchor x="286.0" y="1503.25" name="Top"/>
  <anchor x="286.0" y="1503.25" name="top"/>
  <anchor x="89.75" y="-421.0" name="bottom"/>
  <outline>
    <contour>
      <point x="213.25" y="995.0" type="line"/>
      <point x="75.25" y="-127.5" type="line"/>
      <point x="61.25" y="-235.0"/>
      <point x="7.25" y="-296.5"/>
      <point x="-90.75" y="-296.5" type="curve" smooth="yes"/>
      <point x="-137.75" y="-296.5"/>
      <point x="-150.25" y="-276.5"/>
      <point x="-160.75" y="-300.0" type="curve"/>
      <point x="-171.25" y="-348.5" type="line"/>
      <point x="-145.75" y="-362.0"/>
      <point x="-119.75" y="-369.5"/>
      <point x="-81.25" y="-369.5" type="curve" smooth="yes"/>
      <point x="60.75" y="-369.5"/>
      <point x="151.25" y="-265.5"/>
      <point x="167.75" y="-127.5" type="curve" smooth="yes"/>
      <point x="305.75" y="995.0" type="line"/>
    </contour>
    <contour>
      <point x="380.25" y="1338.0" type="curve" smooth="yes"/>
      <point x="380.25" y="1386.5"/>
      <point x="338.75" y="1427.0"/>
      <point x="295.25" y="1427.0" type="curve" smooth="yes"/>
      <point x="251.25" y="1427.0"/>
      <point x="211.25" y="1386.0"/>
      <point x="211.25" y="1338.0" type="curve" smooth="yes"/>
      <point x="211.25" y="1291.5"/>
      <point x="250.75" y="1251.0"/>
      <point x="294.75" y="1251.0" type="curve" smooth="yes"/>
      <point x="337.75" y="1251.0"/>
      <point x="380.25" y="1291.5"/>
    </contour>
  </outline>
</glyph>
<glyph name="k" format="2">
  <advance width="884.75"/>
  <unicode hex="006B"/>
  <guideline x="444.0" y="0.0" angle="82.9991"/>
  <anchor x="741.0" y="70.5" name="hook"/>
  <anchor x="322.0" y="1503.25" name="Top"/>
  <anchor x="322.0" y="1503.25" name="top"/>
  <anchor x="401.25" y="-70.0" name="bottom"/>
  <outline>
    <contour>
      <point x="258.25" y="1455.0" type="line"/>
      <point x="80.25" y="0.0" type="line"/>
      <point x="173.25" y="0.0" type="line"/>
      <point x="351.25" y="1455.0" type="line"/>
    </contour>
    <contour>
      <point x="208.75" y="568.0" type="line"/>
      <point x="215.25" y="502.5" type="line"/>
      <point x="270.25" y="502.5" type="line" smooth="yes"/>
      <point x="306.75" y="502.5"/>
      <point x="320.25" y="496.5"/>
      <point x="337.25" y="471.5" type="curve" smooth="yes"/>
      <point x="667.25" y="22.5" type="line" smooth="yes"/>
      <point x="677.25" y="5.0"/>
      <point x="690.25" y="0.0"/>
      <point x="708.75" y="0.0" type="curve" smooth="yes"/>
      <point x="788.25" y="0.0" type="line"/>
      <point x="424.25" y="502.0" type="line"/>
      <point x="404.25" y="536.0"/>
      <point x="379.25" y="560.0"/>
      <point x="318.75" y="560.0" type="curve"/>
      <point x="313.75" y="529.0" type="line"/>
      <point x="362.25" y="529.0"/>
      <point x="392.25" y="545.0"/>
      <point x="424.25" y="578.0" type="curve"/>
      <point x="879.25" y="995.0" type="line"/>
      <point x="797.75" y="995.0" type="line" smooth="yes"/>
      <point x="774.75" y="995.0"/>
      <point x="760.25" y="986.0"/>
      <point x="746.25" y="970.0" type="curve"/>
      <point x="334.25" y="591.0" type="line" smooth="yes"/>
      <point x="315.25" y="572.0"/>
      <point x="303.25" y="568.0"/>
      <point x="279.75" y="568.0" type="curve" smooth="yes"/>
    </contour>
  </outline>
</glyph>
<glyph name="l" format="2">
  <advance width="418"/>
  <unicode hex="006C"/>
  <anchor x="319" y="1503.25" name="Top"/>
  <anchor x="225.75" y="714" name="bar"/>
  <anchor x="128.25" y="-70" name="bottom"/>
  <anchor x="188.25" y="70.5" name="hook"/>
  <anchor x="319" y="1503.25" name="top"/>
  <outline>
    <contour>
      <point x="182" y="0" type="line" name="n00"/>
      <point x="359.5" y="1455" type="line" name="n01"/>
      <point x="266.5" y="1455" type="line"/>
      <point x="90.5" y="0" type="line"/>
    </contour>
  </outline>
  <guideline angle="82.9991" x="212" y="0"/>
</glyph>
<glyph name="m" format="2">
  <advance width="1560.25"/>
  <unicode hex="006D"/>
  <guideline x="779.25" y="0.0" angle="82.9991"/>
  <anchor x="662.0" y="-70.0" name="bottom"/>
  <anchor x="837.75" y="1120.0" name="top"/>
  <anchor x="1275.25" y="70.5" name="hook"/>
  <outline>
    <contour>
      <point x="174.0" y="0.0" type="line"/>
      <point x="248.0" y="620.5" type="line"/>
      <point x="246.0" y="628.0" type="line"/>
      <point x="279.0" y="962.5" type="line"/>
      <point x="279.0" y="984.5"/>
      <point x="268.0" y="998.0"/>
      <point x="244.5" y="998.0" type="curve"/>
      <point x="201.5" y="998.0" type="line"/>
      <point x="81.5" y="0.0" type="line"/>
    </contour>
    <contour>
      <point x="758.0" y="0.0" type="line"/>
      <point x="833.0" y="636.0" type="line"/>
      <point x="740.0" y="636.0" type="line"/>
      <point x="665.0" y="0.0" type="line"/>
    </contour>
    <contour>
      <point x="822.5" y="636.0" type="line"/>
      <point x="851.5" y="873.5"/>
      <point x="814.0" y="1009.5"/>
      <point x="646.0" y="1009.5" type="curve" smooth="yes"/>
      <point x="467.5" y="1009.5"/>
      <point x="301.0" y="839.0"/>
      <point x="196.5" y="554.5" type="curve"/>
      <point x="225.0" y="499.5" type="line"/>
      <point x="323.5" y="772.5"/>
      <point x="459.0" y="930.5"/>
      <point x="617.0" y="930.5" type="curve" smooth="yes"/>
      <point x="748.5" y="930.5"/>
      <point x="763.0" y="826.5"/>
      <point x="740.0" y="636.0" type="curve"/>
    </contour>
    <contour>
      <point x="1343.0" y="0.0" type="line"/>
      <point x="1418.0" y="636.0" type="line"/>
      <point x="1325.0" y="636.0" type="line"/>
      <point x="1250.0" y="0.0" type="line"/>
    </contour>
    <contour>
      <point x="1418.0" y="636.0" type="line"/>
      <point x="1447.0" y="873.5"/>
      <point x="1397.0" y="1009.5"/>
      <point x="1224.5" y="1009.5" type="curve" smooth="yes"/>
      <point x="1063.5" y="1009.5"/>
      <point x="890.0" y="878.0"/>
      <point x="789.0" y="601.0" type="curve"/>
      <point x="817.5" y="546.0" type="line"/>
      <point x="910.0" y="805.5"/>
      <point x="1060.5" y="930.5"/>
      <point x="1194.5" y="930.5" type="curve" smooth="yes"/>
      <point x="1324.5" y="930.5"/>
      <point x="1348.0" y="826.5"/>
      <point x="1325.0" y="636.0" type="curve"/>
    </contour>
  </outline>
</glyph>
<glyph name="n" format="2">
  <advance width="1033"/>
  <unicode hex="006E"/>
  <anchor x="444.5" y="-70" name="bottom"/>
  <anchor x="807.25" y="70.5" name="hook"/>
  <anchor x="572" y="1120" name="top"/>
  <outline>
    <contour>
      <point x="175.75" y="0" type="line" name="n00"/>
      <point x="247.75" y="620.5" type="line"/>
      <point x="245.75" y="628" type="line"/>
      <point x="278.75" y="962.5" type="line"/>
      <point x="278.75" y="984.5"/>
      <point x="267.75" y="998" name="n05"/>
      <point x="244.25" y="998" type="curve" smooth="yes"/>
      <point x="201.25" y="998" type="line"/>
      <point x="81.75" y="0" type="line"/>
    </contour>
    <contour>
      <point x="816.25" y="0" type="line"/>
      <point x="891.25" y="636" type="line"/>
      <point x="797.25" y="636" type="line"/>
      <point x="722.25" y="0" type="line"/>
    </contour>
    <contour>
      <point x="891.25" y="636" type="line"/>
      <point x="920.25" y="873.5"/>
      <point x="845.25" y="1009.5"/>
      <point x="674.75" y="1009.5" type="curve" smooth="yes" name="n16"/>
      <point x="491.25" y="1009.5"/>
      <point x="302.75" y="839"/>
      <point x="198.25" y="554.5" type="curve"/>
      <point x="226.75" y="499.5" type="line"/>
      <point x="320.75" y="762"/>
      <point x="489.75" y="930.5"/>
      <point x="643.25" y="930.5" type="curve" smooth="yes" name="n23"/>
      <point x="775.25" y="930.5"/>
      <point x="820.25" y="826.5"/>
      <point x="797.25" y="636" type="curve"/>
    </contour>
  </outline>
  <guideline angle="90" x="503" y="0"/>
  <guideline angle="82.9991" x="100" y="0"/>
</glyph>
<glyph name="o" format="2">
  <advance width="1026.5"/>
  <unicode hex="006F"/>
  <guideline x="493.75"/>
  <guideline x="100.0" y="0.0" angle="82.9991"/>
  <anchor x="584.25" y="1120.0" name="top"/>
  <anchor x="439.25" y="-70.0" name="bottom"/>
  <outline>
    <contour>
      <point x="441.5" y="62.0" type="curve"/>
      <point x="273.0" y="62.0"/>
      <point x="173.5" y="184.5"/>
      <point x="173.5" y="396.0" type="curve" smooth="yes"/>
      <point x="173.5" y="675.0"/>
      <point x="328.0" y="934.5"/>
      <point x="560.5" y="934.5" type="curve" smooth="yes"/>
      <point x="727.5" y="934.5"/>
      <point x="828.5" y="814.0"/>
      <point x="828.5" y="602.0" type="curve" smooth="yes"/>
      <point x="828.5" y="326.5"/>
      <point x="674.0" y="62.0"/>
    </contour>
    <contour>
      <point x="433.0" y="-13.0" type="curve"/>
      <point x="720.5" y="-13.0"/>
      <point x="924.0" y="281.5"/>
      <point x="924.0" y="602.5" type="curve" smooth="yes"/>
      <point x="924.0" y="855.0"/>
      <point x="783.0" y="1009.5"/>
      <point x="569.0" y="1009.5" type="curve" smooth="yes"/>
      <point x="281.5" y="1009.5"/>
      <point x="78.0" y="719.0"/>
      <point x="78.0" y="395.5" type="curve" smooth="yes"/>
      <point x="78.0" y="141.5"/>
      <point x="219.0" y="-13.0"/>
    </contour>
  </outline>
</glyph>
<glyph name="q" format="2">
  <advance width="998"/>
  <unicode hex="0071"/>
  <anchor x="416.5" y="-421" name="bottom"/>
  <anchor x="653" y="1120" name="top"/>
  <outline>
    <contour>
      <point x="730.25" y="-352" type="line" name="n00"/>
      <point x="890.75" y="960.5" type="line"/>
      <point x="797.75" y="956.5" type="line"/>
      <point x="640.25" y="-299" type="line" smooth="yes"/>
      <point x="635.75" y="-331.5"/>
      <point x="645.25" y="-352"/>
      <point x="676.25" y="-352" type="curve" smooth="yes"/>
    </contour>
    <contour>
      <point x="890.75" y="960.5" type="line"/>
      <point x="824.25" y="996"/>
      <point x="754.75" y="1008"/>
      <point x="676.25" y="1008" type="curve" smooth="yes" name="n10"/>
      <point x="347.25" y="1008"/>
      <point x="67.75" y="680.5"/>
      <point x="67.75" y="334" type="curve" smooth="yes"/>
      <point x="67.75" y="122.5"/>
      <point x="153.25" y="-13"/>
      <point x="319.75" y="-13" type="curve" smooth="yes" name="n16"/>
      <point x="518.75" y="-13"/>
      <point x="688.25" y="202"/>
      <point x="786.75" y="495.5" type="curve"/>
      <point x="756.25" y="551" type="line"/>
      <point x="662.75" y="262.5"/>
      <point x="511.25" y="66"/>
      <point x="350.75" y="66" type="curve" smooth="yes" name="n23"/>
      <point x="222.25" y="66"/>
      <point x="163.25" y="170.5"/>
      <point x="163.25" y="348.5" type="curve" smooth="yes"/>
      <point x="163.25" y="653.5"/>
      <point x="398.75" y="937.5"/>
      <point x="665.25" y="937.5" type="curve" smooth="yes" name="n29"/>
      <point x="728.75" y="937.5"/>
      <point x="788.25" y="925.5"/>
      <point x="843.25" y="895" type="curve"/>
    </contour>
  </outline>
  <guideline angle="82.9991" x="477" y="0"/>
</glyph>
<glyph name="r" format="2">
  <advance width="657"/>
  <unicode hex="0072"/>
  <anchor x="184.5" y="517.25" name="bar"/>
  <anchor x="112" y="-70" name="bottom"/>
  <anchor x="172.25" y="70.5" name="hook"/>
  <anchor x="447.25" y="1120" name="top"/>
  <outline>
    <contour>
      <point x="174" y="0" type="line" name="n00"/>
      <point x="248" y="620.5" type="line"/>
      <point x="246" y="628" type="line"/>
      <point x="279" y="962.5" type="line"/>
      <point x="279" y="984.5"/>
      <point x="268" y="998" name="n05"/>
      <point x="244.5" y="998" type="curve" smooth="yes"/>
      <point x="201.5" y="998" type="line"/>
      <point x="81.5" y="0" type="line"/>
    </contour>
    <contour>
      <point x="220" y="458.5" type="line"/>
      <point x="316.5" y="808.5"/>
      <point x="469" y="973"/>
      <point x="659" y="900" type="curve"/>
      <point x="676" y="988.5" type="line"/>
      <point x="480" y="1066.5"/>
      <point x="297.5" y="871.5"/>
      <point x="190.5" y="493" type="curve"/>
    </contour>
  </outline>
  <guideline angle="82.9991" x="323" y="0"/>
</glyph>
<glyph name="s" format="2">
  <advance width="787"/>
  <unicode hex="0073"/>
  <anchor x="315" y="-70" name="bottom"/>
  <anchor x="526.25" y="70.5" name="hook"/>
  <anchor x="478.75" y="1120" name="top"/>
  <outline>
    <contour>
      <point x="720.5" y="906" type="line"/>
      <point x="656.5" y="974.5"/>
      <point x="576" y="1009.5"/>
      <point x="465" y="1009.5" type="curve" smooth="yes" name="n03"/>
      <point x="267" y="1009.5"/>
      <point x="126.5" y="868"/>
      <point x="126.5" y="713" type="curve" smooth="yes"/>
      <point x="126.5" y="434"/>
      <point x="570" y="535.5"/>
      <point x="570" y="298" type="curve" smooth="yes"/>
      <point x="570" y="164.5"/>
      <point x="465" y="52"/>
      <point x="306.5" y="52" type="curve" smooth="yes" name="n12"/>
      <point x="140.5" y="52"/>
      <point x="97" y="154.5"/>
      <point x="70" y="154.5" type="curve" smooth="yes"/>
      <point x="58" y="154.5"/>
      <point x="50.5" y="149"/>
      <point x="43" y="139" type="curve"/>
      <point x="19.5" y="104.5" type="line"/>
      <point x="82.5" y="32.5"/>
      <point x="165" y="-16"/>
      <point x="293.5" y="-16" type="curve" smooth="yes" name="n22"/>
      <point x="512" y="-16"/>
      <point x="654" y="146"/>
      <point x="654" y="317" type="curve" smooth="yes"/>
      <point x="654" y="601"/>
      <point x="210" y="512.5"/>
      <point x="210" y="732" type="curve" smooth="yes"/>
      <point x="210" y="844"/>
      <point x="321" y="940"/>
      <point x="458" y="940" type="curve" smooth="yes" name="n31"/>
      <point x="604.5" y="940"/>
      <point x="648.5" y="859.5"/>
      <point x="675.5" y="859.5" type="curve" smooth="yes"/>
      <point x="685" y="859.5"/>
      <point x="691.5" y="863.5"/>
      <point x="697.5" y="873" type="curve"/>
    </contour>
  </outline>
  <guideline angle="82.9991" x="383" y="0"/>
</glyph>
<glyph name="t" format="2">
  <advance width="682"/>
  <unicode hex="0074"/>
  <anchor x="346.25" y="707" name="Slash"/>
  <anchor x="228.75" y="517.25" name="bar"/>
  <anchor x="306.75" y="-70" name="bottom"/>
  <anchor x="364.5" y="1402.5" name="top"/>
  <outline>
    <contour>
      <point x="243.25" y="936.5" type="line"/>
      <point x="168.75" y="327.5" type="line" smooth="yes"/>
      <point x="154.25" y="210"/>
      <point x="152.75" y="182"/>
      <point x="152.75" y="166.5" type="curve"/>
      <point x="154.25" y="43.5"/>
      <point x="219.75" y="-16"/>
      <point x="328.75" y="-16" type="curve" smooth="yes" name="n07"/>
      <point x="405.25" y="-16"/>
      <point x="486.75" y="21.5"/>
      <point x="540.25" y="77" type="curve"/>
      <point x="521.75" y="118.5" type="line" smooth="yes"/>
      <point x="518.75" y="125"/>
      <point x="514.75" y="128.5"/>
      <point x="507.25" y="128.5" type="curve" smooth="yes"/>
      <point x="490.75" y="128.5"/>
      <point x="443.25" y="62"/>
      <point x="354.75" y="62" type="curve" smooth="yes" name="n17"/>
      <point x="291.25" y="62"/>
      <point x="246.25" y="99"/>
      <point x="246.25" y="184.5" type="curve" smooth="yes"/>
      <point x="246.25" y="194.5"/>
      <point x="247.75" y="222.5"/>
      <point x="261.75" y="330.5" type="curve"/>
      <point x="386.25" y="1344" type="line" name="n24"/>
      <point x="339.75" y="1344" type="line" smooth="yes"/>
      <point x="326.75" y="1344"/>
      <point x="317.25" y="1333.5"/>
      <point x="313.75" y="1321" type="curve"/>
    </contour>
    <contour>
      <point x="287.25" y="963.5" type="line"/>
      <point x="263.25" y="966" type="line"/>
      <point x="90.75" y="952.5" type="line"/>
      <point x="85.75" y="916.5" type="line"/>
      <point x="84.25" y="901.5"/>
      <point x="92.75" y="893"/>
      <point x="105.75" y="893" type="curve" smooth="yes"/>
      <point x="618.75" y="893" type="line" name="n36"/>
      <point x="626.75" y="963.5" type="line" name="n37"/>
    </contour>
  </outline>
  <guideline angle="82.9991" x="317" y="0"/>
</glyph>
<glyph name="u" format="2">
  <advance width="1032.25"/>
  <unicode hex="0075"/>
  <guideline x="510.75" y="0.0" angle="82.9991"/>
  <anchor x="577.5" y="1120.0" name="top"/>
  <anchor x="803.5" y="70.5" name="hook"/>
  <anchor x="485.5" y="-70.0" name="bottom"/>
  <outline>
    <contour>
      <point x="831.25" y="995.0" type="line"/>
      <point x="757.25" y="377.5" type="line"/>
      <point x="759.25" y="359.5" type="line"/>
      <point x="724.75" y="37.0" type="line"/>
      <point x="724.75" y="14.5"/>
      <point x="735.75" y="0.0"/>
      <point x="761.25" y="0.0" type="curve" smooth="yes"/>
      <point x="805.25" y="0.0" type="line"/>
      <point x="925.25" y="995.0" type="line"/>
    </contour>
    <contour>
      <point x="190.75" y="995.0" type="line"/>
      <point x="115.75" y="362.0" type="line"/>
      <point x="209.75" y="362.0" type="line"/>
      <point x="284.75" y="995.0" type="line"/>
    </contour>
    <contour>
      <point x="115.75" y="362.0" type="line"/>
      <point x="86.75" y="124.5"/>
      <point x="161.75" y="-13.0"/>
      <point x="332.25" y="-13.0" type="curve" smooth="yes"/>
      <point x="515.75" y="-13.0"/>
      <point x="704.25" y="159.0"/>
      <point x="808.75" y="443.5" type="curve"/>
      <point x="780.25" y="498.5" type="line"/>
      <point x="686.25" y="236.0"/>
      <point x="517.25" y="66.0"/>
      <point x="363.75" y="66.0" type="curve" smooth="yes"/>
      <point x="231.75" y="66.0"/>
      <point x="186.75" y="171.5"/>
      <point x="209.75" y="362.0" type="curve"/>
    </contour>
  </outline>
</glyph>
<glyph name="v" format="2">
  <advance width="926.75"/>
  <unicode hex="0076"/>
  <guideline x="451.5" y="0.0" angle="82.9991"/>
  <anchor x="468.75" y="70.5" name="hook"/>
  <anchor x="522.0" y="1120.0" name="top"/>
  <anchor x="386.5" y="-70.0" name="bottom"/>
  <outline>
    <contour>
      <point x="352.25" y="0.0" type="line"/>
      <point x="405.75" y="0.0" type="line"/>
      <point x="405.75" y="65.0"/>
      <point x="403.25" y="123.5"/>
      <point x="391.75" y="186.0" type="curve" smooth="yes"/>
      <point x="188.75" y="970.5" type="line"/>
      <point x="185.75" y="983.0"/>
      <point x="176.25" y="995.0"/>
      <point x="158.25" y="995.0" type="curve" smooth="yes"/>
      <point x="85.25" y="995.0" type="line"/>
    </contour>
    <contour>
      <point x="939.75" y="995.0" type="line"/>
      <point x="869.25" y="995.0" type="line" smooth="yes"/>
      <point x="853.5" y="995.0"/>
      <point x="840.25" y="984.5"/>
      <point x="833.75" y="970.5" type="curve" smooth="yes"/>
      <point x="437.25" y="186.0" type="line" smooth="yes"/>
      <point x="409.25" y="121.0"/>
      <point x="391.75" y="65.0"/>
      <point x="378.25" y="0.0" type="curve"/>
      <point x="429.75" y="0.0" type="line"/>
    </contour>
  </outline>
</glyph>
<glyph name="w" format="2">
  <advance width="1410"/>
  <unicode hex="0077"/>
  <anchor x="626.5" y="-70" name="bottom"/>
  <anchor x="757.75" y="1120" name="top"/>
  <outline>
    <contour>
      <point x="278.75" y="0" type="line" name="n00"/>
      <point x="344.25" y="0" type="line" smooth="yes"/>
      <point x="354.75" y="0"/>
      <point x="363.25" y="7.5"/>
      <point x="368.25" y="21" type="curve"/>
      <point x="720.75" y="829" type="line" smooth="yes"/>
      <point x="739.25" y="872.5"/>
      <point x="750.25" y="914.5"/>
      <point x="759.25" y="958" type="curve"/>
      <point x="737.25" y="958" type="line"/>
      <point x="736.25" y="914.5"/>
      <point x="736.25" y="873"/>
      <point x="743.75" y="829.5" type="curve"/>
      <point x="896.25" y="21" type="line"/>
      <point x="897.75" y="7"/>
      <point x="904.75" y="0"/>
      <point x="915.25" y="0" type="curve" smooth="yes"/>
      <point x="983.25" y="0" type="line"/>
      <point x="1409.75" y="995" type="line" name="n18"/>
      <point x="1343.75" y="995" type="line" smooth="yes"/>
      <point x="1328.75" y="995"/>
      <point x="1315.75" y="984.5"/>
      <point x="1310.25" y="970.5" type="curve" smooth="yes"/>
      <point x="984.25" y="186" type="line"/>
      <point x="960.75" y="120"/>
      <point x="941.75" y="68"/>
      <point x="930.25" y="3" type="curve"/>
      <point x="956.75" y="1.5" type="line"/>
      <point x="959.75" y="66.5"/>
      <point x="953.75" y="123"/>
      <point x="944.25" y="186" type="curve"/>
      <point x="797.25" y="978" type="line"/>
      <point x="796.25" y="990.5"/>
      <point x="787.75" y="999.5" name="n33"/>
      <point x="772.75" y="999.5" type="curve" smooth="yes"/>
      <point x="736.25" y="999.5" type="line" smooth="yes"/>
      <point x="722.75" y="999.5"/>
      <point x="711.25" y="990.5"/>
      <point x="706.75" y="978" type="curve"/>
      <point x="364.75" y="186" type="line"/>
      <point x="338.75" y="122.5"/>
      <point x="317.25" y="68"/>
      <point x="303.75" y="3" type="curve"/>
      <point x="331.75" y="3" type="line"/>
      <point x="334.25" y="68"/>
      <point x="332.25" y="122.5"/>
      <point x="326.25" y="186" type="curve"/>
      <point x="192.75" y="970.5" type="line" smooth="yes"/>
      <point x="189.75" y="986"/>
      <point x="179.75" y="995"/>
      <point x="162.25" y="995" type="curve" smooth="yes"/>
      <point x="95.25" y="995" type="line"/>
    </contour>
  </outline>
  <guideline angle="82.9991" x="657" y="0"/>
</glyph>
<glyph name="x" format="2">
  <advance width="872"/>
  <unicode hex="0078"/>
  <anchor x="358.5" y="-70" name="bottom"/>
  <anchor x="716.25" y="70.5" name="hook"/>
  <anchor x="495.5" y="1120" name="top"/>
  <outline>
    <contour>
      <point x="379.75" y="515.5" type="line"/>
      <point x="473.75" y="515.5" type="line"/>
      <point x="229.75" y="979.5" type="line" smooth="yes"/>
      <point x="223.75" y="991"/>
      <point x="217.25" y="995" name="n04"/>
      <point x="199.75" y="995" type="curve" smooth="yes"/>
      <point x="119.75" y="995" type="line"/>
    </contour>
    <contour>
      <point x="853.75" y="995" type="line"/>
      <point x="769.75" y="995" type="line" smooth="yes"/>
      <point x="758.25" y="995"/>
      <point x="750.25" y="990"/>
      <point x="742.75" y="978" type="curve"/>
      <point x="455.25" y="608.5" type="line"/>
      <point x="432.75" y="577.5"/>
      <point x="426.75" y="551.5"/>
      <point x="421.25" y="515.5" type="curve"/>
      <point x="476.75" y="515.5" type="line"/>
    </contour>
    <contour>
      <point x="479.75" y="547.5" type="line"/>
      <point x="385.25" y="547.5" type="line"/>
      <point x="654.75" y="21.5" type="line"/>
      <point x="660.75" y="8"/>
      <point x="670.75" y="0" name="n21"/>
      <point x="688.25" y="0" type="curve" smooth="yes"/>
      <point x="768.25" y="0" type="line"/>
    </contour>
    <contour>
      <point x="-43.25" y="0" type="line"/>
      <point x="37.25" y="0" type="line" smooth="yes"/>
      <point x="52.75" y="0"/>
      <point x="61.75" y="8.5"/>
      <point x="71.25" y="20" type="curve"/>
      <point x="405.25" y="451.5" type="line"/>
      <point x="424.25" y="477.5"/>
      <point x="431.75" y="510"/>
      <point x="438.75" y="547.5" type="curve"/>
      <point x="382.75" y="547.5" type="line"/>
    </contour>
  </outline>
  <guideline angle="82.9991" x="391" y="0"/>
</glyph>
<glyph name="y" format="2">
  <advance width="928.75"/>
  <unicode hex="0079"/>
  <guideline x="451.5" y="0.0" angle="82.9991"/>
  <anchor x="549.25" y="1120.0" name="top"/>
  <anchor x="293.5" y="-421.0" name="bottom"/>
  <outline>
    <contour>
      <point x="363.75" y="6.0" type="line"/>
      <point x="412.75" y="6.0" type="line"/>
      <point x="415.25" y="71.5"/>
      <point x="416.25" y="135.5"/>
      <point x="402.25" y="196.5" type="curve" smooth="yes"/>
      <point x="192.25" y="970.5" type="line"/>
      <point x="188.75" y="985.5"/>
      <point x="180.75" y="995.0"/>
      <point x="162.25" y="995.0" type="curve" smooth="yes"/>
      <point x="87.75" y="995.0" type="line"/>
    </contour>
    <contour>
      <point x="944.25" y="995.0" type="line"/>
      <point x="871.25" y="995.0" type="line" smooth="yes"/>
      <point x="858.75" y="995.0"/>
      <point x="845.75" y="987.5"/>
      <point x="838.75" y="973.5" type="curve" smooth="yes"/>
      <point x="438.25" y="197.0" type="line" smooth="yes"/>
      <point x="419.25" y="156.5"/>
      <point x="400.25" y="114.0"/>
      <point x="391.25" y="73.0" type="curve"/>
      <point x="370.25" y="64.5" type="line"/>
      <point x="145.25" y="-352.0" type="line"/>
      <point x="212.25" y="-352.0" type="line" smooth="yes"/>
      <point x="230.75" y="-352.0"/>
      <point x="242.75" y="-344.0"/>
      <point x="252.75" y="-324.5" type="curve" smooth="yes"/>
    </contour>
  </outline>
</glyph>
<glyph name="z" format="2">
  <advance width="827.25"/>
  <unicode hex="007A"/>
  <guideline x="419.0" y="0.0" angle="82.9991"/>
  <anchor x="492.0" y="1120.0" name="top"/>
  <anchor x="330.0" y="-70.0" name="bottom"/>
  <anchor x="639.5" y="70.5" name="hook"/>
  <outline>
    <contour>
      <point x="808.5" y="995.0" type="line"/>
      <point x="142.0" y="995.0" type="line"/>
      <point x="132.0" y="920.0" type="line"/>
      <point x="716.5" y="920.0" type="line"/>
      <point x="694.5" y="931.0" type="line"/>
      <point x="12.5" y="74.5" type="line"/>
      <point x="2.5" y="63.0"/>
      <point x="-5.5" y="48.5"/>
      <point x="-6.0" y="37.5" type="curve" smooth="yes"/>
      <point x="-10.0" y="0.0" type="line"/>
      <point x="664.0" y="0.0" type="line"/>
      <point x="672.5" y="75.0" type="line"/>
      <point x="79.5" y="75.0" type="line"/>
      <point x="102.5" y="61.0" type="line"/>
      <point x="784.5" y="917.0" type="line"/>
      <point x="794.75" y="928.75"/>
      <point x="802.0" y="941.0"/>
      <point x="803.0" y="955.0" type="curve"/>
    </contour>
  </outline>
</glyph>
<glyph name="braceleft" format="2">
  <advance width="554.25"/>
  <unicode hex="007B"/>
  <guideline y="630.25"/>
  <guideline x="276.0" y="0.0" angle="82.9991"/>
  <outline>
    <contour>
      <point x="255.75" y="891.0" type="curve" smooth="yes"/>
      <point x="255.75" y="732.5"/>
      <point x="187.75" y="656.0"/>
      <point x="89.75" y="656.0" type="curve"/>
      <point x="82.75" y="597.5" type="line"/>
      <point x="133.25" y="622.0" type="line"/>
      <point x="220.25" y="622.0"/>
      <point x="329.75" y="696.5"/>
      <point x="333.75" y="859.5" type="curve" smooth="yes"/>
      <point x="337.25" y="958.5"/>
      <point x="321.25" y="1076.0"/>
      <point x="325.75" y="1185.0" type="curve" smooth="yes"/>
      <point x="328.75" y="1359.0"/>
      <point x="419.25" y="1454.0"/>
      <point x="532.75" y="1454.0" type="curve" smooth="yes"/>
      <point x="562.25" y="1454.0" type="line"/>
      <point x="573.25" y="1454.0"/>
      <point x="587.25" y="1461.0"/>
      <point x="589.75" y="1476.0" type="curve"/>
      <point x="593.75" y="1516.0" type="line"/>
      <point x="543.25" y="1516.0" type="line" smooth="yes"/>
      <point x="359.75" y="1516.0"/>
      <point x="241.75" y="1376.0"/>
      <point x="241.75" y="1150.5" type="curve" smooth="yes"/>
      <point x="241.75" y="1071.5"/>
      <point x="255.75" y="969.5"/>
    </contour>
    <contour>
      <point x="208.25" y="467.5" type="curve"/>
      <point x="208.25" y="302.0"/>
      <point x="95.75" y="163.0"/>
      <point x="95.75" y="-19.0" type="curve" smooth="yes"/>
      <point x="95.75" y="-157.0"/>
      <point x="176.75" y="-262.5"/>
      <point x="324.75" y="-262.5" type="curve" smooth="yes"/>
      <point x="375.75" y="-262.5" type="line"/>
      <point x="381.25" y="-223.0" type="line"/>
      <point x="382.75" y="-208.0"/>
      <point x="370.25" y="-200.5"/>
      <point x="360.25" y="-200.5" type="curve" smooth="yes"/>
      <point x="329.25" y="-200.5" type="line" smooth="yes"/>
      <point x="236.75" y="-200.5"/>
      <point x="177.25" y="-127.5"/>
      <point x="177.25" y="-19.0" type="curve" smooth="yes"/>
      <point x="177.25" y="155.0"/>
      <point x="285.75" y="305.0"/>
      <point x="285.75" y="467.5" type="curve" smooth="yes"/>
      <point x="285.75" y="569.0"/>
      <point x="211.25" y="631.0"/>
      <point x="134.25" y="631.0" type="curve"/>
      <point x="89.75" y="656.0" type="line"/>
      <point x="82.75" y="597.5" type="line"/>
      <point x="159.25" y="597.5"/>
      <point x="208.25" y="543.5"/>
    </contour>
  </outline>
</glyph>
<glyph name="bar" format="2">
  <advance width="490"/>
  <unicode hex="007C"/>
  <outline>
    <contour>
      <point x="205.5" y="-352" type="line" name="n00"/>
      <point x="280.5" y="-352" type="line"/>
      <point x="280.5" y="1516.5" type="line" name="n02"/>
      <point x="205.5" y="1516.5" type="line"/>
    </contour>
  </outline>
  <guideline angle="82.9991" x="300" y="0"/>
</glyph>
<glyph name="braceright" format="2">
  <advance width="555.5"/>
  <unicode hex="007D"/>
  <guideline y="630.25"/>
  <guideline x="276.0" y="0.0" angle="82.9991"/>
  <outline>
    <contour>
      <point x="355.0" y="786.0" type="curve"/>
      <point x="355.0" y="951.0"/>
      <point x="465.5" y="1090.5"/>
      <point x="465.5" y="1272.0" type="curve" smooth="yes"/>
      <point x="465.5" y="1410.5"/>
      <point x="384.5" y="1516.0"/>
      <point x="237.0" y="1516.0" type="curve" smooth="yes"/>
      <point x="186.0" y="1516.0" type="line"/>
      <point x="182.0" y="1476.0" type="line"/>
      <point x="179.0" y="1461.0"/>
      <point x="191.5" y="1454.0"/>
      <point x="203.0" y="1454.0" type="curve" smooth="yes"/>
      <point x="232.5" y="1454.0" type="line" smooth="yes"/>
      <point x="325.0" y="1454.0"/>
      <point x="384.5" y="1381.0"/>
      <point x="384.5" y="1272.5" type="curve" smooth="yes"/>
      <point x="384.5" y="1098.5"/>
      <point x="275.5" y="948.0"/>
      <point x="275.5" y="786.0" type="curve" smooth="yes"/>
      <point x="275.5" y="684.0"/>
      <point x="350.0" y="622.0"/>
      <point x="429.0" y="622.0" type="curve"/>
      <point x="472.0" y="597.5" type="line"/>
      <point x="480.0" y="656.0" type="line"/>
      <point x="402.0" y="656.0"/>
      <point x="355.0" y="710.0"/>
    </contour>
    <contour>
      <point x="306.0" y="362.0" type="curve"/>
      <point x="306.0" y="521.0"/>
      <point x="375.5" y="597.5"/>
      <point x="472.0" y="597.5" type="curve"/>
      <point x="480.0" y="656.0" type="line"/>
      <point x="429.5" y="631.0" type="line"/>
      <point x="341.5" y="631.0"/>
      <point x="233.0" y="556.5"/>
      <point x="229.5" y="393.5" type="curve" smooth="yes"/>
      <point x="226.0" y="295.0"/>
      <point x="240.5" y="177.0"/>
      <point x="236.0" y="68.5" type="curve" smooth="yes"/>
      <point x="233.0" y="-105.5"/>
      <point x="142.5" y="-200.5"/>
      <point x="29.0" y="-200.5" type="curve" smooth="yes"/>
      <point x="-0.5" y="-200.5" type="line" smooth="yes"/>
      <point x="-12.0" y="-200.5"/>
      <point x="-25.5" y="-208.0"/>
      <point x="-26.5" y="-223.0" type="curve"/>
      <point x="-32.5" y="-262.5" type="line"/>
      <point x="18.5" y="-262.5" type="line" smooth="yes"/>
      <point x="201.5" y="-262.5"/>
      <point x="319.5" y="-122.5"/>
      <point x="319.5" y="103.0" type="curve" smooth="yes"/>
      <point x="319.5" y="182.0"/>
      <point x="306.0" y="284.0"/>
    </contour>
  </outline>
</glyph>
<glyph name="asciitilde" format="2">
  <advance width="1160.0"/>
  <unicode hex="007E"/>
  <guideline x="580.0" y="0.0" angle="82.9991"/>
  <outline>
    <contour>
      <point x="779.75" y="567.0" type="curve"/>
      <point x="665.75" y="567.0"/>
      <point x="513.25" y="693.0"/>
      <point x="375.75" y="693.0" type="curve"/>
      <point x="226.25" y="693.0"/>
      <point x="140.25" y="579.5"/>
      <point x="140.25" y="434.5" type="curve"/>
      <point x="217.75" y="434.5" type="line"/>
      <point x="219.25" y="538.0"/>
      <point x="280.75" y="614.0"/>
      <point x="380.75" y="614.0" type="curve" smooth="yes"/>
      <point x="494.75" y="614.0"/>
      <point x="647.25" y="488.0"/>
      <point x="784.75" y="488.0" type="curve"/>
      <point x="934.25" y="488.0"/>
      <point x="1020.25" y="601.5"/>
      <point x="1020.25" y="746.5" type="curve"/>
      <point x="942.75" y="746.5" type="line"/>
      <point x="941.25" y="643.0"/>
      <point x="879.75" y="567.0"/>
    </contour>
  </outline>
</glyph>
<glyph name="exclamdown" format="2">
  <advance width="431"/>
  <unicode hex="00A1"/>
  <outline>
    <contour>
      <point x="73" y="-352.5" type="line" name="n00"/>
      <point x="140.5" y="198" type="line" smooth="yes"/>
      <point x="154.5" y="317"/>
      <point x="168.5" y="404.5"/>
      <point x="190" y="554" type="curve"/>
      <point x="230.5" y="554" type="line"/>
      <point x="216" y="404.5"/>
      <point x="207" y="317"/>
      <point x="192.5" y="198" type="curve" smooth="yes"/>
      <point x="125.5" y="-352.5" type="line"/>
    </contour>
    <contour>
      <point x="158" y="917.5" type="curve" smooth="yes"/>
      <point x="158" y="865.5"/>
      <point x="198" y="825.5"/>
      <point x="250" y="825.5" type="curve" smooth="yes" name="n13"/>
      <point x="301.5" y="825.5"/>
      <point x="343.5" y="865.5"/>
      <point x="343.5" y="917.5" type="curve" smooth="yes"/>
      <point x="343.5" y="969"/>
      <point x="301.5" y="1011"/>
      <point x="250" y="1011" type="curve" smooth="yes" name="n19"/>
      <point x="198" y="1011"/>
      <point x="158" y="969"/>
    </contour>
  </outline>
  <guideline angle="90" x="281" y="0"/>
  <guideline angle="82.9991" x="100" y="0"/>
</glyph>
<glyph name="cent" format="2">
  <advance width="1160.0"/>
  <unicode hex="00A2"/>
  <guideline x="580.0" y="0.0" angle="82.9991"/>
  <outline>
    <contour>
      <point x="1021.25" y="895.5" type="line"/>
      <point x="950.75" y="965.0"/>
      <point x="846.75" y="1010.0"/>
      <point x="706.75" y="1010.0" type="curve" smooth="yes"/>
      <point x="361.25" y="1010.0"/>
      <point x="147.75" y="766.5"/>
      <point x="147.75" y="419.5" type="curve" smooth="yes"/>
      <point x="147.75" y="150.5"/>
      <point x="307.75" y="-13.0"/>
      <point x="557.25" y="-13.0" type="curve" smooth="yes"/>
      <point x="722.75" y="-13.0"/>
      <point x="871.25" y="48.0"/>
      <point x="942.75" y="127.0" type="curve"/>
      <point x="922.25" y="157.0" type="line" smooth="yes"/>
      <point x="918.25" y="162.5"/>
      <point x="913.75" y="166.0"/>
      <point x="904.75" y="166.0" type="curve" smooth="yes"/>
      <point x="875.75" y="166.0"/>
      <point x="791.75" y="58.5"/>
      <point x="576.75" y="58.5" type="curve" smooth="yes"/>
      <point x="367.75" y="58.5"/>
      <point x="239.25" y="194.0"/>
      <point x="239.25" y="424.5" type="curve" smooth="yes"/>
      <point x="239.25" y="738.0"/>
      <point x="412.25" y="938.5"/>
      <point x="700.75" y="938.5" type="curve" smooth="yes"/>
      <point x="885.75" y="938.5"/>
      <point x="944.75" y="853.0"/>
      <point x="970.75" y="853.0" type="curve" smooth="yes"/>
      <point x="981.25" y="853.0"/>
      <point x="986.75" y="857.0"/>
      <point x="994.25" y="864.5" type="curve"/>
    </contour>
    <contour>
      <point x="480.75" y="-253.5" type="line"/>
      <point x="515.75" y="-253.5" type="line" smooth="yes"/>
      <point x="532.75" y="-253.5"/>
      <point x="544.75" y="-240.0"/>
      <point x="548.25" y="-223.0" type="curve"/>
      <point x="799.75" y="1247.5" type="line"/>
      <point x="764.75" y="1247.5" type="line" smooth="yes"/>
      <point x="747.75" y="1247.5"/>
      <point x="735.75" y="1233.5"/>
      <point x="732.25" y="1217.0" type="curve"/>
    </contour>
  </outline>
</glyph>
<glyph name="sterling" format="2">
  <advance width="1160"/>
  <unicode hex="00A3"/>
  <outline>
    <contour>
      <point x="1039.5" y="80.5" type="line"/>
      <point x="248.5" y="80.5" type="line" smooth="yes"/>
      <point x="190" y="80.5"/>
      <point x="135.5" y="69.5"/>
      <point x="74.5" y="51.5" type="curve"/>
      <point x="24.5" y="63.5" type="line" name="n05"/>
      <point x="17" y="0" type="line" name="n06"/>
      <point x="988" y="0" type="line" smooth="yes"/>
      <point x="1013" y="0"/>
      <point x="1033.5" y="22"/>
      <point x="1035.5" y="41.5" type="curve" smooth="yes"/>
    </contour>
    <contour>
      <point x="850.75" y="660.5" type="curve"/>
      <point x="854.25" y="697" type="line"/>
      <point x="109.75" y="697" type="line" smooth="yes" name="n13"/>
      <point x="90.25" y="697"/>
      <point x="78" y="684.5"/>
      <point x="76" y="669.5" type="curve" smooth="yes"/>
      <point x="71.5" y="633" type="line" name="n17"/>
      <point x="816.25" y="633" type="line" smooth="yes"/>
      <point x="835.75" y="633"/>
      <point x="848.25" y="645.5"/>
    </contour>
    <contour>
      <point x="99.5" y="38" type="line"/>
      <point x="223" y="97.5"/>
      <point x="285.25" y="167"/>
      <point x="303" y="311" type="curve" smooth="yes"/>
      <point x="386" y="994.5" type="line" smooth="yes"/>
      <point x="412" y="1206.5"/>
      <point x="551" y="1352"/>
      <point x="759.5" y="1352" type="curve" smooth="yes" name="n28"/>
      <point x="933.5" y="1352"/>
      <point x="984" y="1273.5"/>
      <point x="1026" y="1187" type="curve"/>
      <point x="1038.5" y="1168"/>
      <point x="1054.5" y="1166.5"/>
      <point x="1074.5" y="1175" type="curve"/>
      <point x="1114.5" y="1196.5" type="line"/>
      <point x="1073" y="1326"/>
      <point x="983" y="1430.5"/>
      <point x="768.5" y="1430.5" type="curve" smooth="yes" name="n38"/>
      <point x="496.5" y="1430.5"/>
      <point x="322" y="1242"/>
      <point x="291.5" y="994" type="curve" smooth="yes"/>
      <point x="205.5" y="290" type="line"/>
      <point x="187.5" y="150"/>
      <point x="122" y="99"/>
      <point x="24.5" y="63.5" type="curve"/>
    </contour>
  </outline>
  <guideline angle="82.9991" x="580" y="0"/>
</glyph>
<glyph name="currency" format="2">
  <advance width="1160"/>
  <unicode hex="00A4"/>
  <outline>
    <contour>
      <point x="239" y="671" type="curve" smooth="yes"/>
      <point x="239" y="481.5"/>
      <point x="392" y="328.5"/>
      <point x="581.5" y="328.5" type="curve" smooth="yes" name="n03"/>
      <point x="772" y="328.5"/>
      <point x="925.5" y="481.5"/>
      <point x="925.5" y="671" type="curve" smooth="yes"/>
      <point x="925.5" y="862"/>
      <point x="772" y="1015"/>
      <point x="581.5" y="1015" type="curve" smooth="yes" name="n09"/>
      <point x="392" y="1015"/>
      <point x="239" y="862"/>
    </contour>
    <contour>
      <point x="311" y="671" type="curve" smooth="yes"/>
      <point x="311" y="821.5"/>
      <point x="433" y="943.5"/>
      <point x="581.5" y="943.5" type="curve" smooth="yes" name="n15"/>
      <point x="732" y="943.5"/>
      <point x="854" y="821.5"/>
      <point x="854" y="671" type="curve" smooth="yes"/>
      <point x="854" y="523"/>
      <point x="732" y="400.5"/>
      <point x="581.5" y="400.5" type="curve" smooth="yes" name="n21"/>
      <point x="433" y="400.5"/>
      <point x="311" y="523"/>
    </contour>
    <contour>
      <point x="340" y="862" type="line"/>
      <point x="389.5" y="911" type="line"/>
      <point x="210" y="1090.5" type="line" name="n26"/>
      <point x="160.5" y="1041.5" type="line"/>
    </contour>
    <contour>
      <point x="772.5" y="912.5" type="line"/>
      <point x="821.5" y="863" type="line"/>
      <point x="1001" y="1042.5" type="line"/>
      <point x="952" y="1092" type="line"/>
    </contour>
    <contour>
      <point x="391" y="429.5" type="line"/>
      <point x="341.5" y="479" type="line"/>
      <point x="162" y="299.5" type="line"/>
      <point x="211" y="250" type="line" name="n35"/>
    </contour>
    <contour>
      <point x="823" y="480.5" type="line"/>
      <point x="773.5" y="431" type="line"/>
      <point x="953" y="251.5" type="line"/>
      <point x="1002.5" y="301" type="line"/>
    </contour>
  </outline>
  <guideline angle="82.9991" x="580" y="0"/>
</glyph>
<glyph name="yen" format="2">
  <advance width="1160.0"/>
  <unicode hex="00A5"/>
  <guideline x="580.0" y="0.0" angle="82.9991"/>
  <outline>
    <contour>
      <point x="1164.5" y="1414.5" type="line"/>
      <point x="1086.5" y="1414.5" type="line" smooth="yes"/>
      <point x="1068.5" y="1414.5"/>
      <point x="1055.5" y="1404.0"/>
      <point x="1046.0" y="1390.0" type="curve"/>
      <point x="616.0" y="721.5" type="line"/>
      <point x="587.5" y="669.5"/>
      <point x="575.0" y="635.5"/>
      <point x="561.0" y="575.5" type="curve"/>
      <point x="616.5" y="575.5" type="line"/>
    </contour>
    <contour>
      <point x="528.0" y="575.5" type="line"/>
      <point x="586.0" y="575.5" type="line"/>
      <point x="588.5" y="636.0"/>
      <point x="581.0" y="669.0"/>
      <point x="565.0" y="721.5" type="curve"/>
      <point x="298.5" y="1390.0" type="line"/>
      <point x="294.0" y="1405.5"/>
      <point x="283.0" y="1414.5"/>
      <point x="265.0" y="1414.5" type="curve" smooth="yes"/>
      <point x="187.5" y="1414.5" type="line"/>
    </contour>
    <contour>
      <point x="623.0" y="608.5" type="line"/>
      <point x="530.0" y="608.5" type="line"/>
      <point x="456.0" y="0.0" type="line"/>
      <point x="548.5" y="0.0" type="line"/>
    </contour>
    <contour>
      <point x="136.0" y="385.0" type="line"/>
      <point x="962.5" y="385.0" type="line"/>
      <point x="969.0" y="441.5" type="line"/>
      <point x="143.0" y="441.5" type="line"/>
    </contour>
    <contour>
      <point x="157.5" y="559.0" type="line"/>
      <point x="984.0" y="559.0" type="line"/>
      <point x="990.5" y="615.5" type="line"/>
      <point x="164.0" y="615.5" type="line"/>
    </contour>
  </outline>
</glyph>
<glyph name="brokenbar" format="2">
  <advance width="490.25"/>
  <unicode hex="00A6"/>
  <guideline x="300.0" y="0.0" angle="82.9991"/>
  <outline>
    <contour>
      <point x="205.25" y="739.5" type="line"/>
      <point x="280.25" y="739.5" type="line"/>
      <point x="280.25" y="1516.5" type="line"/>
      <point x="205.25" y="1516.5" type="line"/>
    </contour>
    <contour>
      <point x="205.25" y="-352.0" type="line"/>
      <point x="280.25" y="-352.0" type="line"/>
      <point x="280.25" y="425.0" type="line"/>
      <point x="205.25" y="425.0" type="line"/>
    </contour>
  </outline>
</glyph>
<glyph name="section" format="2">
  <advance width="904"/>
  <unicode hex="00A7"/>
  <outline>
    <contour>
      <point x="413" y="973.5" type="line"/>
      <point x="205.5" y="926.5"/>
      <point x="122.5" y="817.5"/>
      <point x="122.5" y="687.5" type="curve" smooth="yes"/>
      <point x="122.5" y="402"/>
      <point x="615" y="426"/>
      <point x="615" y="181.5" type="curve" smooth="yes"/>
      <point x="615" y="47.5"/>
      <point x="517" y="-63.5"/>
      <point x="351" y="-63.5" type="curve" smooth="yes" name="n09"/>
      <point x="185.5" y="-63.5"/>
      <point x="147" y="37.5" name="n11"/>
      <point x="113.5" y="37.5" type="curve" smooth="yes"/>
      <point x="99.5" y="37.5"/>
      <point x="92" y="32.5"/>
      <point x="84.5" y="22.5" type="curve" smooth="yes"/>
      <point x="59" y="-11" type="line"/>
      <point x="123" y="-83"/>
      <point x="208" y="-131"/>
      <point x="336.5" y="-131" type="curve" smooth="yes" name="n19"/>
      <point x="562" y="-131"/>
      <point x="698.5" y="21.5"/>
      <point x="698.5" y="202.5" type="curve" smooth="yes"/>
      <point x="698.5" y="487.5"/>
      <point x="207" y="479.5"/>
      <point x="207" y="709.5" type="curve" smooth="yes"/>
      <point x="207" y="802.5"/>
      <point x="259" y="873.5"/>
      <point x="411.5" y="933" type="curve"/>
    </contour>
    <contour>
      <point x="837" y="1324.5" type="line"/>
      <point x="774" y="1394.5"/>
      <point x="692.5" y="1430"/>
      <point x="582.5" y="1430" type="curve" smooth="yes" name="n32"/>
      <point x="380.5" y="1430"/>
      <point x="242" y="1289.5"/>
      <point x="242" y="1132" type="curve" smooth="yes"/>
      <point x="242" y="847.5"/>
      <point x="711.5" y="879"/>
      <point x="711.5" y="625.5" type="curve" smooth="yes"/>
      <point x="711.5" y="526"/>
      <point x="662.5" y="448.5"/>
      <point x="535.5" y="399" type="curve"/>
      <point x="535" y="357.5" type="line"/>
      <point x="707" y="398.5"/>
      <point x="795.5" y="504.5"/>
      <point x="795.5" y="650.5" type="curve" smooth="yes"/>
      <point x="795.5" y="941.5"/>
      <point x="325.5" y="929"/>
      <point x="325.5" y="1147" type="curve" smooth="yes"/>
      <point x="325.5" y="1260"/>
      <point x="429.5" y="1360"/>
      <point x="574" y="1360" type="curve" smooth="yes" name="n51"/>
      <point x="720" y="1360"/>
      <point x="762" y="1279"/>
      <point x="791" y="1279" type="curve" smooth="yes"/>
      <point x="800.5" y="1279"/>
      <point x="808" y="1283"/>
      <point x="814" y="1292.5" type="curve"/>
    </contour>
  </outline>
  <guideline angle="82.9991" x="459" y="0"/>
</glyph>
<glyph name="dieresis" format="2">
  <advance width="736"/>
  <unicode hex="00A8"/>
  <anchor x="420" y="1120" name="_top"/>
  <anchor x="432.5" y="1414.25" name="top"/>
  <outline>
    <contour>
      <point x="433.5" y="1284" type="curve" smooth="yes"/>
      <point x="433.5" y="1329"/>
      <point x="394" y="1367"/>
      <point x="350.5" y="1367" type="curve" smooth="yes" name="n03"/>
      <point x="307" y="1367"/>
      <point x="269" y="1329"/>
      <point x="269" y="1284" type="curve" smooth="yes"/>
      <point x="269" y="1241"/>
      <point x="307" y="1204"/>
      <point x="350.5" y="1204" type="curve" smooth="yes" name="n09"/>
      <point x="394" y="1204"/>
      <point x="433.5" y="1241"/>
    </contour>
    <contour>
      <point x="766" y="1284" type="curve" smooth="yes"/>
      <point x="766" y="1329"/>
      <point x="727" y="1367"/>
      <point x="683.5" y="1367" type="curve" smooth="yes"/>
      <point x="639" y="1367"/>
      <point x="601.5" y="1329"/>
      <point x="601.5" y="1284" type="curve" smooth="yes"/>
      <point x="601.5" y="1241"/>
      <point x="639" y="1204"/>
      <point x="683.5" y="1204" type="curve" smooth="yes"/>
      <point x="727" y="1204"/>
      <point x="766" y="1241"/>
    </contour>
  </outline>
  <guideline angle="82.9991" x="368" y="0"/>
</glyph>
<glyph name="copyright" format="2">
  <advance width="1677.0"/>
  <unicode hex="00A9"/>
  <guideline x="784.25" y="0.0" angle="82.9991"/>
  <outline>
    <contour>
      <point x="1143.0" y="425.5" type="curve"/>
      <point x="1068.5" y="373.0"/>
      <point x="1008.5" y="331.0"/>
      <point x="863.0" y="331.0" type="curve" smooth="yes"/>
      <point x="659.5" y="331.0"/>
      <point x="510.0" y="470.0"/>
      <point x="510.0" y="708.5" type="curve" smooth="yes"/>
      <point x="510.0" y="941.5"/>
      <point x="658.0" y="1087.5"/>
      <point x="879.0" y="1087.5" type="curve" smooth="yes"/>
      <point x="1060.0" y="1087.5"/>
      <point x="1113.5" y="1004.5"/>
      <point x="1139.0" y="1004.5" type="curve" smooth="yes"/>
      <point x="1148.5" y="1004.5"/>
      <point x="1155.5" y="1009.0"/>
      <point x="1159.5" y="1015.0" type="curve"/>
      <point x="1183.0" y="1048.0" type="line"/>
      <point x="1101.5" y="1119.0"/>
      <point x="1015.0" y="1160.0"/>
      <point x="875.0" y="1160.0" type="curve" smooth="yes"/>
      <point x="611.0" y="1160.0"/>
      <point x="423.5" y="976.0"/>
      <point x="423.5" y="708.5" type="curve" smooth="yes"/>
      <point x="423.5" y="438.0"/>
      <point x="602.5" y="258.0"/>
      <point x="859.0" y="258.0" type="curve" smooth="yes"/>
      <point x="1014.0" y="258.0"/>
      <point x="1116.0" y="308.5"/>
      <point x="1194.0" y="386.5" type="curve"/>
      <point x="1159.5" y="421.5" type="line"/>
      <point x="1155.5" y="424.5"/>
      <point x="1150.0" y="427.0"/>
    </contour>
    <contour>
      <point x="130.0" y="707.5" type="curve" smooth="yes"/>
      <point x="130.0" y="309.5"/>
      <point x="453.5" y="-14.0"/>
      <point x="851.5" y="-14.0" type="curve" smooth="yes"/>
      <point x="1250.0" y="-14.0"/>
      <point x="1573.5" y="309.5"/>
      <point x="1573.5" y="707.5" type="curve" smooth="yes"/>
      <point x="1573.5" y="1106.0"/>
      <point x="1250.0" y="1429.5"/>
      <point x="851.5" y="1429.5" type="curve" smooth="yes"/>
      <point x="453.5" y="1429.5"/>
      <point x="130.0" y="1106.0"/>
    </contour>
    <contour>
      <point x="189.5" y="707.5" type="curve" smooth="yes"/>
      <point x="189.5" y="1078.5"/>
      <point x="483.5" y="1377.5"/>
      <point x="851.5" y="1377.5" type="curve" smooth="yes"/>
      <point x="1220.0" y="1377.5"/>
      <point x="1516.5" y="1078.5"/>
      <point x="1516.5" y="707.5" type="curve" smooth="yes"/>
      <point x="1516.5" y="337.0"/>
      <point x="1220.0" y="40.5"/>
      <point x="851.5" y="40.5" type="curve" smooth="yes"/>
      <point x="483.5" y="40.5"/>
      <point x="189.5" y="337.0"/>
    </contour>
  </outline>
</glyph>
<glyph name="ordfeminine" format="2">
  <advance width="683"/>
  <unicode hex="00AA"/>
  <anchor x="328" y="-70" name="bottom"/>
  <outline>
    <contour>
      <point x="450.5" y="1429" type="curve" smooth="yes" name="n00"/>
      <point x="368" y="1429"/>
      <point x="299" y="1399"/>
      <point x="233.5" y="1336.5" type="curve"/>
      <point x="242.5" y="1314.5" type="line"/>
      <point x="246.5" y="1308"/>
      <point x="252" y="1301.5"/>
      <point x="262.5" y="1301.5" type="curve" smooth="yes"/>
      <point x="290" y="1301.5"/>
      <point x="332" y="1371"/>
      <point x="435.5" y="1371" type="curve" smooth="yes" name="n10"/>
      <point x="521.5" y="1371"/>
      <point x="556.5" y="1317"/>
      <point x="544.5" y="1215" type="curve"/>
      <point x="613" y="1215" type="line"/>
      <point x="628.5" y="1327"/>
      <point x="577.5" y="1429"/>
    </contour>
    <contour>
      <point x="566.5" y="839" type="line"/>
      <point x="613" y="1215" type="line"/>
      <point x="544.5" y="1215" type="line"/>
      <point x="513" y="949.5" type="line"/>
      <point x="513" y="857" type="line"/>
      <point x="518" y="842.5"/>
      <point x="521.5" y="839"/>
      <point x="535.5" y="839" type="curve" smooth="yes"/>
    </contour>
    <contour>
      <point x="530" y="941" type="curve"/>
      <point x="530" y="941"/>
      <point x="525" y="984"/>
      <point x="525" y="984" type="curve"/>
      <point x="465" y="926"/>
      <point x="407" y="881"/>
      <point x="320.5" y="881" type="curve" smooth="yes" name="n31"/>
      <point x="269.5" y="881"/>
      <point x="226" y="907"/>
      <point x="226" y="968" type="curve" smooth="yes"/>
      <point x="226" y="1058"/>
      <point x="321.5" y="1109.5"/>
      <point x="542" y="1115.5" type="curve" name="n37"/>
      <point x="540" y="1163" type="line" name="n38"/>
      <point x="264" y="1158"/>
      <point x="158" y="1069.5"/>
      <point x="158" y="958.5" type="curve" smooth="yes"/>
      <point x="158" y="870.5"/>
      <point x="220.5" y="829.5"/>
      <point x="295.5" y="829.5" type="curve" smooth="yes" name="n44"/>
      <point x="391" y="829.5"/>
      <point x="453.5" y="870.5"/>
    </contour>
  </outline>
  <guideline angle="82.9991" x="304" y="0"/>
</glyph>
<glyph name="logicalnot" format="2">
  <advance width="1160.0"/>
  <unicode hex="00AC"/>
  <guideline x="580.0" y="0.0" angle="82.9991"/>
  <outline>
    <contour>
      <point x="171.5" y="635.0" type="line"/>
      <point x="999.0" y="635.0" type="line"/>
      <point x="1007.5" y="706.0" type="line"/>
      <point x="179.5" y="706.0" type="line"/>
    </contour>
    <contour>
      <point x="882.5" y="340.5" type="line"/>
      <point x="962.0" y="340.5" type="line"/>
      <point x="1007.5" y="706.0" type="line"/>
      <point x="928.0" y="706.0" type="line"/>
    </contour>
  </outline>
</glyph>
<glyph name="registered" format="2">
  <advance width="1677.0"/>
  <unicode hex="00AE"/>
  <guideline x="784.25" y="0.0" angle="82.9991"/>
  <outline>
    <contour>
      <point x="779.0" y="657.5" type="line" smooth="yes"/>
      <point x="815.5" y="657.5"/>
      <point x="829.0" y="648.0"/>
      <point x="839.0" y="633.0" type="curve" smooth="yes"/>
      <point x="1109.5" y="281.5" type="line"/>
      <point x="1117.5" y="269.0"/>
      <point x="1127.0" y="265.5"/>
      <point x="1140.5" y="265.5" type="curve" smooth="yes"/>
      <point x="1220.0" y="265.5" type="line"/>
      <point x="935.0" y="634.0" type="line" smooth="yes"/>
      <point x="909.0" y="673.0"/>
      <point x="884.0" y="690.0"/>
      <point x="822.5" y="690.0" type="curve"/>
      <point x="804.5" y="670.0" type="line"/>
      <point x="827.0" y="670.0" type="line" smooth="yes"/>
      <point x="1023.5" y="670.0"/>
      <point x="1141.0" y="768.5"/>
      <point x="1141.0" y="918.5" type="curve" smooth="yes"/>
      <point x="1141.0" y="1074.0"/>
      <point x="1034.5" y="1151.0"/>
      <point x="831.0" y="1151.0" type="curve" smooth="yes"/>
      <point x="584.0" y="1151.0" type="line"/>
      <point x="584.0" y="265.5" type="line"/>
      <point x="669.0" y="265.5" type="line"/>
      <point x="669.0" y="1085.0" type="line"/>
      <point x="831.0" y="1085.0" type="line" smooth="yes"/>
      <point x="988.5" y="1085.0"/>
      <point x="1057.0" y="1031.0"/>
      <point x="1057.0" y="909.5" type="curve" smooth="yes"/>
      <point x="1057.0" y="788.5"/>
      <point x="978.0" y="720.5"/>
      <point x="817.0" y="720.5" type="curve" smooth="yes"/>
      <point x="639.5" y="720.5" type="line"/>
      <point x="637.5" y="657.5" type="line"/>
    </contour>
    <contour>
      <point x="130.0" y="707.5" type="curve" smooth="yes"/>
      <point x="130.0" y="309.5"/>
      <point x="453.5" y="-14.0"/>
      <point x="851.5" y="-14.0" type="curve" smooth="yes"/>
      <point x="1250.0" y="-14.0"/>
      <point x="1573.5" y="309.5"/>
      <point x="1573.5" y="707.5" type="curve" smooth="yes"/>
      <point x="1573.5" y="1106.0"/>
      <point x="1250.0" y="1429.5"/>
      <point x="851.5" y="1429.5" type="curve" smooth="yes"/>
      <point x="453.5" y="1429.5"/>
      <point x="130.0" y="1106.0"/>
    </contour>
    <contour>
      <point x="189.5" y="707.5" type="curve" smooth="yes"/>
      <point x="189.5" y="1078.5"/>
      <point x="483.5" y="1377.5"/>
      <point x="851.5" y="1377.5" type="curve" smooth="yes"/>
      <point x="1220.0" y="1377.5"/>
      <point x="1516.5" y="1078.5"/>
      <point x="1516.5" y="707.5" type="curve" smooth="yes"/>
      <point x="1516.5" y="337.0"/>
      <point x="1220.0" y="40.5"/>
      <point x="851.5" y="40.5" type="curve" smooth="yes"/>
      <point x="483.5" y="40.5"/>
      <point x="189.5" y="337.0"/>
    </contour>
  </outline>
</glyph>
<glyph name="macron" format="2">
  <advance width="736"/>
  <unicode hex="00AF"/>
  <unicode hex="02C9"/>
  <anchor x="400" y="1120" name="_top"/>
  <outline>
    <contour>
      <point x="257.75" y="1252" type="line" name="n00"/>
      <point x="759.5" y="1252" type="line"/>
      <point x="767.5" y="1316.5" type="line"/>
      <point x="265.5" y="1316.5" type="line" name="n03"/>
    </contour>
  </outline>
  <guideline angle="82.9991" x="368" y="0"/>
</glyph>
<glyph name="degree" format="2">
  <advance width="814.25"/>
  <unicode hex="00B0"/>
  <guideline x="379.75" y="0.0" angle="82.9991"/>
  <outline>
    <contour>
      <point x="169.0" y="1134.5" type="curve" smooth="yes"/>
      <point x="169.0" y="970.5"/>
      <point x="304.5" y="836.5"/>
      <point x="468.5" y="836.5" type="curve" smooth="yes"/>
      <point x="637.0" y="836.5"/>
      <point x="770.0" y="970.5"/>
      <point x="770.0" y="1134.5" type="curve" smooth="yes"/>
      <point x="770.0" y="1300.0"/>
      <point x="637.0" y="1431.5"/>
      <point x="468.5" y="1431.5" type="curve" smooth="yes"/>
      <point x="304.5" y="1431.5"/>
      <point x="169.0" y="1300.0"/>
    </contour>
    <contour>
      <point x="237.5" y="1134.0" type="curve" smooth="yes"/>
      <point x="237.5" y="1262.5"/>
      <point x="340.0" y="1365.0"/>
      <point x="468.5" y="1365.0" type="curve" smooth="yes"/>
      <point x="597.0" y="1365.0"/>
      <point x="698.0" y="1262.5"/>
      <point x="698.0" y="1134.0" type="curve" smooth="yes"/>
      <point x="698.0" y="1006.0"/>
      <point x="597.0" y="904.0"/>
      <point x="468.5" y="904.0" type="curve" smooth="yes"/>
      <point x="340.0" y="904.0"/>
      <point x="237.5" y="1006.0"/>
    </contour>
  </outline>
</glyph>
<glyph name="plusminus" format="2">
  <advance width="1160.0"/>
  <unicode hex="00B1"/>
  <guideline x="580.0" y="0.0" angle="82.9991"/>
  <outline>
    <contour>
      <point x="125.0" y="673.5" type="line"/>
      <point x="1063.0" y="673.5" type="line"/>
      <point x="1071.5" y="744.5" type="line"/>
      <point x="133.0" y="744.5" type="line"/>
    </contour>
    <contour>
      <point x="613.0" y="1151.0" type="line"/>
      <point x="505.0" y="270.0" type="line"/>
      <point x="580.5" y="270.0" type="line"/>
      <point x="688.5" y="1151.0" type="line"/>
    </contour>
    <contour>
      <point x="51.5" y="80.0" type="line"/>
      <point x="989.5" y="80.0" type="line"/>
      <point x="998.0" y="151.0" type="line"/>
      <point x="59.5" y="151.0" type="line"/>
    </contour>
  </outline>
</glyph>
<glyph name="acute" format="2">
  <advance width="736.0"/>
  <unicode hex="00B4"/>
  <guideline x="368.0" y="0.0" angle="82.9991"/>
  <anchor x="400.0" y="1120.0" name="_top"/>
  <outline>
    <contour>
      <point x="649.25" y="1431.0" type="line" smooth="yes"/>
      <point x="620.0" y="1431.0"/>
      <point x="607.25" y="1422.5"/>
      <point x="591.25" y="1399.0" type="curve" smooth="yes"/>
      <point x="420.5" y="1160.5" type="line"/>
      <point x="473.0" y="1160.5" type="line" smooth="yes"/>
      <point x="487.25" y="1160.5"/>
      <point x="497.5" y="1165.0"/>
      <point x="508.25" y="1177.5" type="curve"/>
      <point x="736.25" y="1431.0" type="line"/>
    </contour>
  </outline>
</glyph>
<glyph name="micro" format="2">
  <advance width="1186.75"/>
  <unicode hex="00B5"/>
  <guideline x="546.25" y="0.0" angle="82.9991"/>
  <anchor x="620.5" y="1120.0" name="top"/>
  <anchor x="522.0" y="-421.0" name="bottom"/>
  <outline>
    <contour>
      <point x="247.75" y="995.0" type="line"/>
      <point x="86.75" y="-310.5" type="line"/>
      <point x="84.25" y="-336.0"/>
      <point x="97.5" y="-352.0"/>
      <point x="125.0" y="-352.0" type="curve" smooth="yes"/>
      <point x="172.5" y="-352.0" type="line"/>
      <point x="212.5" y="-24.0" type="line" smooth="yes"/>
      <point x="221.75" y="49.5"/>
      <point x="230.5" y="154.5"/>
      <point x="225.5" y="223.0" type="curve"/>
      <point x="251.75" y="251.0" type="line"/>
      <point x="343.25" y="995.0" type="line"/>
    </contour>
    <contour>
      <point x="210.0" y="374.0" type="line"/>
      <point x="180.25" y="135.0"/>
      <point x="251.75" y="-6.0"/>
      <point x="449.25" y="-6.0" type="curve" smooth="yes"/>
      <point x="592.25" y="-6.0"/>
      <point x="723.0" y="88.75"/>
      <point x="822.0" y="241.0" type="curve"/>
      <point x="802.0" y="301.0" type="line"/>
      <point x="712.25" y="158.0"/>
      <point x="595.5" y="72.5"/>
      <point x="464.25" y="72.5" type="curve" smooth="yes"/>
      <point x="305.75" y="72.5"/>
      <point x="243.75" y="186.5"/>
      <point x="266.25" y="374.0" type="curve"/>
    </contour>
    <contour>
      <point x="786.0" y="250.0" type="line"/>
      <point x="794.0" y="238.25" type="line"/>
      <point x="773.0" y="65.0"/>
      <point x="861.5" y="-8.75"/>
      <point x="973.0" y="-8.75" type="curve" smooth="yes"/>
      <point x="1023.0" y="-8.75"/>
      <point x="1051.75" y="8.0"/>
      <point x="1054.25" y="25.0" type="curve"/>
      <point x="1058.75" y="63.5" type="line"/>
      <point x="1018.5" y="63.5" type="line" smooth="yes"/>
      <point x="924.0" y="63.5"/>
      <point x="865.5" y="117.0"/>
      <point x="880.5" y="238.0" type="curve" smooth="yes"/>
      <point x="973.5" y="995.0" type="line"/>
      <point x="878.0" y="995.0" type="line"/>
    </contour>
  </outline>
</glyph>
<glyph name="paragraph" format="2">
  <advance width="1301"/>
  <unicode hex="00B6"/>
  <outline>
    <contour>
      <point x="694.25" y="1415" type="line"/>
      <point x="608.75" y="1415" type="line"/>
      <point x="411.75" y="-189.5" type="line" name="n02"/>
      <point x="497.25" y="-189.5" type="line"/>
    </contour>
    <contour>
      <point x="608.75" y="1415" type="line" smooth="yes"/>
      <point x="314.25" y="1415"/>
      <point x="121.75" y="1250.5"/>
      <point x="121.75" y="1021" type="curve" smooth="yes"/>
      <point x="121.75" y="822"/>
      <point x="277.75" y="699"/>
      <point x="521.25" y="699" type="curve"/>
      <point x="625.75" y="1333" type="line"/>
      <point x="1323.25" y="1333" type="line" name="n12"/>
      <point x="1332.75" y="1415" type="line" name="n13"/>
    </contour>
    <contour>
      <point x="1107.75" y="1415" type="line"/>
      <point x="1022.25" y="1415" type="line"/>
      <point x="825.25" y="-189.5" type="line"/>
      <point x="910.75" y="-189.5" type="line"/>
    </contour>
  </outline>
  <guideline angle="82.9991" x="600" y="0"/>
</glyph>
<glyph name="periodcentered" format="2">
  <advance width="471.5"/>
  <unicode hex="00B7"/>
  <unicode hex="2219"/>
  <guideline x="266.25" y="0.0" angle="82.9991"/>
  <outline>
    <contour>
      <point x="132.25" y="591.5" type="curve" smooth="yes"/>
      <point x="132.25" y="538.0"/>
      <point x="178.25" y="492.0"/>
      <point x="231.75" y="492.0" type="curve" smooth="yes"/>
      <point x="288.75" y="492.0"/>
      <point x="334.75" y="538.0"/>
      <point x="334.75" y="591.5" type="curve" smooth="yes"/>
      <point x="334.75" y="648.5"/>
      <point x="288.75" y="694.5"/>
      <point x="231.75" y="694.5" type="curve" smooth="yes"/>
      <point x="178.25" y="694.5"/>
      <point x="132.25" y="648.5"/>
    </contour>
  </outline>
</glyph>
<glyph name="cedilla" format="2">
  <advance width="736"/>
  <unicode hex="00B8"/>
  <anchor x="400" y="-70" name="_bottom"/>
  <outline>
    <contour>
      <point x="227.75" y="-276" type="curve" smooth="yes"/>
      <point x="219.75" y="-276"/>
      <point x="215.5" y="-280"/>
      <point x="211" y="-287.5" type="curve"/>
      <point x="197.25" y="-315" type="line"/>
      <point x="226.75" y="-340"/>
      <point x="276.25" y="-357.5"/>
      <point x="325.5" y="-357.5" type="curve" smooth="yes" name="n07"/>
      <point x="433.5" y="-357.5"/>
      <point x="514.5" y="-304.5"/>
      <point x="514.5" y="-214" type="curve" smooth="yes"/>
      <point x="514.5" y="-141.5"/>
      <point x="451.25" y="-107.75"/>
      <point x="334.25" y="-89" type="curve"/>
      <point x="356" y="-108.5" type="line"/>
      <point x="404" y="11.5" type="line" name="n15"/>
      <point x="348.25" y="11.5" type="line"/>
      <point x="287.25" y="-131" type="line"/>
      <point x="375.5" y="-142.5"/>
      <point x="437.5" y="-159.25"/>
      <point x="437.5" y="-219.25" type="curve" smooth="yes"/>
      <point x="437.5" y="-274.25"/>
      <point x="397.25" y="-310.5"/>
      <point x="329.75" y="-310.5" type="curve" smooth="yes" name="n23"/>
      <point x="261.75" y="-310.5"/>
      <point x="240.75" y="-276"/>
    </contour>
  </outline>
  <guideline angle="82.9991" x="368" y="0"/>
</glyph>
<glyph name="ordmasculine" format="2">
  <advance width="752.5"/>
  <unicode hex="00BA"/>
  <guideline x="344.5" y="0.0" angle="82.9991"/>
  <anchor x="363.25" y="-70.0" name="bottom"/>
  <outline>
    <contour>
      <point x="477.5" y="1428.5" type="curve" smooth="yes"/>
      <point x="291.5" y="1428.5"/>
      <point x="172.0" y="1290.0"/>
      <point x="172.0" y="1079.0" type="curve" smooth="yes"/>
      <point x="172.0" y="926.0"/>
      <point x="256.0" y="827.0"/>
      <point x="404.0" y="827.0" type="curve" smooth="yes"/>
      <point x="588.5" y="827.0"/>
      <point x="707.0" y="964.5"/>
      <point x="707.0" y="1176.0" type="curve" smooth="yes"/>
      <point x="707.0" y="1328.0"/>
      <point x="623.5" y="1428.5"/>
    </contour>
    <contour>
      <point x="411.0" y="883.0" type="curve" smooth="yes"/>
      <point x="299.0" y="883.0"/>
      <point x="245.0" y="960.0"/>
      <point x="245.0" y="1078.0" type="curve" smooth="yes"/>
      <point x="245.0" y="1251.0"/>
      <point x="317.5" y="1372.5"/>
      <point x="471.0" y="1372.5" type="curve" smooth="yes"/>
      <point x="580.0" y="1372.5"/>
      <point x="635.5" y="1294.0"/>
      <point x="635.5" y="1176.0" type="curve" smooth="yes"/>
      <point x="635.5" y="1000.5"/>
      <point x="558.0" y="883.0"/>
    </contour>
  </outline>
</glyph>
<glyph name="questiondown" format="2">
  <advance width="785"/>
  <unicode hex="00BF"/>
  <outline>
    <component base="period" xOffset="314.5" yOffset="841"/>
    <contour>
      <point x="585.25" y="-186.5" type="line" smooth="yes"/>
      <point x="581.25" y="-179"/>
      <point x="576.25" y="-174.5"/>
      <point x="566.75" y="-174.5" type="curve" smooth="yes"/>
      <point x="547.25" y="-174.5"/>
      <point x="462.25" y="-288"/>
      <point x="300.25" y="-288" type="curve" smooth="yes" name="n06"/>
      <point x="190.75" y="-288"/>
      <point x="95.75" y="-213"/>
      <point x="95.75" y="-84" type="curve" smooth="yes"/>
      <point x="95.75" y="200"/>
      <point x="427.25" y="211"/>
      <point x="442.25" y="383" type="curve" smooth="yes"/>
      <point x="457.25" y="554" type="line" name="n13"/>
      <point x="395.75" y="554" type="line"/>
      <point x="363.75" y="390" type="line"/>
      <point x="336.25" y="241"/>
      <point x="3.25" y="229"/>
      <point x="3.25" y="-99.5" type="curve" smooth="yes"/>
      <point x="3.25" y="-263"/>
      <point x="126.25" y="-364"/>
      <point x="284.75" y="-364" type="curve" smooth="yes" name="n21"/>
      <point x="423.75" y="-364"/>
      <point x="528.75" y="-296"/>
      <point x="605.75" y="-224.5" type="curve"/>
    </contour>
  </outline>
  <guideline angle="82.9991" x="320" y="0"/>
</glyph>
<glyph name="multiply" format="2">
  <advance width="1160"/>
  <unicode hex="00D7"/>
  <outline>
    <contour>
      <point x="214.5" y="1039.5" type="line"/>
      <point x="911.5" y="247.5" type="line"/>
      <point x="966" y="297.5" type="line"/>
      <point x="272" y="1091" type="line" name="n03"/>
    </contour>
    <contour>
      <point x="1008" y="1089" type="line"/>
      <point x="118" y="295.5" type="line"/>
      <point x="161.5" y="245.5" type="line" name="n06"/>
      <point x="1053" y="1037.5" type="line"/>
    </contour>
  </outline>
  <guideline angle="82.9991" x="580" y="0"/>
</glyph>
<glyph name="Oslash" format="2">
  <advance width="1473.5"/>
  <unicode hex="00D8"/>
  <guideline x="732.0" y="0.0" angle="82.9991"/>
  <anchor x="852.0" y="1503.25" name="Top"/>
  <anchor x="852.0" y="1503.25" name="top"/>
  <anchor x="560.75" y="-70.0" name="bottom"/>
  <outline>
    <contour>
      <point x="1423.0" y="1479.0" type="line"/>
      <point x="1371.0" y="1479.0" type="line" smooth="yes"/>
      <point x="1346.0" y="1479.0"/>
      <point x="1337.5" y="1470.5"/>
      <point x="1319.0" y="1450.0" type="curve"/>
      <point x="67.0" y="-105.0" type="line"/>
      <point x="108.0" y="-105.0" type="line" smooth="yes"/>
      <point x="129.0" y="-105.0"/>
      <point x="153.0" y="-96.0"/>
      <point x="172.5" y="-74.0" type="curve"/>
    </contour>
    <contour>
      <point x="1381.0" y="816.0" type="curve" smooth="yes"/>
      <point x="1381.0" y="1181.5"/>
      <point x="1171.0" y="1431.0"/>
      <point x="838.5" y="1431.0" type="curve" smooth="yes"/>
      <point x="430.5" y="1431.0"/>
      <point x="119.0" y="1096.0"/>
      <point x="119.0" y="598.5" type="curve" smooth="yes"/>
      <point x="119.0" y="233.0"/>
      <point x="329.0" y="-14.5"/>
      <point x="660.5" y="-14.5" type="curve" smooth="yes"/>
      <point x="1072.5" y="-14.5"/>
      <point x="1381.0" y="317.5"/>
    </contour>
    <contour>
      <point x="1278.0" y="814.0" type="curve" smooth="yes"/>
      <point x="1278.0" y="354.0"/>
      <point x="1022.5" y="68.5"/>
      <point x="671.0" y="68.5" type="curve" smooth="yes"/>
      <point x="397.5" y="68.5"/>
      <point x="220.5" y="275.0"/>
      <point x="220.5" y="602.0" type="curve"/>
      <point x="220.5" y="1060.5"/>
      <point x="481.5" y="1348.0"/>
      <point x="827.0" y="1348.0" type="curve" smooth="yes"/>
      <point x="1103.0" y="1348.0"/>
      <point x="1278.0" y="1141.0"/>
    </contour>
  </outline>
</glyph>
<glyph name="germandbls" format="2">
  <advance width="1089"/>
  <unicode hex="00DF"/>
  <anchor x="696" y="1503.25" name="Top"/>
  <anchor x="435.25" y="-421" name="bottom"/>
  <anchor x="696" y="1503.25" name="top"/>
  <outline>
    <contour>
      <point x="722.5" y="1432" type="curve" smooth="yes" name="n00"/>
      <point x="482.5" y="1432"/>
      <point x="282.5" y="1195"/>
      <point x="248" y="925.5" type="curve"/>
      <point x="104" y="-250.5" type="line" name="n04"/>
      <point x="138.5" y="-250.5" type="line" smooth="yes"/>
      <point x="164" y="-250.5"/>
      <point x="179.5" y="-237"/>
      <point x="187.5" y="-209.5" type="curve"/>
      <point x="229.5" y="20.5" type="line"/>
      <point x="341.5" y="923" type="line" smooth="yes"/>
      <point x="372.5" y="1175.5"/>
      <point x="536" y="1362.5"/>
      <point x="709.5" y="1362.5" type="curve" smooth="yes" name="n13"/>
      <point x="874" y="1362.5"/>
      <point x="929" y="1248.5"/>
      <point x="929" y="1170" type="curve" smooth="yes"/>
      <point x="929" y="919"/>
      <point x="572" y="905.5"/>
      <point x="572" y="679.5" type="curve" smooth="yes"/>
      <point x="572" y="467"/>
      <point x="892" y="533.5"/>
      <point x="892" y="306.5" type="curve" smooth="yes"/>
      <point x="892" y="165.5"/>
      <point x="793" y="51.5"/>
      <point x="637.5" y="51.5" type="curve" smooth="yes" name="n25"/>
      <point x="484" y="51.5"/>
      <point x="442" y="153"/>
      <point x="410" y="153" type="curve" smooth="yes"/>
      <point x="396.5" y="153"/>
      <point x="388.5" y="147.5"/>
      <point x="381" y="138" type="curve" smooth="yes"/>
      <point x="355.5" y="104.5" type="line"/>
      <point x="420" y="32.5"/>
      <point x="498.5" y="-16"/>
      <point x="623" y="-16" type="curve" smooth="yes" name="n35"/>
      <point x="828.5" y="-16"/>
      <point x="980" y="128"/>
      <point x="980" y="330" type="curve" smooth="yes"/>
      <point x="980" y="593.5"/>
      <point x="669" y="539"/>
      <point x="669" y="703.5" type="curve" smooth="yes"/>
      <point x="669" y="876.5"/>
      <point x="1016.5" y="896"/>
      <point x="1016.5" y="1176.5" type="curve" smooth="yes"/>
      <point x="1016.5" y="1299"/>
      <point x="918" y="1432"/>
    </contour>
    <contour>
      <point x="310" y="894" type="line" name="n47"/>
      <point x="318.5" y="962.5" type="line" name="n48"/>
      <point x="92.5" y="962.5" type="line"/>
      <point x="89" y="925.5" type="line"/>
      <point x="86" y="911.5"/>
      <point x="96" y="903.5"/>
      <point x="113" y="901" type="curve"/>
      <point x="257" y="891.5" type="line"/>
      <point x="276" y="894" type="line"/>
    </contour>
  </outline>
  <guideline angle="82.9991" x="480" y="0"/>
</glyph>
<glyph name="ae" format="2">
  <advance width="1474.25"/>
  <unicode hex="00E6"/>
  <guideline x="714.25" y="0.0" angle="82.9991"/>
  <anchor x="792.5" y="1120.0" name="top"/>
  <anchor x="597.0" y="-70.0" name="bottom"/>
  <outline>
    <contour>
      <point x="1100.0" y="1010.5" type="curve" smooth="yes"/>
      <point x="828.0" y="1010.5"/>
      <point x="658.5" y="760.0"/>
      <point x="658.5" y="411.0" type="curve" smooth="yes"/>
      <point x="658.5" y="141.5"/>
      <point x="782.5" y="-13.0"/>
      <point x="975.5" y="-13.0" type="curve" smooth="yes"/>
      <point x="1130.0" y="-13.0"/>
      <point x="1244.75" y="48.0"/>
      <point x="1372.0" y="184.5" type="curve"/>
      <point x="1350.5" y="210.5" type="line" smooth="yes"/>
      <point x="1344.0" y="217.5"/>
      <point x="1337.5" y="220.5"/>
      <point x="1329.5" y="220.5" type="curve" smooth="yes"/>
      <point x="1284.75" y="220.5"/>
      <point x="1204.5" y="62.5"/>
      <point x="992.5" y="62.5" type="curve" smooth="yes"/>
      <point x="831.5" y="62.5"/>
      <point x="732.5" y="190.5"/>
      <point x="732.5" y="420.0" type="curve" smooth="yes"/>
      <point x="732.5" y="728.5"/>
      <point x="866.5" y="940.0"/>
      <point x="1090.0" y="940.0" type="curve" smooth="yes"/>
      <point x="1199.5" y="940.0"/>
      <point x="1270.0" y="882.5"/>
      <point x="1270.0" y="787.5" type="curve" smooth="yes"/>
      <point x="1270.0" y="667.0"/>
      <point x="1142.0" y="573.0"/>
      <point x="733.5" y="559.5" type="curve"/>
      <point x="720.5" y="502.0" type="line"/>
      <point x="1200.0" y="503.0"/>
      <point x="1354.0" y="635.5"/>
      <point x="1354.0" y="791.5" type="curve" smooth="yes"/>
      <point x="1354.0" y="919.5"/>
      <point x="1247.0" y="1010.5"/>
    </contour>
    <contour>
      <point x="702.0" y="384.5" type="line"/>
      <point x="739.0" y="648.0" type="line" smooth="yes"/>
      <point x="766.0" y="869.5"/>
      <point x="696.5" y="1011.5"/>
      <point x="501.0" y="1011.5" type="curve" smooth="yes"/>
      <point x="370.5" y="1011.5"/>
      <point x="265.5" y="957.5"/>
      <point x="158.5" y="853.5" type="curve"/>
      <point x="170.5" y="826.0" type="line"/>
      <point x="177.0" y="815.5"/>
      <point x="185.0" y="808.0"/>
      <point x="198.0" y="808.0" type="curve" smooth="yes"/>
      <point x="236.0" y="808.0"/>
      <point x="315.5" y="935.0"/>
      <point x="491.0" y="935.0" type="curve" smooth="yes"/>
      <point x="632.5" y="935.0"/>
      <point x="692.0" y="832.5"/>
      <point x="669.0" y="648.0" type="curve" smooth="yes"/>
      <point x="636.5" y="384.5" type="line"/>
    </contour>
    <contour>
      <point x="636.5" y="384.5" type="line"/>
      <point x="610.0" y="172.5"/>
      <point x="467.0" y="50.5"/>
      <point x="305.5" y="50.5" type="curve" smooth="yes"/>
      <point x="200.0" y="50.5"/>
      <point x="126.5" y="104.5"/>
      <point x="126.5" y="226.5" type="curve" smooth="yes"/>
      <point x="126.5" y="396.5"/>
      <point x="287.0" y="492.0"/>
      <point x="665.5" y="502.5" type="curve"/>
      <point x="663.0" y="563.0" type="line"/>
      <point x="216.5" y="552.5"/>
      <point x="36.5" y="415.5"/>
      <point x="36.5" y="214.0" type="curve" smooth="yes"/>
      <point x="36.5" y="53.0"/>
      <point x="139.5" y="-16.0"/>
      <point x="289.5" y="-16.0" type="curve" smooth="yes"/>
      <point x="442.0" y="-16.0"/>
      <point x="665.5" y="85.0"/>
      <point x="702.0" y="384.5" type="curve"/>
    </contour>
  </outline>
</glyph>
<glyph name="eth" format="2">
  <advance width="1041.75"/>
  <unicode hex="00F0"/>
  <guideline y="1406.25"/>
  <guideline x="495.0" y="0.0" angle="82.9991"/>
  <anchor x="806.75" y="1503.25" name="Top"/>
  <anchor x="806.75" y="1503.25" name="top"/>
  <anchor x="433.0" y="-70.0" name="bottom"/>
  <outline>
    <contour>
      <point x="395.0" y="1390.5" type="curve"/>
      <point x="382.0" y="1361.25" type="line"/>
      <point x="373.5" y="1340.25"/>
      <point x="379.0" y="1327.0"/>
      <point x="401.5" y="1320.75" type="curve"/>
      <point x="710.0" y="1254.25"/>
      <point x="897.0" y="1036.25"/>
      <point x="852.0" y="600.5" type="curve"/>
      <point x="840.0" y="595.0" type="line"/>
      <point x="800.5" y="237.5"/>
      <point x="660.5" y="61.0"/>
      <point x="438.5" y="61.0" type="curve" smooth="yes"/>
      <point x="286.5" y="61.0"/>
      <point x="168.5" y="186.5"/>
      <point x="168.5" y="393.0" type="curve" smooth="yes"/>
      <point x="168.5" y="643.0"/>
      <point x="304.5" y="848.5"/>
      <point x="545.0" y="848.5" type="curve" smooth="yes"/>
      <point x="736.5" y="848.5"/>
      <point x="822.5" y="690.0"/>
      <point x="840.0" y="548.5" type="curve"/>
      <point x="885.0" y="569.0" type="line"/>
      <point x="858.0" y="816.0"/>
      <point x="697.5" y="921.0"/>
      <point x="538.0" y="921.0" type="curve" smooth="yes"/>
      <point x="257.5" y="921.0"/>
      <point x="76.5" y="678.0"/>
      <point x="76.5" y="388.0" type="curve" smooth="yes"/>
      <point x="76.5" y="144.5"/>
      <point x="225.5" y="-11.5"/>
      <point x="428.0" y="-11.5" type="curve" smooth="yes"/>
      <point x="763.5" y="-11.5"/>
      <point x="935.0" y="299.5"/>
      <point x="935.0" y="722.0" type="curve" smooth="yes"/>
      <point x="935.0" y="1155.5"/>
      <point x="674.5" y="1342.0"/>
    </contour>
    <contour>
      <point x="511.5" y="1041.25" type="line"/>
      <point x="697.5" y="1200.5" type="line"/>
      <point x="706.5" y="1200.0" type="line"/>
      <point x="868.25" y="1340.0" type="line" smooth="yes"/>
      <point x="881.25" y="1349.0"/>
      <point x="880.5" y="1363.5"/>
      <point x="874.75" y="1372.5" type="curve"/>
      <point x="859.25" y="1401.25" type="line"/>
      <point x="678.0" y="1247.5" type="line"/>
      <point x="670.0" y="1248.0" type="line"/>
      <point x="498.25" y="1099.5" type="line" smooth="yes"/>
      <point x="488.75" y="1092.25"/>
      <point x="488.0" y="1079.25"/>
      <point x="493.75" y="1070.25" type="curve" smooth="yes"/>
    </contour>
  </outline>
</glyph>
<glyph name="divide" format="2">
  <advance width="1160.0"/>
  <unicode hex="00F7"/>
  <guideline x="580.0" y="0.0" angle="82.9991"/>
  <outline>
    <contour>
      <point x="114.0" y="635.0" type="line"/>
      <point x="1052.5" y="635.0" type="line"/>
      <point x="1061.0" y="706.0" type="line"/>
      <point x="122.5" y="706.0" type="line"/>
    </contour>
    <contour>
      <point x="538.5" y="1014.0" type="curve" smooth="yes"/>
      <point x="538.5" y="970.0"/>
      <point x="570.5" y="934.0"/>
      <point x="618.5" y="934.0" type="curve" smooth="yes"/>
      <point x="672.5" y="934.0"/>
      <point x="722.5" y="977.0"/>
      <point x="722.5" y="1034.0" type="curve" smooth="yes"/>
      <point x="722.5" y="1079.5"/>
      <point x="688.5" y="1117.5"/>
      <point x="641.0" y="1117.5" type="curve" smooth="yes"/>
      <point x="586.0" y="1117.5"/>
      <point x="538.5" y="1070.5"/>
    </contour>
    <contour>
      <point x="450.5" y="302.0" type="curve" smooth="yes"/>
      <point x="450.5" y="258.0"/>
      <point x="484.0" y="222.0"/>
      <point x="530.5" y="222.0" type="curve" smooth="yes"/>
      <point x="586.0" y="222.0"/>
      <point x="634.5" y="265.0"/>
      <point x="634.5" y="322.0" type="curve" smooth="yes"/>
      <point x="634.5" y="367.5"/>
      <point x="600.5" y="405.5"/>
      <point x="553.0" y="405.5" type="curve" smooth="yes"/>
      <point x="498.0" y="405.5"/>
      <point x="450.5" y="358.5"/>
    </contour>
  </outline>
</glyph>
<glyph name="oslash" format="2">
  <advance width="1026"/>
  <unicode hex="00F8"/>
  <anchor x="370.25" y="-70" name="bottom"/>
  <anchor x="583.25" y="1120" name="top"/>
  <outline>
    <contour>
      <point x="822.25" y="875" type="line"/>
      <point x="829.75" y="875" type="line"/>
      <point x="955.75" y="1045.5" type="line" name="n02"/>
      <point x="905.75" y="1045.5" type="line" smooth="yes"/>
      <point x="880.25" y="1045.5"/>
      <point x="871.75" y="1037"/>
      <point x="856.25" y="1016" type="curve" smooth="yes"/>
      <point x="757.25" y="881.5" type="line"/>
      <point x="749.25" y="881.5" type="line"/>
      <point x="181.75" y="116.5" type="line"/>
      <point x="174.25" y="116.5" type="line"/>
      <point x="38.75" y="-66" type="line" name="n11"/>
      <point x="77.25" y="-66" type="line" smooth="yes"/>
      <point x="99.25" y="-66"/>
      <point x="123.25" y="-57"/>
      <point x="139.75" y="-34.5" type="curve" smooth="yes"/>
      <point x="249.25" y="114.5" type="line"/>
      <point x="256.75" y="114.5" type="line"/>
    </contour>
    <contour>
      <point x="441.25" y="57" type="curve" smooth="yes" name="n18"/>
      <point x="272.75" y="57"/>
      <point x="168.25" y="184.5"/>
      <point x="168.25" y="396" type="curve" smooth="yes"/>
      <point x="168.25" y="685"/>
      <point x="327.75" y="941"/>
      <point x="560.25" y="941" type="curve" smooth="yes" name="n24"/>
      <point x="727.25" y="941"/>
      <point x="833.25" y="814"/>
      <point x="833.25" y="602" type="curve" smooth="yes"/>
      <point x="833.25" y="316.5"/>
      <point x="673.75" y="57"/>
    </contour>
    <contour>
      <point x="432.75" y="-13" type="curve" smooth="yes" name="n30"/>
      <point x="720.25" y="-13"/>
      <point x="923.75" y="281.5"/>
      <point x="923.75" y="602.5" type="curve" smooth="yes"/>
      <point x="923.75" y="855"/>
      <point x="782.75" y="1011"/>
      <point x="568.75" y="1011" type="curve" smooth="yes" name="n36"/>
      <point x="281.25" y="1011"/>
      <point x="77.75" y="719"/>
      <point x="77.75" y="395.5" type="curve" smooth="yes"/>
      <point x="77.75" y="141.5"/>
      <point x="218.75" y="-13"/>
    </contour>
  </outline>
  <guideline angle="82.9991" x="486" y="0"/>
</glyph>
<glyph name="thorn" format="2">
  <advance width="1031"/>
  <unicode hex="00FE"/>
  <anchor x="315.25" y="1503.25" name="Top"/>
  <anchor x="315.25" y="-421" name="bottom"/>
  <anchor x="315.25" y="1503.25" name="top"/>
  <outline>
    <contour>
      <point x="92.25" y="-352" type="line" smooth="yes" name="n00"/>
      <point x="115.25" y="-352"/>
      <point x="131.25" y="-335"/>
      <point x="134.25" y="-313" type="curve" smooth="yes"/>
      <point x="351.25" y="1455" type="line" name="n04"/>
      <point x="258.25" y="1455" type="line"/>
      <point x="37.75" y="-352" type="line"/>
    </contour>
    <contour>
      <point x="169.25" y="167" type="line"/>
      <point x="221.75" y="49"/>
      <point x="329.25" y="-13"/>
      <point x="449.75" y="-13" type="curve" smooth="yes" name="n10"/>
      <point x="739.75" y="-13"/>
      <point x="934.75" y="352.5"/>
      <point x="934.75" y="658.5" type="curve" smooth="yes"/>
      <point x="934.75" y="872.5"/>
      <point x="844.75" y="1009.5"/>
      <point x="671.75" y="1009.5" type="curve" smooth="yes" name="n16"/>
      <point x="474.25" y="1009.5"/>
      <point x="287.75" y="796"/>
      <point x="188.75" y="502.5" type="curve"/>
      <point x="219.25" y="449.5" type="line"/>
      <point x="313.25" y="738"/>
      <point x="480.75" y="933"/>
      <point x="640.75" y="933" type="curve" smooth="yes" name="n23"/>
      <point x="770.75" y="933"/>
      <point x="841.25" y="828"/>
      <point x="841.25" y="650.5" type="curve" smooth="yes"/>
      <point x="841.25" y="392"/>
      <point x="690.75" y="61.5"/>
      <point x="438.75" y="61.5" type="curve" smooth="yes" name="n29"/>
      <point x="338.75" y="61.5"/>
      <point x="239.75" y="107"/>
      <point x="183.75" y="234" type="curve"/>
    </contour>
  </outline>
  <guideline angle="82.9991" x="496" y="0"/>
</glyph>
<glyph name="dcroat" format="2">
  <advance width="1032.0"/>
  <unicode hex="0111"/>
  <guideline x="506.0" y="0.0" angle="82.9991"/>
  <anchor x="916.5" y="1503.25" name="Top"/>
  <anchor x="916.5" y="1503.25" name="top"/>
  <anchor x="481.25" y="-70.0" name="bottom"/>
  <outline>
    <contour>
      <point x="629.25" y="1195.0" type="line"/>
      <point x="624.75" y="1173.0"/>
      <point x="631.75" y="1158.0"/>
      <point x="660.75" y="1158.0" type="curve" smooth="yes"/>
      <point x="1087.25" y="1158.0" type="line"/>
      <point x="1094.25" y="1219.5" type="line"/>
      <point x="633.75" y="1219.5" type="line"/>
    </contour>
    <contour>
      <point x="804.75" y="0.0" type="line"/>
      <point x="983.25" y="1455.0" type="line"/>
      <point x="890.75" y="1455.0" type="line"/>
      <point x="759.75" y="400.5" type="line"/>
      <point x="762.25" y="384.0" type="line"/>
      <point x="724.75" y="36.0" type="line"/>
      <point x="724.75" y="17.0"/>
      <point x="731.75" y="0.0"/>
      <point x="758.75" y="0.0" type="curve" smooth="yes"/>
    </contour>
    <contour>
      <point x="837.75" y="821.5" type="line"/>
      <point x="785.25" y="939.5"/>
      <point x="677.75" y="1000.0"/>
      <point x="557.25" y="1000.0" type="curve" smooth="yes"/>
      <point x="267.25" y="1000.0"/>
      <point x="72.25" y="645.5"/>
      <point x="72.25" y="339.5" type="curve" smooth="yes"/>
      <point x="72.25" y="125.5"/>
      <point x="162.25" y="-13.0"/>
      <point x="335.25" y="-13.0" type="curve" smooth="yes"/>
      <point x="532.75" y="-13.0"/>
      <point x="719.25" y="202.0"/>
      <point x="818.25" y="495.5" type="curve"/>
      <point x="787.75" y="548.5" type="line"/>
      <point x="693.75" y="260.0"/>
      <point x="526.25" y="63.5"/>
      <point x="366.25" y="63.5" type="curve" smooth="yes"/>
      <point x="236.25" y="63.5"/>
      <point x="165.75" y="170.0"/>
      <point x="165.75" y="347.5" type="curve" smooth="yes"/>
      <point x="165.75" y="606.0"/>
      <point x="316.25" y="925.5"/>
      <point x="568.25" y="925.5" type="curve" smooth="yes"/>
      <point x="668.25" y="925.5"/>
      <point x="767.25" y="881.5"/>
      <point x="823.25" y="754.5" type="curve"/>
    </contour>
  </outline>
</glyph>
<glyph name="hcircumflex" format="2">
  <advance width="1031.0"/>
  <unicode hex="0125"/>
  <guideline x="515.0" y="0.0" angle="82.9991"/>
  <anchor x="315.5" y="1503.25" name="Top"/>
  <anchor x="315.5" y="1503.25" name="top"/>
  <anchor x="443.5" y="-70.0" name="bottom"/>
  <anchor x="544.5" y="707.0" name="Slash"/>
  <outline>
    <contour>
      <point x="51.5" y="1541.5" type="line"/>
      <point x="122.5" y="1541.5" type="line" smooth="yes"/>
      <point x="133.0" y="1541.5"/>
      <point x="146.5" y="1545.0"/>
      <point x="155.5" y="1552.0" type="curve"/>
      <point x="322.5" y="1683.0" type="line"/>
      <point x="345.0" y="1699.5"/>
      <point x="360.0" y="1721.0"/>
      <point x="361.5" y="1740.5" type="curve"/>
      <point x="293.0" y="1740.5" type="line"/>
    </contour>
    <contour>
      <point x="380.0" y="1740.5" type="line"/>
      <point x="311.5" y="1740.5" type="line"/>
      <point x="308.5" y="1721.0"/>
      <point x="317.5" y="1700.0"/>
      <point x="337.5" y="1683.0" type="curve" smooth="yes"/>
      <point x="471.5" y="1552.0" type="line"/>
      <point x="479.0" y="1545.5"/>
      <point x="492.0" y="1541.5"/>
      <point x="500.5" y="1541.5" type="curve" smooth="yes"/>
      <point x="572.0" y="1541.5" type="line"/>
    </contour>
    <component base="h"/>
  </outline>
</glyph>
<glyph name="Hbar" format="2">
  <advance width="1422"/>
  <unicode hex="0126"/>
  <anchor x="802.75" y="1503.25" name="Top"/>
  <anchor x="642" y="-70" name="bottom"/>
  <anchor x="17.25" y="1120" name="onRight"/>
  <anchor x="802.75" y="1503.25" name="top"/>
  <outline>
    <component base="H" xOffset="15.5"/>
    <contour>
      <point x="110" y="1040" type="line" name="n00"/>
      <point x="1443.5" y="1040" type="line"/>
      <point x="1450.5" y="1101.5" type="line"/>
      <point x="117" y="1101.5" type="line" name="n03"/>
    </contour>
  </outline>
  <guideline angle="82.9991" x="714" y="0"/>
</glyph>
<glyph name="hbar" format="2">
  <advance width="1031.0"/>
  <unicode hex="0127"/>
  <guideline x="515.0" y="0.0" angle="82.9991"/>
  <anchor x="311.25" y="1503.25" name="Top"/>
  <anchor x="311.25" y="1503.25" name="top"/>
  <anchor x="443.5" y="-70.0" name="bottom"/>
  <outline>
    <contour>
      <point x="55.0" y="1157.5" type="line"/>
      <point x="522.0" y="1157.5" type="line" smooth="yes"/>
      <point x="544.5" y="1157.5"/>
      <point x="557.5" y="1168.0"/>
      <point x="561.0" y="1186.5" type="curve" smooth="yes"/>
      <point x="566.5" y="1220.5" type="line"/>
      <point x="63.0" y="1220.5" type="line"/>
    </contour>
    <contour>
      <point x="175.5" y="0.0" type="line"/>
      <point x="351.5" y="1455.0" type="line"/>
      <point x="257.5" y="1455.0" type="line"/>
      <point x="81.5" y="0.0" type="line"/>
    </contour>
    <contour>
      <point x="814.5" y="0.0" type="line"/>
      <point x="888.5" y="626.0" type="line"/>
      <point x="794.5" y="626.0" type="line"/>
      <point x="720.5" y="0.0" type="line"/>
    </contour>
    <contour>
      <point x="888.5" y="626.0" type="line"/>
      <point x="917.5" y="863.5"/>
      <point x="844.0" y="999.5"/>
      <point x="671.5" y="999.5" type="curve" smooth="yes"/>
      <point x="488.5" y="999.5"/>
      <point x="299.5" y="829.0"/>
      <point x="195.0" y="544.5" type="curve"/>
      <point x="224.0" y="489.5" type="line"/>
      <point x="319.5" y="752.0"/>
      <point x="488.5" y="921.0"/>
      <point x="640.0" y="921.0" type="curve" smooth="yes"/>
      <point x="772.5" y="921.0"/>
      <point x="817.5" y="816.5"/>
      <point x="794.5" y="626.0" type="curve"/>
    </contour>
  </outline>
</glyph>
<glyph name="idotless" format="2">
  <advance width="423"/>
  <unicode hex="0131"/>
  <anchor x="134" y="-70" name="bottom"/>
  <anchor x="272.5" y="1120" name="top"/>
  <outline>
    <contour>
      <point x="213" y="995" type="line" name="n00"/>
      <point x="92" y="0" type="line" name="n01"/>
      <point x="185" y="0" type="line"/>
      <point x="306" y="995" type="line"/>
    </contour>
  </outline>
  <guideline angle="82.9991" x="213" y="0"/>
</glyph>
<glyph name="kgreenlandic" format="2">
  <advance width="883.0"/>
  <unicode hex="0138"/>
  <guideline x="444.0" y="0.0" angle="82.9991"/>
  <anchor x="514.25" y="1120.0" name="top"/>
  <anchor x="400.75" y="-70.0" name="bottom"/>
  <outline>
    <contour>
      <point x="203.25" y="995.0" type="line"/>
      <point x="79.75" y="0.0" type="line"/>
      <point x="172.75" y="0.0" type="line"/>
      <point x="296.25" y="995.0" type="line"/>
    </contour>
    <contour>
      <point x="208.25" y="568.0" type="line"/>
      <point x="214.75" y="502.5" type="line"/>
      <point x="269.75" y="502.5" type="line" smooth="yes"/>
      <point x="306.25" y="502.5"/>
      <point x="319.75" y="496.5"/>
      <point x="336.75" y="471.5" type="curve" smooth="yes"/>
      <point x="667.25" y="22.5" type="line"/>
      <point x="678.25" y="5.0"/>
      <point x="690.25" y="0.0"/>
      <point x="708.75" y="0.0" type="curve" smooth="yes"/>
      <point x="787.75" y="0.0" type="line"/>
      <point x="423.75" y="502.0" type="line"/>
      <point x="403.75" y="536.0"/>
      <point x="380.25" y="560.0"/>
      <point x="319.75" y="560.0" type="curve"/>
      <point x="314.25" y="529.0" type="line"/>
      <point x="362.75" y="529.0"/>
      <point x="393.25" y="544.5"/>
      <point x="424.75" y="578.0" type="curve"/>
      <point x="878.25" y="995.0" type="line"/>
      <point x="797.25" y="995.0" type="line" smooth="yes"/>
      <point x="774.25" y="995.0"/>
      <point x="759.75" y="986.0"/>
      <point x="745.75" y="970.0" type="curve"/>
      <point x="333.75" y="591.0" type="line"/>
      <point x="311.75" y="569.0"/>
      <point x="295.25" y="568.0"/>
      <point x="279.25" y="568.0" type="curve" smooth="yes"/>
    </contour>
  </outline>
</glyph>
<glyph name="Lcaron" format="2">
  <advance width="933.5"/>
  <unicode hex="013D"/>
  <guideline x="470.5" y="0.0" angle="82.9991"/>
  <anchor x="361.25" y="1503.25" name="Top"/>
  <anchor x="361.25" y="1503.25" name="top"/>
  <anchor x="451.25" y="-70.0" name="bottom"/>
  <anchor x="260.25" y="707.0" name="Bar"/>
  <outline>
    <contour>
      <point x="658.0" y="1456.5" type="line"/>
      <point x="573.0" y="1156.0" type="line"/>
      <point x="604.0" y="1156.0" type="line" smooth="yes"/>
      <point x="624.0" y="1156.0"/>
      <point x="633.5" y="1162.0"/>
      <point x="643.0" y="1179.5" type="curve"/>
      <point x="716.0" y="1355.0"/>
      <point x="735.5" y="1409.0"/>
      <point x="735.5" y="1436.0" type="curve" smooth="yes"/>
      <point x="735.5" y="1448.5"/>
      <point x="731.0" y="1456.5"/>
      <point x="716.0" y="1456.5" type="curve" smooth="yes"/>
    </contour>
    <component base="L"/>
  </outline>
</glyph>
<glyph name="Lslash" format="2">
  <advance width="958.25"/>
  <unicode hex="0141"/>
  <guideline x="491.0" y="0.0" angle="82.9991"/>
  <anchor x="386.0" y="1503.25" name="Top"/>
  <anchor x="386.0" y="1503.25" name="top"/>
  <anchor x="476.0" y="-70.0" name="bottom"/>
  <anchor x="285.0" y="707.0" name="Bar"/>
  <outline>
    <contour>
      <point x="26.25" y="487.5" type="line"/>
      <point x="281.75" y="620.0" type="line"/>
      <point x="286.25" y="616.0" type="line"/>
      <point x="712.75" y="846.0" type="line"/>
      <point x="727.75" y="853.0"/>
      <point x="731.75" y="863.0"/>
      <point x="734.25" y="876.5" type="curve"/>
      <point x="741.25" y="937.0" type="line"/>
      <point x="297.25" y="701.0" type="line"/>
      <point x="293.75" y="705.5" type="line"/>
      <point x="55.25" y="579.5" type="line"/>
      <point x="41.75" y="572.5"/>
      <point x="35.25" y="564.5"/>
      <point x="34.75" y="550.5" type="curve"/>
    </contour>
    <component base="L" xOffset="24.75"/>
  </outline>
</glyph>
<glyph name="lslash" format="2">
  <advance width="539"/>
  <unicode hex="0142"/>
  <anchor x="389.25" y="1503.25" name="Top"/>
  <anchor x="296" y="714" name="bar"/>
  <anchor x="198.5" y="-70" name="bottom"/>
  <anchor x="258.5" y="70.5" name="hook"/>
  <anchor x="389.25" y="1503.25" name="top"/>
  <outline>
    <component base="l" xOffset="70.25"/>
    <contour>
      <point x="57.5" y="660.5" type="line" name="n00"/>
      <point x="298" y="771" type="line"/>
      <point x="303" y="766.5" type="line"/>
      <point x="524" y="870" type="line" smooth="yes"/>
      <point x="539.5" y="877"/>
      <point x="543" y="887"/>
      <point x="543" y="901" type="curve" smooth="yes"/>
      <point x="543" y="951" type="line" name="n07"/>
      <point x="303" y="842" type="line"/>
      <point x="298.5" y="846.5" type="line"/>
      <point x="75.5" y="741" type="line"/>
      <point x="62" y="734"/>
      <point x="57.5" y="726"/>
      <point x="57.5" y="712" type="curve" smooth="yes"/>
    </contour>
  </outline>
  <guideline angle="82.9991" x="264" y="0"/>
</glyph>
<glyph name="Eng" format="2">
  <advance width="1404"/>
  <unicode hex="014A"/>
  <anchor x="813.5" y="1501.75" name="Top"/>
  <anchor x="581.25" y="-421" name="bottom"/>
  <anchor x="813.5" y="1501.75" name="top"/>
  <outline>
    <contour>
      <point x="1086.5" y="135.25" type="line"/>
      <point x="381.5" y="1395.5" type="line"/>
      <point x="372" y="1411.25"/>
      <point x="364.75" y="1414.75" name="n03"/>
      <point x="346.25" y="1414.75" type="curve" smooth="yes"/>
      <point x="297.5" y="1414.75" type="line"/>
      <point x="123.75" y="0" type="line" name="n06"/>
      <point x="210.5" y="0" type="line"/>
      <point x="358" y="1198" type="line" smooth="yes"/>
      <point x="362.25" y="1232.25"/>
      <point x="363.75" y="1277.75"/>
      <point x="361.25" y="1312" type="curve"/>
      <point x="346.25" y="1279.5" type="line"/>
      <point x="1050.5" y="19.25" type="line"/>
      <point x="1059.5" y="6"/>
      <point x="1068.25" y="0"/>
      <point x="1084.5" y="0" type="curve"/>
      <point x="1135" y="21" type="line"/>
      <point x="1306" y="1414.75" type="line"/>
      <point x="1219.25" y="1414.75" type="line"/>
      <point x="1072.75" y="220.75" type="line" smooth="yes"/>
      <point x="1068.25" y="185.5"/>
      <point x="1067.25" y="139"/>
      <point x="1069.5" y="104" type="curve"/>
    </contour>
    <contour>
      <point x="1147" y="116" type="line"/>
      <point x="1059" y="116" type="line"/>
      <point x="1039.5" y="-44.75" type="line" smooth="yes"/>
      <point x="1019.5" y="-207.25"/>
      <point x="945" y="-288.5"/>
      <point x="829.25" y="-288.5" type="curve" smooth="yes"/>
      <point x="775.5" y="-288.5"/>
      <point x="746.75" y="-270.25"/>
      <point x="734.5" y="-270.25" type="curve" smooth="yes" name="n32"/>
      <point x="726" y="-270.25"/>
      <point x="716" y="-273"/>
      <point x="709.25" y="-290.5" type="curve" smooth="yes"/>
      <point x="694.75" y="-328.75" type="line"/>
      <point x="739" y="-349"/>
      <point x="778.25" y="-359"/>
      <point x="828.75" y="-359" type="curve" smooth="yes" name="n39"/>
      <point x="1005.5" y="-359"/>
      <point x="1103.75" y="-236"/>
      <point x="1127.5" y="-36" type="curve"/>
    </contour>
  </outline>
  <guideline angle="82.9991" x="665" y="0"/>
</glyph>
<glyph name="eng" format="2">
  <advance width="1033"/>
  <unicode hex="014B"/>
  <anchor x="401.75" y="-421" name="bottom"/>
  <anchor x="571.75" y="1120" name="top"/>
  <outline>
    <contour>
      <point x="725.5" y="26.5" type="line" name="n00"/>
      <point x="715.75" y="-57" type="line" smooth="yes"/>
      <point x="696.75" y="-219.5"/>
      <point x="621.5" y="-298.5"/>
      <point x="507.25" y="-298.5" type="curve" smooth="yes"/>
      <point x="452.5" y="-298.5"/>
      <point x="424" y="-282"/>
      <point x="412.5" y="-282" type="curve" smooth="yes" name="n07"/>
      <point x="397.25" y="-282"/>
      <point x="391" y="-286.75"/>
      <point x="386.75" y="-304.5" type="curve"/>
      <point x="378" y="-347" type="line"/>
      <point x="422" y="-363.75"/>
      <point x="457" y="-371.25"/>
      <point x="506.75" y="-371.25" type="curve" smooth="yes" name="n14"/>
      <point x="685.5" y="-371.25"/>
      <point x="786" y="-249.25"/>
      <point x="811" y="-48" type="curve" smooth="yes"/>
      <point x="820.75" y="34.5" type="line"/>
    </contour>
    <contour>
      <point x="175.75" y="0" type="line"/>
      <point x="247.75" y="620.5" type="line"/>
      <point x="245.75" y="628" type="line"/>
      <point x="278.75" y="962.5" type="line"/>
      <point x="279.5" y="984.5"/>
      <point x="267.75" y="998" name="n24"/>
      <point x="244.25" y="998" type="curve" smooth="yes"/>
      <point x="201.25" y="998" type="line"/>
      <point x="81.75" y="0" type="line"/>
    </contour>
    <contour>
      <point x="820.75" y="34.5" type="line"/>
      <point x="891.25" y="636" type="line"/>
      <point x="797.25" y="636" type="line"/>
      <point x="725.5" y="26.5" type="line"/>
    </contour>
    <contour>
      <point x="891.25" y="636" type="line"/>
      <point x="920.25" y="873.5"/>
      <point x="845.25" y="1009.5"/>
      <point x="674.75" y="1009.5" type="curve" smooth="yes" name="n35"/>
      <point x="491.25" y="1009.5"/>
      <point x="302.75" y="839"/>
      <point x="198.25" y="554.5" type="curve"/>
      <point x="226.75" y="499.5" type="line"/>
      <point x="320.75" y="762"/>
      <point x="489.75" y="930.5"/>
      <point x="643.25" y="930.5" type="curve" smooth="yes" name="n42"/>
      <point x="775.25" y="930.5"/>
      <point x="820.25" y="826.5"/>
      <point x="797.25" y="636" type="curve"/>
    </contour>
  </outline>
  <guideline angle="82.9991" x="503" y="0"/>
</glyph>
